<?xml version="1.0" standalone="no"?>
<!DOCTYPE svg PUBLIC "-//W3C//DTD SVG 1.1//EN" "http://www.w3.org/Graphics/SVG/1.1/DTD/svg11.dtd" >
<svg xmlns="http://www.w3.org/2000/svg" xmlns:xlink="http://www.w3.org/1999/xlink" version="1.1">
<metadata>
Created by FontForge 20170731 at Fri May 24 15:33:14 2019
 By Aleksey,,,
(c) Ilya Ruderman and Yury Ostromentsky, CSTM Fonts, 2019
</metadata>
<defs>
<font id="MTSSans-UltraWide" horiz-adv-x="798" >
  <font-face 
    font-family="MTS Sans UltraWide"
    font-weight="700"
    font-style="italic"
    font-stretch="expanded"
    units-per-em="1000"
    panose-1="2 0 0 0 0 0 0 0 0 0"
    ascent="800"
    descent="-200"
    x-height="519"
    cap-height="690"
    bbox="-160 -224 1926 953"
    underline-thickness="50"
    underline-position="-200"
    slope="-180"
    unicode-range="U+0020-FEFF"
  />
<missing-glyph horiz-adv-x="500" 
 />
    <glyph glyph-name="fi" unicode="fi" horiz-adv-x="742" 
d="M700 0h-242v342h-150v-342h-242v342h-59v177h59v7q0 110 52.5 157t192.5 47h389v-167h-321q-42 0 -56.5 -7t-14.5 -27v-10h392v-519z" />
    <glyph glyph-name="fl" unicode="fl" horiz-adv-x="742" 
d="M700 0h-242v342h-150v-342h-242v342h-59v177h59v7q0 110 52.5 157t192.5 47h389v-730zM308 539v-20h150v59h-79q-42 0 -56.5 -8t-14.5 -31z" />
    <glyph glyph-name=".notdef" horiz-adv-x="500" 
 />
    <glyph glyph-name=".null" horiz-adv-x="0" 
 />
    <glyph glyph-name="nonmarkingreturn" horiz-adv-x="333" 
 />
    <glyph glyph-name="space" unicode=" " horiz-adv-x="250" 
 />
    <glyph glyph-name="exclam" unicode="!" horiz-adv-x="391" 
d="M289 268h-187l-47 422h281zM331 100q0 -61 -33.5 -88.5t-100.5 -27.5q-136 0 -136 116q0 60 34 87t102 27q67 0 100.5 -26.5t33.5 -87.5z" />
    <glyph glyph-name="quotedbl" unicode="&#x22;" horiz-adv-x="656" 
d="M267 424h-170l-28 266h226zM559 424h-170l-28 266h226z" />
    <glyph glyph-name="numbersign" unicode="#" horiz-adv-x="1002" 
d="M70 378l40 174h159l30 138h186l-30 -138h178l30 138h187l-30 -138h140l-40 -174h-137l-18 -87h168l-40 -174h-165l-25 -117h-187l25 117h-178l-25 -117h-186l25 117h-134l40 174h131l18 87h-162zM418 378l-18 -87h178l18 87h-178z" />
    <glyph glyph-name="dollar" unicode="$" horiz-adv-x="890" 
d="M548 -120h-215v109q-151 14 -223 72.5t-79 169.5h247q7 -41 47 -54t124 -13q87 0 125 9.5t38 36.5q0 20 -31.5 29.5t-82 11.5t-111 3.5t-121.5 11.5t-111.5 29.5t-82 62.5t-31.5 107q0 110 74 166t218 70v109h215v-109q142 -14 217.5 -72t82.5 -168h-247q-7 39 -44.5 52
t-114.5 13q-80 0 -117.5 -8.5t-37.5 -36.5q0 -23 42.5 -33t106 -10t137.5 -8t137.5 -24t106 -61.5t42.5 -116.5q0 -115 -76 -172.5t-235 -68.5v-107z" />
    <glyph glyph-name="percent" unicode="%" horiz-adv-x="1402" 
d="M1087 690l-545 -690h-227l544 690h228zM338 314q-278 0 -278 197q0 195 278 195t278 -195q0 -197 -278 -197zM338 449q53 0 73.5 9.5t20.5 45.5v14q0 35 -20.5 44t-73.5 9t-73.5 -9t-20.5 -44v-14q0 -36 20.5 -45.5t73.5 -9.5zM1065 -16q-278 0 -278 196t278 196
q277 0 277 -196t-277 -196zM1065 119q53 0 73.5 9.5t20.5 44.5v15q0 34 -21 43.5t-73 9.5q-53 0 -74 -9.5t-21 -43.5v-15q0 -35 20.5 -44.5t74.5 -9.5z" />
    <glyph glyph-name="ampersand" unicode="&#x26;" horiz-adv-x="1004" 
d="M50 188q-1 63 29 106t106 74q-34 31 -47 63.5t-13 76.5q0 93 75 145.5t231 52.5q151 0 227.5 -53.5t76.5 -142.5q0 -59 -33.5 -98.5t-122.5 -75.5l108 -64q16 35 16 73h210q0 -95 -40 -169q11 -2 42 -2h38v-174h-64q-101 0 -170 38q-115 -54 -291 -54q-376 0 -378 204z
M433 151q46 0 82 7l-174 104q-48 -14 -48 -41v-16q0 -54 140 -54zM355 497q0 -19 12 -31t54 -37q44 12 64 27.5t20 39.5v5q0 42 -74 42q-76 0 -76 -42v-4z" />
    <glyph glyph-name="quotesingle" unicode="'" horiz-adv-x="364" 
d="M267 424h-170l-28 266h226z" />
    <glyph glyph-name="parenleft" unicode="(" horiz-adv-x="562" 
d="M510 -214q-198 14 -314 130t-116 349q0 120 33 211t92.5 147t135 85.5t169.5 36.5v-176q-91 -13 -142 -76t-51 -163v-130q0 -100 51 -162.5t142 -75.5v-176z" />
    <glyph glyph-name="parenright" unicode=")" horiz-adv-x="562" 
d="M52 745q198 -14 314 -130t116 -349q0 -120 -33 -211t-92.5 -147t-135 -85.5t-169.5 -36.5v176q91 13 142 76t51 163v130q0 100 -51 162.5t-142 75.5v176z" />
    <glyph glyph-name="asterisk" unicode="*" horiz-adv-x="631" 
d="M547 435l-69 -121l-96 59l8 -104h-149l8 104l-96 -59l-69 121l99 45l-99 45l69 120l96 -60l-8 105h149l-9 -105l97 60l69 -120l-98 -46z" />
    <glyph glyph-name="plus" unicode="+" 
d="M294 61v196h-226v205h226v196h210v-196h226v-205h-226v-196h-210z" />
    <glyph glyph-name="comma" unicode="," horiz-adv-x="363" 
d="M179 214q66 0 101.5 -29t35.5 -97v-43q0 -126 -52.5 -172.5t-180.5 -46.5v108q54 0 77.5 11t23.5 39q-70 0 -103.5 28t-33.5 88q0 114 132 114z" />
    <glyph glyph-name="hyphen" unicode="-" horiz-adv-x="450" 
d="M400 149h-350v221h350v-221z" />
    <glyph glyph-name="period" unicode="." horiz-adv-x="364" 
d="M317 100q0 -61 -33.5 -88.5t-100.5 -27.5q-136 0 -136 116q0 60 34 87t102 27q67 0 100.5 -26.5t33.5 -87.5z" />
    <glyph glyph-name="slash" unicode="/" horiz-adv-x="661" 
d="M307 -95h-237l334 835h237z" />
    <glyph glyph-name="zero" unicode="0" horiz-adv-x="831" 
d="M802 350q0 -108 -27 -181.5t-80.5 -113t-120 -55.5t-158.5 -16t-158.5 16t-120 55.5t-80.5 113t-27 181.5q0 104 27 175t80.5 110t120.5 55t158 16t158 -16t120.5 -55t80.5 -110t27 -175zM550 304v84q0 74 -35 100.5t-99 26.5q-65 0 -99.5 -26t-34.5 -101v-84
q0 -44 9.5 -71t30.5 -39t40.5 -15.5t53.5 -3.5q33 0 53 3.5t41 15.5t30.5 39t9.5 71z" />
    <glyph glyph-name="one" unicode="1" horiz-adv-x="500" 
d="M20 345v227l181 118h247v-690h-247v466z" />
    <glyph glyph-name="two" unicode="2" horiz-adv-x="792" 
d="M402 515q-57 0 -81.5 -11t-33.5 -41h-248q9 135 99 189t264 54q171 0 262 -51t91 -171q0 -66 -32.5 -114t-81 -72.5t-106 -41.5t-107 -24t-85 -17.5t-39.5 -24.5h443v-190h-709v113q0 67 26 118t67.5 80t92 49t101 31t92 20.5t67.5 22t26 31.5v7q0 28 -25.5 35.5
t-82.5 7.5z" />
    <glyph glyph-name="three" unicode="3" horiz-adv-x="794" 
d="M405 160q67 0 91.5 12.5t24.5 49.5v13q0 24 -26.5 32.5t-93.5 8.5h-77v159h77q51 0 72.5 8.5t21.5 28.5v10q0 28 -23 38t-79 10q-24 0 -38 -1t-29.5 -5t-23.5 -12.5t-11 -22.5h-237q6 119 91.5 168t245.5 49q341 0 341 -182q0 -116 -117 -159q147 -40 147 -160
q0 -114 -89 -167.5t-268 -53.5q-183 0 -277 53.5t-98 171.5h243q7 -32 34.5 -40.5t97.5 -8.5z" />
    <glyph glyph-name="four" unicode="4" horiz-adv-x="862" 
d="M350 690h362v-376h122v-181h-122v-133h-248v133h-438v169zM288 314h176v211z" />
    <glyph glyph-name="five" unicode="5" horiz-adv-x="800" 
d="M405 165q57 0 82 11.5t25 48.5v17q0 32 -27 45.5t-83 13.5q-80 0 -129 -19l-205 41l27 367h626v-190h-431l-6 -91q59 41 177 41q145 0 220.5 -61t75.5 -166q0 -123 -81.5 -181t-270.5 -58q-178 0 -266.5 54t-98.5 171h246q17 -44 119 -44z" />
    <glyph glyph-name="six" unicode="6" horiz-adv-x="806" 
d="M401 529q-75 0 -100 -29t-25 -87v-16q68 52 202 52q146 0 221.5 -52t75.5 -171q0 -121 -87.5 -181.5t-270.5 -60.5q-204 0 -296 81.5t-91 270.5q0 107 27 180.5t80 114.5t120 58t160 17q160 0 243 -53t97 -158h-248q-26 34 -108 34zM413 159q63 0 89 9t26 45v13
q0 38 -28 50t-87 12q-72 0 -102 -12.5t-30 -54.5q0 -36 31.5 -49t100.5 -13z" />
    <glyph glyph-name="seven" unicode="7" horiz-adv-x="682" 
d="M28 490v200h623v-154l-296 -536h-243l270 490h-354z" />
    <glyph glyph-name="eight" unicode="8" horiz-adv-x="807" 
d="M406 -16q-186 0 -280 49t-94 171q0 137 168 167q-78 14 -110.5 52.5t-32.5 101.5q0 181 349 181q350 0 350 -181q0 -64 -32.5 -102t-111.5 -52q168 -30 168 -167q0 -83 -47.5 -133t-126.5 -68.5t-200 -18.5zM406 272q-70 0 -101.5 -11.5t-31.5 -41.5v-17q0 -33 32 -44.5
t101 -11.5q68 0 100.5 11.5t32.5 43.5v17q0 30 -31.5 42t-101.5 12zM406 435q56 0 82.5 11.5t26.5 38.5v11q0 30 -24 39.5t-85 9.5t-84.5 -9.5t-23.5 -39.5v-11q0 -27 26 -38.5t82 -11.5z" />
    <glyph glyph-name="nine" unicode="9" horiz-adv-x="806" 
d="M405 164q75 0 100 29t25 87v16q-68 -52 -202 -52q-146 0 -221.5 52t-75.5 171q0 121 87.5 181.5t270.5 60.5q204 0 296 -81.5t91 -270.5q0 -107 -27 -180.5t-80 -114.5t-120 -58t-160 -17q-160 0 -243 53t-97 158h248q26 -34 108 -34zM393 534q-63 0 -89 -9t-26 -45v-13
q0 -37 28 -49.5t87 -12.5q72 0 102 12.5t30 54.5q0 36 -31.5 49t-100.5 13z" />
    <glyph glyph-name="colon" unicode=":" horiz-adv-x="364" 
d="M317 100q0 -61 -33.5 -88.5t-100.5 -27.5q-136 0 -136 116q0 60 34 87t102 27q67 0 100.5 -26.5t33.5 -87.5zM317 389q0 -61 -33.5 -88.5t-100.5 -27.5q-136 0 -136 116q0 60 34 87t102 27q67 0 100.5 -26.5t33.5 -87.5z" />
    <glyph glyph-name="semicolon" unicode=";" horiz-adv-x="340" 
d="M317 389q0 -61 -33.5 -88.5t-100.5 -27.5q-136 0 -136 116q0 60 34 87t102 27q67 0 100.5 -26.5t33.5 -87.5zM179 214q66 0 101.5 -29t35.5 -97v-43q0 -126 -52.5 -172.5t-180.5 -46.5v108q54 0 77.5 11t23.5 39q-70 0 -103.5 28t-33.5 88q0 114 132 114z" />
    <glyph glyph-name="less" unicode="&#x3c;" 
d="M730 458l-410 -97l410 -97v-213l-662 178v262l662 177v-210z" />
    <glyph glyph-name="equal" unicode="=" 
d="M730 417h-662v204h662v-204zM730 97h-662v204h662v-204z" />
    <glyph glyph-name="greater" unicode="&#x3e;" 
d="M68 261l410 97l-410 97v213l662 -178v-262l-662 -177v210z" />
    <glyph glyph-name="question" unicode="?" horiz-adv-x="893" 
d="M449 526q-35 0 -56 -1.5t-45 -7.5t-37 -20.5t-16 -37.5h-245q3 69 33.5 118t85 76.5t123 40t157.5 12.5q189 0 291.5 -52t102.5 -155q0 -51 -22.5 -86.5t-56.5 -50.5t-73 -25.5t-73 -14.5t-56.5 -15t-22.5 -29v-10h-220v9q0 53 27.5 87t66.5 48t78.5 22t67 18t27.5 27v7
q0 25 -32.5 32.5t-104.5 7.5zM567 100q0 -61 -33.5 -88.5t-100.5 -27.5q-136 0 -136 116q0 60 34 87t102 27q67 0 100.5 -26.5t33.5 -87.5z" />
    <glyph glyph-name="at" unicode="@" horiz-adv-x="1362" 
d="M589 23q-108 0 -166 54.5t-58 179.5q0 228 224 228q118 0 170 -61v38h206v-225q0 -32 15.5 -43.5t47.5 -11.5q45 0 62.5 15.5t17.5 72.5v53q0 128 -101.5 184.5t-322.5 56.5q-227 0 -328.5 -63.5t-101.5 -216.5v-61q0 -151 95 -208t311 -57q81 0 166.5 11t125.5 29v-136
q-42 -20 -122.5 -33t-172.5 -13q-120 0 -210 12t-168 41.5t-127.5 79t-77 126t-27.5 179.5q0 235 161 343.5t476 108.5q631 0 631 -407q0 -138 -74.5 -207t-229.5 -69q-190 0 -224 107q-42 -107 -198 -107zM672 176q48 0 66 10t18 40v59q0 28 -17.5 37.5t-67.5 9.5
q-45 0 -62.5 -9.5t-17.5 -37.5v-59q0 -30 17 -40t64 -10z" />
    <glyph glyph-name="A" unicode="A" horiz-adv-x="945" 
d="M301 690h347l288 -690h-255l-54 129h-344l-54 -129h-220zM457 540l-96 -227h190z" />
    <glyph glyph-name="B" unicode="B" horiz-adv-x="862" 
d="M837 203q0 -203 -248 -203h-537v690h561q97 0 151.5 -43.5t54.5 -122.5q0 -118 -114 -157q132 -38 132 -164zM585 233q0 23 -18.5 36.5t-48.5 13.5h-220v-127h220q31 0 49 14t18 38v25zM567 488q0 21 -17 33.5t-46 12.5h-206v-106h206q29 0 46 12t17 33v15z" />
    <glyph glyph-name="C" unicode="C" horiz-adv-x="926" 
d="M467 -16q-107 0 -182.5 15.5t-135.5 54t-89.5 110.5t-29.5 180q0 105 29.5 177t89 112t136 56.5t182.5 16.5q201 0 311.5 -63t121.5 -211h-252q-2 27 -16 44.5t-41 25.5t-54 10.5t-70 2.5q-33 0 -49 -0.5t-42 -4t-39.5 -11t-28 -21t-20.5 -35.5t-6 -52v-94
q0 -35 10.5 -59t24 -36.5t42.5 -18.5t48.5 -7t59.5 -1t69 3t55 10.5t40.5 23.5t17.5 40h252q-13 -143 -123.5 -205.5t-310.5 -62.5z" />
    <glyph glyph-name="D" unicode="D" horiz-adv-x="929" 
d="M503 205q79 0 111.5 19t32.5 89v81q0 64 -34 85t-110 21h-204v-295h204zM523 0h-471v705h471q92 0 157 -15.5t116.5 -53t77 -107.5t25.5 -174q0 -86 -17.5 -149t-48 -102.5t-79 -62.5t-103 -32t-128.5 -9z" />
    <glyph glyph-name="E" unicode="E" horiz-adv-x="781" 
d="M744 0h-692v690h694v-193h-447v-60h269v-172h-269v-72h445v-193z" />
    <glyph glyph-name="F" unicode="F" horiz-adv-x="775" 
d="M299 0h-247v690h696v-205h-449v-64h321v-195h-321v-226z" />
    <glyph glyph-name="G" unicode="G" horiz-adv-x="959" 
d="M929 309q0 -91 -33 -155.5t-96 -101t-144 -52.5t-188 -16q-85 0 -149 9t-120.5 33t-92 64t-56 103.5t-20.5 150.5q0 105 30 177t90.5 112t137.5 56.5t184 16.5q139 0 232 -23t152 -82.5t67 -157.5h-253q-2 24 -17 39t-44.5 22t-59.5 9t-77 2q-34 0 -50.5 -0.5t-43.5 -3.5
t-40.5 -10.5t-28.5 -19.5t-21 -32t-6 -48v-126q0 -29 10.5 -48.5t24.5 -30t43 -15.5t49 -5.5t60 -0.5q106 0 155 12t53 54h-225v156h477v-88z" />
    <glyph glyph-name="H" unicode="H" horiz-adv-x="943" 
d="M891 0h-247v257h-345v-257h-247v690h247v-228h345v228h247v-690z" />
    <glyph glyph-name="I" unicode="I" horiz-adv-x="351" 
d="M299 0h-247v690h247v-690z" />
    <glyph glyph-name="J" unicode="J" horiz-adv-x="553" 
d="M253 277v413h247v-487q0 -109 -49.5 -156t-159.5 -47h-274v202h166q70 0 70 75z" />
    <glyph glyph-name="K" unicode="K" horiz-adv-x="941" 
d="M299 690v-228h114l230 228h282l-328 -325l343 -365h-301l-245 259h-95v-259h-247v690h247z" />
    <glyph glyph-name="L" unicode="L" horiz-adv-x="726" 
d="M706 0h-654v690h247v-485h407v-205z" />
    <glyph glyph-name="M" unicode="M" horiz-adv-x="1160" 
d="M458 690l137 -406l138 406h375v-690h-247v511l-152 -437h-276l-152 437v-511h-229v690h406z" />
    <glyph glyph-name="N" unicode="N" horiz-adv-x="964" 
d="M406 690l272 -455v455h234v-690h-354l-272 454v-454h-234v690h354z" />
    <glyph glyph-name="O" unicode="O" horiz-adv-x="977" 
d="M947 353q0 -110 -30 -183.5t-92 -113.5t-142 -56t-195 -16t-194.5 16t-141.5 56t-92 113.5t-30 183.5q0 104 30 174.5t92 109t141.5 54t194.5 15.5t195 -15.5t142 -54t92 -109t30 -174.5zM695 307v78q0 78 -49 104t-158 26t-157.5 -26t-48.5 -104v-78q0 -36 9.5 -61
t24 -39t43 -21t56 -9t73.5 -2t73.5 2t56.5 9t43.5 21t24 39t9.5 61z" />
    <glyph glyph-name="P" unicode="P" horiz-adv-x="914" 
d="M890 435q0 -258 -251 -258h-340v-177h-247v690h587q126 0 188.5 -65.5t62.5 -189.5zM637 423v22q0 22 -13 35t-36 13h-289v-119h288q50 0 50 49z" />
    <glyph glyph-name="Q" unicode="Q" horiz-adv-x="976" 
d="M947 353q0 -150 -59 -235l89 -105l-178 -141l-109 129q-84 -17 -202 -17q-115 0 -194.5 16t-141.5 56t-92 113.5t-30 183.5q0 104 30 174.5t92 109t141.5 54t194.5 15.5t195 -15.5t142 -54t92 -109t30 -174.5zM695 307v78q0 78 -49 104t-158 26t-157.5 -26t-48.5 -104
v-78q0 -36 9.5 -61t24 -39t43 -21t56 -9t73.5 -2t73.5 2t56.5 9t43.5 21t24 39t9.5 61z" />
    <glyph glyph-name="R" unicode="R" horiz-adv-x="937" 
d="M891 458q0 -163 -132 -220l138 -238h-259l-124 213h-215v-213h-247v690h565q129 0 201.5 -59.5t72.5 -172.5zM638 452v9q0 54 -56 54h-283v-116h283q27 0 41.5 14t14.5 39z" />
    <glyph glyph-name="S" unicode="S" horiz-adv-x="890" 
d="M859 228q0 -131 -99 -187.5t-311 -56.5t-311 58.5t-107 188.5h247q7 -41 47 -54t124 -13q87 0 125 9.5t38 36.5q0 20 -31.5 29.5t-82 11.5t-111 3.5t-121.5 11.5t-111.5 29.5t-82 62.5t-31.5 107q0 129 102.5 185t298.5 56q195 0 296.5 -58t109.5 -187h-247
q-7 39 -44.5 52t-114.5 13q-80 0 -117.5 -8.5t-37.5 -36.5q0 -23 42.5 -33t106 -10t137.5 -8t137.5 -24t106 -61.5t42.5 -116.5z" />
    <glyph glyph-name="T" unicode="T" horiz-adv-x="853" 
d="M833 485h-284v-485h-247v485h-282v205h813v-205z" />
    <glyph glyph-name="U" unicode="U" horiz-adv-x="943" 
d="M471 175q96 0 136.5 28t40.5 118v369h248v-379q0 -178 -107 -252.5t-318 -74.5q-210 0 -317 75t-107 252v379h247v-369q0 -90 40.5 -118t136.5 -28z" />
    <glyph glyph-name="V" unicode="V" horiz-adv-x="939" 
d="M624 0h-315l-300 690h254l221 -511l226 511h220z" />
    <glyph glyph-name="W" unicode="W" horiz-adv-x="1218" 
d="M480 0h-329l-142 690h254l97 -474l120 474h281l114 -473l102 473h232l-151 -690h-348l-113 464z" />
    <glyph glyph-name="X" unicode="X" horiz-adv-x="941" 
d="M289 690l185 -198l179 198h272l-307 -341l323 -349h-289l-190 205l-182 -205h-273l312 349l-319 341h289z" />
    <glyph glyph-name="Y" unicode="Y" horiz-adv-x="928" 
d="M279 690l211 -256l185 256h252l-322 -435v-255h-247v255l-357 435h278z" />
    <glyph glyph-name="Z" unicode="Z" horiz-adv-x="841" 
d="M787 0h-733v205l402 280h-406v205h741v-205l-402 -280h398v-205z" />
    <glyph glyph-name="bracketleft" unicode="[" horiz-adv-x="525" 
d="M473 -210h-388v950h388v-179h-163v-592h163v-179z" />
    <glyph glyph-name="backslash" unicode="\" horiz-adv-x="661" 
d="M354 -95l-334 835h237l334 -835h-237z" />
    <glyph glyph-name="bracketright" unicode="]" horiz-adv-x="525" 
d="M52 740h388v-950h-388v179h163v592h-163v179z" />
    <glyph glyph-name="asciicircum" unicode="^" horiz-adv-x="592" 
d="M348 425l-53 166l-53 -166h-205l109 305h299l109 -305h-206z" />
    <glyph glyph-name="underscore" unicode="_" horiz-adv-x="695" 
d="M0 -224v170h695v-170h-695z" />
    <glyph glyph-name="a" unicode="a" horiz-adv-x="756" 
d="M21 152q0 161 236 168l220 6v10q0 30 -18.5 39t-66.5 9q-85 0 -97 -31h-249q12 92 96 137t250 45t247 -48t81 -150v-337h-236v75q-63 -91 -256 -91q-101 0 -154 43t-53 125zM342 139q135 0 135 69v1l-162 -4q-26 -1 -38 -7t-12 -21v-4q0 -20 16 -27t61 -7z" />
    <glyph glyph-name="b" unicode="b" horiz-adv-x="813" 
d="M279 0h-237v730h242v-272q60 77 221 77q279 0 279 -270q0 -149 -71.5 -215t-203.5 -66q-171 0 -230 82v-66zM410 155q71 0 98.5 14.5t27.5 55.5v67q0 42 -27 57t-97 15t-98 -13.5t-30 -50.5v-75q0 -41 27.5 -55.5t98.5 -14.5z" />
    <glyph glyph-name="c" unicode="c" horiz-adv-x="718" 
d="M693 185q-11 -101 -91.5 -151t-245.5 -50q-177 0 -254 58t-77 218q0 158 77 216.5t255 58.5q157 0 240.5 -46t92.5 -150h-249q-3 10 -8 16.5t-24.5 12.5t-52.5 6q-45 0 -64.5 -15.5t-19.5 -53.5v-88q0 -40 20 -56t64 -16q34 0 53.5 6.5t24.5 13.5t10 20h249z" />
    <glyph glyph-name="d" unicode="d" horiz-adv-x="808" 
d="M529 0v63q-57 -79 -215 -79q-139 0 -214 64t-75 208q0 148 75 213.5t214 65.5q150 0 210 -74v269h242v-730h-237zM398 155q71 0 98.5 14.5t27.5 55.5v67q0 42 -27 57t-100 15q-70 0 -97.5 -15t-27.5 -57v-67q0 -41 27.5 -55.5t98.5 -14.5z" />
    <glyph glyph-name="e" unicode="e" horiz-adv-x="750" 
d="M375 139q54 0 77.5 9.5t31.5 35.5h242q-16 -105 -102.5 -152.5t-248.5 -47.5q-177 0 -263.5 62t-86.5 210q0 151 87 215t263 64q351 0 351 -242v-68h-457v-14q0 -43 25 -57.5t81 -14.5zM486 333v1q0 51 -111 51q-106 0 -106 -51v-1h217z" />
    <glyph glyph-name="f" unicode="f" horiz-adv-x="528" 
d="M518 563h-139q-42 0 -56.5 -7t-14.5 -27v-10h210v-177h-210v-342h-242v342h-59v177h59v7q0 110 52.5 157t192.5 47h207v-167z" />
    <glyph glyph-name="g" unicode="g" horiz-adv-x="808" 
d="M766 40q0 -130 -88.5 -193t-270.5 -63q-329 0 -361 183h255q16 -22 37 -29.5t69 -7.5q61 0 89 24.5t28 82.5v30q-57 -67 -209 -67q-139 0 -214.5 62.5t-75.5 203.5q0 143 75 206t215 63q156 0 214 -82v66h237v-479zM398 167q69 0 97 13.5t29 51.5v60q0 42 -27 57t-100 15
q-70 0 -97.5 -15t-27.5 -57v-56q0 -40 27.5 -54.5t98.5 -14.5z" />
    <glyph glyph-name="h" unicode="h" horiz-adv-x="776" 
d="M497 0v309q0 36 -23.5 48t-83.5 12q-51 0 -78.5 -13t-27.5 -47v-309h-242v730h242v-278q26 41 86.5 61.5t138.5 20.5q230 0 230 -195v-339h-242z" />
    <glyph glyph-name="i" unicode="i" horiz-adv-x="326" 
d="M284 0h-242v519h242v-519zM291 662q0 -49 -33.5 -74.5t-94.5 -25.5q-60 0 -94 25.5t-34 74.5t34 74.5t94 25.5q61 0 94.5 -25.5t33.5 -74.5z" />
    <glyph glyph-name="j" unicode="j" horiz-adv-x="326" 
d="M-61 -23h32q38 0 54.5 18.5t16.5 56.5v467h242v-503q0 -114 -47 -165t-166 -51h-132v177zM295 662q0 -49 -33.5 -74.5t-94.5 -25.5q-60 0 -94 25.5t-34 74.5t34 74.5t94 25.5q61 0 94.5 -25.5t33.5 -74.5z" />
    <glyph glyph-name="k" unicode="k" horiz-adv-x="764" 
d="M284 0h-242v730h242v-391h50l160 180h262l-226 -256l228 -263h-270l-152 173h-52v-173z" />
    <glyph glyph-name="l" unicode="l" horiz-adv-x="326" 
d="M284 0h-242v730h242v-730z" />
    <glyph glyph-name="m" unicode="m" horiz-adv-x="1151" 
d="M457 0v323q0 33 -19 44.5t-68 11.5q-86 0 -86 -55v-324h-242v519h237v-79q44 94 204 94q144 0 192 -96q48 96 223 96q107 0 161.5 -46.5t54.5 -148.5v-339h-242v324q0 32 -19 43.5t-67 11.5q-84 0 -87 -49v-6v-324h-242z" />
    <glyph glyph-name="n" unicode="n" horiz-adv-x="776" 
d="M497 0v309q0 35 -24.5 47.5t-80.5 12.5q-108 0 -108 -60v-309h-242v519h237v-75q24 44 86 67t144 23q230 0 230 -195v-339h-242z" />
    <glyph glyph-name="o" unicode="o" horiz-adv-x="796" 
d="M398 -16q-78 0 -133.5 6.5t-103.5 24.5t-76.5 48.5t-44 79.5t-15.5 117q0 67 15.5 115.5t44 79t76 48.5t103.5 25t134 7t134 -7t103.5 -25t76 -48.5t44 -79t15.5 -115.5q0 -68 -15.5 -117t-44 -79.5t-76.5 -48.5t-103.5 -24.5t-133.5 -6.5zM398 145q69 0 97.5 15t28.5 63
v73q0 51 -27.5 64.5t-98.5 13.5t-98.5 -13.5t-27.5 -64.5v-74q0 -47 29 -62t97 -15z" />
    <glyph glyph-name="p" unicode="p" horiz-adv-x="813" 
d="M284 -200h-242v719h237v-71q62 87 239 87q266 0 266 -270q0 -149 -69 -215t-198 -66q-171 0 -233 78v-262zM410 155q71 0 98.5 14.5t27.5 55.5v67q0 43 -27 57.5t-97 14.5q-71 0 -98.5 -13t-29.5 -51v-75q0 -40 28 -55t98 -15z" />
    <glyph glyph-name="q" unicode="q" horiz-adv-x="808" 
d="M315 -16q-290 0 -290 272q0 148 75 213.5t215 65.5q156 0 214 -81v65h237v-719h-242v256q-58 -72 -209 -72zM398 155q71 0 98.5 14.5t27.5 55.5v67q0 43 -26.5 57.5t-100.5 14.5q-71 0 -98 -14.5t-27 -57.5v-67q0 -41 27.5 -55.5t98.5 -14.5z" />
    <glyph glyph-name="r" unicode="r" horiz-adv-x="560" 
d="M546 519v-205h-134q-73 0 -100.5 -17.5t-27.5 -57.5v-239h-242v519h237v-124q32 124 164 124h103z" />
    <glyph glyph-name="s" unicode="s" horiz-adv-x="750" 
d="M484 159q0 21 -46 26t-111.5 5.5t-131 8.5t-111.5 46t-46 108q0 99 85.5 140.5t241.5 41.5q166 0 251.5 -40.5t91.5 -129.5h-248q-6 21 -27 29t-68 8q-48 0 -69 -8.5t-21 -30.5q0 -16 33 -21.5t83 -3.5t107.5 -3.5t107.5 -18t83 -49.5t33 -96q0 -100 -83.5 -143.5
t-257.5 -43.5q-179 0 -262.5 40t-91.5 139h249q6 -27 29.5 -37t76.5 -10q102 0 102 43z" />
    <glyph glyph-name="t" unicode="t" horiz-adv-x="522" 
d="M7 342v177h59v147h242v-147h173v-177h-173v-90q0 -39 16 -57t55 -18h102v-177h-239q-93 0 -134.5 50t-41.5 153v139h-59z" />
    <glyph glyph-name="u" unicode="u" horiz-adv-x="776" 
d="M279 519v-309q0 -35 23.5 -47.5t78.5 -12.5q54 0 82.5 13t28.5 47v309h242v-519h-237v76q-25 -45 -89.5 -68t-150.5 -23q-220 0 -220 207v327h242z" />
    <glyph glyph-name="v" unicode="v" horiz-adv-x="747" 
d="M234 0l-234 519h244l142 -333l142 333h219l-233 -519h-280z" />
    <glyph glyph-name="w" unicode="w" horiz-adv-x="1068" 
d="M623 0l-106 342l-96 -342h-266l-150 519h236l85 -302l86 302h265l92 -299l79 299h215l-150 -519h-290z" />
    <glyph glyph-name="x" unicode="x" horiz-adv-x="784" 
d="M251 262l-246 257h258l133 -140l129 140h238l-235 -257l251 -262h-259l-137 144l-131 -144h-240z" />
    <glyph glyph-name="y" unicode="y" horiz-adv-x="768" 
d="M129 -20h85q36 0 52.5 3.5t26.5 15.5l-288 520h250l153 -285l135 285h220l-277 -590q-33 -70 -84.5 -99.5t-143.5 -29.5h-129v180z" />
    <glyph glyph-name="z" unicode="z" horiz-adv-x="692" 
d="M650 0h-609v177l283 165h-278v177h587v-177l-282 -165h299v-177z" />
    <glyph glyph-name="braceleft" unicode="{" horiz-adv-x="549" 
d="M355 493v-71q0 -67 -21.5 -103t-94.5 -54q74 -14 95 -49.5t21 -106.5v-74q0 -22 2 -33.5t14.5 -22t36.5 -10.5h90v-179h-143q-124 0 -174 42.5t-50 142.5v102q0 52 -18.5 76t-77.5 25v175q58 1 77 25.5t19 74.5v102q0 100 50 142.5t174 42.5h143v-179h-90q-18 0 -29.5 -5
t-16.5 -16t-6 -20.5t-1 -26.5z" />
    <glyph glyph-name="bar" unicode="|" horiz-adv-x="349" 
d="M287 -200h-225v930h225v-930z" />
    <glyph glyph-name="braceright" unicode="}" horiz-adv-x="549" 
d="M194 37v71q0 67 21.5 103t94.5 54q-74 14 -95 49.5t-21 106.5v74q0 22 -2 33.5t-14.5 22t-36.5 10.5h-90v179h143q124 0 174 -42.5t50 -142.5v-102q0 -52 18.5 -76t77.5 -25v-175q-58 -1 -77 -25.5t-19 -74.5v-102q0 -100 -50 -142.5t-174 -42.5h-143v179h90q18 0 29.5 5
t16.5 16t6 20.5t1 26.5z" />
    <glyph glyph-name="asciitilde" unicode="~" horiz-adv-x="804" 
d="M224 504q67 0 126.5 -22t106 -44t81.5 -22q23 0 35 24t12 60h198q0 -124 -49.5 -192.5t-151.5 -68.5q-62 0 -123.5 19.5t-111 39.5t-82.5 20q-49 0 -47 -74h-197q-2 260 203 260z" />
    <glyph glyph-name="nonbreakingspace" unicode="&#xa0;" horiz-adv-x="200" 
 />
    <glyph glyph-name="cent" unicode="&#xa2;" horiz-adv-x="718" 
d="M464 -120h-202v108q-124 12 -180.5 73t-56.5 199q0 136 56 197t181 74v108h202v-110q212 -28 226 -190h-249q-3 10 -8 16.5t-24.5 12.5t-52.5 6q-45 0 -64.5 -15.5t-19.5 -53.5v-88q0 -40 20 -56t64 -16q34 0 53.5 6.5t24.5 13.5t10 20h249q-18 -167 -229 -194v-111z" />
    <glyph glyph-name="sterling" unicode="&#xa3;" horiz-adv-x="879" 
d="M73 232v134h116q-5 3 -24 11.5t-26.5 12.5t-23 13.5t-23 18.5t-17 22t-13 29t-3.5 35q0 99 99.5 148.5t283.5 49.5q365 0 377 -218h-246q-21 42 -131 42q-131 0 -131 -43v-9q0 -20 27.5 -34.5t67 -33.5t58.5 -44h200v-134h-200q-13 -21 -37 -37h402v-195h-779v182
q114 0 166 50h-143z" />
    <glyph glyph-name="currency" unicode="&#xa4;" horiz-adv-x="718" 
d="M539 53l-88 87q-40 -10 -93 -10t-92 10l-87 -86l-113 114l68 69q-23 46 -23 110q0 66 24 111l-69 70l113 114l87 -88q44 11 92 11q49 0 91 -11l89 89l115 -115l-71 -72q24 -48 24 -109q0 -64 -24 -109l71 -71zM358 279q36 0 51.5 16.5t15.5 51.5q0 36 -15.5 53t-51.5 17
q-35 0 -51 -17t-16 -53q0 -68 67 -68z" />
    <glyph glyph-name="yen" unicode="&#xa5;" horiz-adv-x="936" 
d="M279 690l209 -258l192 258h255l-214 -261h119v-163h-236v-39h236v-163h-236v-64h-247v64h-236v163h236v39h-236v163h108l-228 261h278z" />
    <glyph glyph-name="brokenbar" unicode="&#xa6;" horiz-adv-x="339" 
d="M287 360h-225v370h225v-370zM287 -200h-225v370h225v-370z" />
    <glyph glyph-name="section" unicode="&#xa7;" horiz-adv-x="844" 
d="M795 286q0 -45 -20 -74.5t-63 -52.5q65 -49 65 -127q0 -95 -91.5 -145.5t-260.5 -50.5q-348 0 -362 213h247q22 -44 115 -44q106 0 106 37v4q0 15 -35.5 26t-89.5 17.5t-116 20.5t-116 33t-89.5 58t-35.5 93q0 84 86 128q-63 51 -63 128q0 95 89 145.5t255 50.5
q339 0 353 -213h-248q-19 44 -105 44q-97 0 -97 -33v-4q0 -16 35.5 -27t88 -17t114.5 -20.5t114.5 -34t88 -59.5t35.5 -96zM571 255q0 25 -36.5 39.5t-123.5 32t-127 28.5q-12 -11 -12 -26v-4q0 -25 36.5 -39.5t126 -31.5t128.5 -28q8 8 8 24v5z" />
    <glyph glyph-name="dieresis" unicode="&#xa8;" horiz-adv-x="584" 
d="M552 662q0 -46 -29.5 -70t-84.5 -24t-85 24t-30 70q0 45 30 69t85 24t84.5 -24t29.5 -69zM261 662q0 -46 -29.5 -70t-84.5 -24t-85 24t-30 70q0 45 30 69t85 24t84.5 -24t29.5 -69z" />
    <glyph glyph-name="copyright" unicode="&#xa9;" horiz-adv-x="886" 
d="M619 307q-9 -71 -54 -105.5t-117 -34.5q-93 0 -138.5 47t-45.5 132q0 83 45.5 129t138.5 46q78 0 122 -31.5t48 -109.5h-145q1 25 -25 25q-28 0 -28 -41v-36q0 -45 28 -45q25 0 25 24h146zM834 345q0 -168 -104.5 -264.5t-283.5 -96.5q-180 0 -285.5 96.5t-105.5 264.5
t105.5 264.5t285.5 96.5q179 0 283.5 -96.5t104.5 -264.5zM446 79q126 0 196.5 65t70.5 201q0 134 -71 200t-196 66q-127 0 -198.5 -66t-71.5 -200q0 -136 71 -201t199 -65z" />
    <glyph glyph-name="ordfeminine" unicode="&#xaa;" horiz-adv-x="629" 
d="M403 593v16q0 18 -18 25t-61 7q-69 0 -79 -19h-205q14 144 282 144q273 0 273 -152v-294h-187v60q-53 -70 -198 -70q-185 0 -185 132q0 139 205 146zM219 471v-5q0 -16 13.5 -22t52.5 -6q118 0 118 55v6l-144 -4q-40 0 -40 -24z" />
    <glyph glyph-name="guillemotleft" unicode="&#xab;" horiz-adv-x="670" 
d="M309 305l-90 -48l90 -47v-198l-268 169v151l268 169v-196zM618 305l-90 -48l90 -47v-198l-268 169v151l268 169v-196z" />
    <glyph glyph-name="logicalnot" unicode="&#xac;" 
d="M730 83h-210v234h-452v204h662v-438z" />
    <glyph glyph-name="uni00AD" unicode="&#xad;" horiz-adv-x="450" 
d="M400 149h-350v221h350v-221z" />
    <glyph glyph-name="registered" unicode="&#xae;" horiz-adv-x="615" 
d="M555 480q0 -108 -65.5 -167t-181.5 -59q-115 0 -181.5 59.5t-66.5 166.5q0 109 66.5 167.5t181.5 58.5q116 0 181.5 -58.5t65.5 -167.5zM307 317q169 0 169 163t-169 163t-169 -163t169 -163zM416 507q0 83 -98 83h-102v-211h75v45h24h1l22 -45h78l-30 62q30 20 30 66z
M330 516v-15q0 -13 -20 -13h-19v40h19q20 0 20 -12z" />
    <glyph glyph-name="degree" unicode="&#xb0;" horiz-adv-x="570" 
d="M285 326q-119 0 -183.5 47t-64.5 142q0 94 65 142.5t183 48.5q117 0 182 -49t65 -142t-64.5 -141t-182.5 -48zM285 457q34 0 47.5 13.5t13.5 44.5t-14 45.5t-47 14.5q-34 0 -47.5 -14.5t-13.5 -45.5t13.5 -44.5t47.5 -13.5z" />
    <glyph glyph-name="plusminus" unicode="&#xb1;" 
d="M294 231v150h-226v205h226v150h210v-150h226v-205h-226v-150h-210zM730 -23h-662v205h662v-205z" />
    <glyph glyph-name="twosuperior" unicode="&#xb2;" horiz-adv-x="600" 
d="M286 696q-31 0 -46.5 -7.5t-19.5 -25.5h-185q6 84 69 118.5t183 34.5q249 0 249 -136q0 -59 -43 -92.5t-95 -41t-104.5 -15t-64.5 -19.5h303v-137h-497v84q0 60 32 98t77.5 51.5t91 20t77.5 14.5t32 25v4q0 14 -13.5 19t-45.5 5z" />
    <glyph glyph-name="threesuperior" unicode="&#xb3;" horiz-adv-x="563" 
d="M291 480q31 0 45 6t14 24v4q0 16 -16.5 21t-62.5 5h-22v107h21q38 0 51.5 4.5t13.5 16.5v6q0 12 -11.5 17t-42.5 5q-52 0 -59 -34h-185q8 154 243 154q243 0 243 -117q0 -72 -82 -100q101 -24 101 -99q0 -77 -63 -109t-198 -32q-126 0 -191 34.5t-69 117.5h191
q6 -18 23 -24.5t56 -6.5z" />
    <glyph glyph-name="paragraph" unicode="&#xb6;" horiz-adv-x="862" 
d="M506 -150h-202v428h-39q-112 0 -168.5 46.5t-56.5 158.5t55 159.5t164 47.5h247v-840zM810 -150h-201v840h201v-840z" />
    <glyph glyph-name="periodcentered" unicode="&#xb7;" horiz-adv-x="364" 
d="M317 301q0 -61 -33.5 -88.5t-100.5 -27.5q-136 0 -136 116q0 60 34 87t102 27q67 0 100.5 -26.5t33.5 -87.5z" />
    <glyph glyph-name="onesuperior" unicode="&#xb9;" horiz-adv-x="387" 
d="M24 559v160l125 81h191v-425h-191v264z" />
    <glyph glyph-name="ordmasculine" unicode="&#xba;" horiz-adv-x="630" 
d="M316 310q-57 0 -99 5.5t-79.5 20.5t-61.5 40.5t-37.5 66.5t-13.5 97q0 68 20 113.5t60 69.5t90 33.5t121 9.5t120.5 -9.5t89.5 -33.5t59.5 -69.5t19.5 -113.5q0 -70 -19.5 -116.5t-59.5 -70.5t-89.5 -33.5t-120.5 -9.5zM316 440q52 0 73 13t21 55v61q0 43 -20.5 55
t-73.5 12q-54 0 -75 -12t-21 -55v-62q0 -41 21.5 -54t74.5 -13z" />
    <glyph glyph-name="guillemotright" unicode="&#xbb;" horiz-adv-x="670" 
d="M361 208l90 48l-90 47v198l268 -169v-151l-268 -169v196zM52 208l90 48l-90 47v198l268 -169v-151l-268 -169v196z" />
    <glyph glyph-name="onequarter" unicode="&#xbc;" horiz-adv-x="1226" 
d="M19 509v160l125 81h191v-425h-191v264zM168 0l540 750h191l-540 -750h-191zM807 424h284v-228h94v-132h-94v-64h-188v64h-302v121zM784 196h119v137z" />
    <glyph glyph-name="onehalf" unicode="&#xbd;" horiz-adv-x="1241" 
d="M19 509v160l125 81h191v-425h-191v264zM168 0l540 750h191l-540 -750h-191zM927 321q-31 0 -46.5 -7.5t-19.5 -25.5h-185q6 84 69 118.5t183 34.5q249 0 249 -136q0 -59 -43 -92.5t-95 -41t-104.5 -15t-64.5 -19.5h303v-137h-497v84q0 60 32 98t77.5 51.5t91 20
t77.5 14.5t32 25v4q0 14 -13.5 19t-45.5 5z" />
    <glyph glyph-name="threequarters" unicode="&#xbe;" horiz-adv-x="1365" 
d="M309 0l540 750h191l-540 -750h-191zM946 424h284v-228h94v-132h-94v-64h-188v64h-302v121zM923 196h119v137zM291 430q31 0 45 6t14 24v4q0 16 -16.5 21t-62.5 5h-22v107h21q38 0 51.5 4.5t13.5 16.5v6q0 12 -11.5 17t-42.5 5q-52 0 -59 -34h-185q8 154 243 154
q243 0 243 -117q0 -72 -82 -100q101 -24 101 -99q0 -77 -63 -109t-198 -32q-126 0 -191 34.5t-69 117.5h191q6 -18 23 -24.5t56 -6.5z" />
    <glyph glyph-name="Edieresis" unicode="&#xcb;" horiz-adv-x="781" 
d="M744 0h-692v690h694v-193h-447v-60h269v-172h-269v-72h445v-193zM673 829q0 -49 -30 -74t-86 -25t-86.5 25t-30.5 74q0 48 30.5 73t86.5 25q55 0 85.5 -25t30.5 -73zM359 829q0 -99 -115 -99q-56 0 -87 25t-31 74q0 48 31 73t87 25q55 0 85 -25t30 -73z" />
    <glyph glyph-name="multiply" unicode="&#xd7;" 
d="M58 176l208 183l-208 184l134 117l207 -183l207 183l134 -117l-208 -184l208 -183l-133 -117l-208 183l-208 -183z" />
    <glyph glyph-name="edieresis" unicode="&#xeb;" horiz-adv-x="750" 
d="M375 139q54 0 77.5 9.5t31.5 35.5h242q-16 -105 -102.5 -152.5t-248.5 -47.5q-177 0 -263.5 62t-86.5 210q0 151 87 215t263 64q351 0 351 -242v-68h-457v-14q0 -43 25 -57.5t81 -14.5zM486 333v1q0 51 -111 51q-106 0 -106 -51v-1h217zM636 662q0 -46 -29.5 -70
t-84.5 -24t-85 24t-30 70q0 45 30 69t85 24t84.5 -24t29.5 -69zM345 662q0 -46 -29.5 -70t-84.5 -24t-85 24t-30 70q0 45 30 69t85 24t84.5 -24t29.5 -69z" />
    <glyph glyph-name="divide" unicode="&#xf7;" 
d="M520 616q0 -95 -119 -95q-121 0 -121 95q0 51 30.5 72.5t90.5 21.5q59 0 89 -21.5t30 -72.5zM520 104q0 -95 -119 -95q-121 0 -121 95t121 95q119 0 119 -95zM730 257h-662v205h662v-205z" />
    <glyph glyph-name="dotlessi" unicode="&#x131;" horiz-adv-x="326" 
d="M284 0h-242v519h242v-519z" />
    <glyph glyph-name="dotlessj" unicode="&#x237;" horiz-adv-x="326" 
d="M-61 -23h32q38 0 54.5 18.5t16.5 56.5v467h242v-503q0 -114 -47 -165t-166 -51h-132v177z" />
    <glyph glyph-name="uni02BC" unicode="&#x2bc;" horiz-adv-x="363" 
d="M179 706q66 0 101.5 -29t35.5 -97v-43q0 -126 -52.5 -172.5t-180.5 -46.5v108q54 0 77.5 11t23.5 39q-70 0 -103.5 28t-33.5 88q0 114 132 114z" />
    <glyph glyph-name="dotaccent" unicode="&#x2d9;" horiz-adv-x="306" 
d="M281 662q0 -49 -33.5 -74.5t-94.5 -25.5q-60 0 -94 25.5t-34 74.5t34 74.5t94 25.5q61 0 94.5 -25.5t33.5 -74.5z" />
    <glyph glyph-name="afii10023" unicode="&#x401;" horiz-adv-x="781" 
d="M744 0h-692v690h694v-193h-447v-60h269v-172h-269v-72h445v-193zM673 829q0 -49 -30 -74t-86 -25t-86.5 25t-30.5 74q0 48 30.5 73t86.5 25q55 0 85.5 -25t30.5 -73zM359 829q0 -99 -115 -99q-56 0 -87 25t-31 74q0 48 31 73t87 25q55 0 85 -25t30 -73z" />
    <glyph glyph-name="afii10053" unicode="&#x404;" horiz-adv-x="931" 
d="M467 -16q-107 0 -182.5 15.5t-135.5 54t-89.5 110.5t-29.5 180q0 105 29.5 177t89 112t136 56.5t182.5 16.5q201 0 311.5 -63t121.5 -211h-252q-2 27 -16 44.5t-41 25.5t-54 10.5t-70 2.5q-28 0 -42 -0.5t-37 -2.5t-36 -7t-28 -13t-23.5 -21.5t-13.5 -32.5h274v-169h-277
q3 -23 10.5 -39.5t22.5 -26.5t27.5 -16t37 -8.5t39.5 -3t46 -0.5q40 0 69 3t55 10.5t40.5 23.5t17.5 40h252q-13 -143 -123.5 -205.5t-310.5 -62.5z" />
    <glyph glyph-name="afii10055" unicode="&#x406;" horiz-adv-x="351" 
d="M299 0h-247v690h247v-690z" />
    <glyph glyph-name="afii10056" unicode="&#x407;" horiz-adv-x="351" 
d="M334 851q0 -104 -73 -104q-74 0 -74 104q0 102 74 102q73 0 73 -102zM164 851q0 -104 -74 -104q-73 0 -73 104q0 55 18.5 78.5t54.5 23.5q74 0 74 -102zM299 0h-247v690h247v-690z" />
    <glyph glyph-name="afii10057" unicode="&#x408;" horiz-adv-x="553" 
d="M253 277v413h247v-487q0 -109 -49.5 -156t-159.5 -47h-274v202h166q70 0 70 75z" />
    <glyph glyph-name="afii10062" unicode="&#x40e;" horiz-adv-x="866" 
d="M230 0l99 172l-328 518h257l191 -311l180 311h236l-399 -690h-236zM520 929h212q0 -101 -69 -147t-217 -46q-149 0 -218 46t-69 147h212q0 -45 16.5 -58.5t58.5 -13.5t58 13.5t16 58.5z" />
    <glyph glyph-name="afii10017" unicode="&#x410;" horiz-adv-x="944" 
d="M301 690h347l288 -690h-255l-54 129h-344l-54 -129h-220zM457 540l-96 -227h190z" />
    <glyph glyph-name="afii10018" unicode="&#x411;" horiz-adv-x="855" 
d="M833 229q0 -110 -58.5 -169.5t-172.5 -59.5h-550v690h731v-185h-485v-67h304q115 0 173 -53.5t58 -155.5zM581 235q0 20 -15 32t-40 12h-228v-109h228q55 0 55 41v24z" />
    <glyph glyph-name="afii10019" unicode="&#x412;" horiz-adv-x="862" 
d="M837 203q0 -203 -248 -203h-537v690h561q97 0 151.5 -43.5t54.5 -122.5q0 -118 -114 -157q132 -38 132 -164zM585 233q0 23 -18.5 36.5t-48.5 13.5h-220v-127h220q31 0 49 14t18 38v25zM567 488q0 21 -17 33.5t-46 12.5h-206v-106h206q29 0 46 12t17 33v15z" />
    <glyph glyph-name="afii10020" unicode="&#x413;" horiz-adv-x="733" 
d="M52 690h661v-205h-414v-485h-247v690z" />
    <glyph glyph-name="afii10021" unicode="&#x414;" horiz-adv-x="988" 
d="M9 -150v355h86q43 60 43 206v279h743v-485h100v-355h-237v150h-498v-150h-237zM638 485h-271v-74q0 -149 -36 -206h307v280z" />
    <glyph glyph-name="afii10022" unicode="&#x415;" horiz-adv-x="781" 
d="M744 0h-692v690h694v-193h-447v-60h269v-172h-269v-72h445v-193z" />
    <glyph glyph-name="afii10024" unicode="&#x416;" horiz-adv-x="1355" 
d="M797 690v-228h87l186 228h269l-264 -323l280 -367h-289l-197 259h-72v-259h-247v259h-72l-197 -259h-281l272 358l-271 332h276l185 -228h88v228h247z" />
    <glyph glyph-name="afii10025" unicode="&#x417;" horiz-adv-x="873" 
d="M453 159q77 0 110 12t33 43v10q0 48 -83 48h-196v162h196q67 0 67 43v7q0 25 -33.5 36t-106.5 11q-141 0 -157 -55h-257q10 118 114 174t301 56q194 0 293 -48t99 -138q0 -54 -33.5 -94t-94.5 -59q69 -17 106.5 -59.5t37.5 -101.5q0 -222 -396 -222q-420 0 -431 238h257
q6 -38 47 -50.5t127 -12.5z" />
    <glyph glyph-name="afii10026" unicode="&#x418;" horiz-adv-x="959" 
d="M305 0h-253v690h247v-408l355 408h253v-690h-247v408z" />
    <glyph glyph-name="afii10027" unicode="&#x419;" horiz-adv-x="959" 
d="M305 0h-253v690h247v-408l355 408h253v-690h-247v408zM565 929h212q0 -101 -69 -147t-217 -46q-149 0 -218 46t-69 147h212q0 -45 16.5 -58.5t58.5 -13.5t58 13.5t16 58.5z" />
    <glyph glyph-name="afii10028" unicode="&#x41a;" horiz-adv-x="941" 
d="M299 690v-228h114l230 228h282l-328 -325l343 -365h-301l-245 259h-95v-259h-247v690h247z" />
    <glyph glyph-name="afii10029" unicode="&#x41b;" horiz-adv-x="932" 
d="M880 0h-247v485h-260v-60q0 -240 -59.5 -332.5t-222.5 -92.5h-70v226h28q59 0 76 44.5t17 152.5v267h738v-690z" />
    <glyph glyph-name="afii10030" unicode="&#x41c;" horiz-adv-x="1160" 
d="M458 690l137 -406l138 406h375v-690h-247v511l-152 -437h-276l-152 437v-511h-229v690h406z" />
    <glyph glyph-name="afii10031" unicode="&#x41d;" horiz-adv-x="943" 
d="M891 0h-247v257h-345v-257h-247v690h247v-228h345v228h247v-690z" />
    <glyph glyph-name="afii10032" unicode="&#x41e;" horiz-adv-x="977" 
d="M947 353q0 -110 -30 -183.5t-92 -113.5t-142 -56t-195 -16t-194.5 16t-141.5 56t-92 113.5t-30 183.5q0 104 30 174.5t92 109t141.5 54t194.5 15.5t195 -15.5t142 -54t92 -109t30 -174.5zM695 307v78q0 78 -49 104t-158 26t-157.5 -26t-48.5 -104v-78q0 -36 9.5 -61
t24 -39t43 -21t56 -9t73.5 -2t73.5 2t56.5 9t43.5 21t24 39t9.5 61z" />
    <glyph glyph-name="afii10033" unicode="&#x41f;" horiz-adv-x="933" 
d="M881 0h-247v485h-335v-485h-247v690h829v-690z" />
    <glyph glyph-name="afii10034" unicode="&#x420;" horiz-adv-x="914" 
d="M890 435q0 -258 -251 -258h-340v-177h-247v690h587q126 0 188.5 -65.5t62.5 -189.5zM637 423v22q0 22 -13 35t-36 13h-289v-119h288q50 0 50 49z" />
    <glyph glyph-name="afii10035" unicode="&#x421;" horiz-adv-x="931" 
d="M467 -16q-107 0 -182.5 15.5t-135.5 54t-89.5 110.5t-29.5 180q0 105 29.5 177t89 112t136 56.5t182.5 16.5q201 0 311.5 -63t121.5 -211h-252q-2 27 -16 44.5t-41 25.5t-54 10.5t-70 2.5q-33 0 -49 -0.5t-42 -4t-39.5 -11t-28 -21t-20.5 -35.5t-6 -52v-94
q0 -35 10.5 -59t24 -36.5t42.5 -18.5t48.5 -7t59.5 -1t69 3t55 10.5t40.5 23.5t17.5 40h252q-13 -143 -123.5 -205.5t-310.5 -62.5z" />
    <glyph glyph-name="afii10036" unicode="&#x422;" horiz-adv-x="853" 
d="M833 485h-284v-485h-247v485h-282v205h813v-205z" />
    <glyph glyph-name="afii10037" unicode="&#x423;" horiz-adv-x="866" 
d="M230 0l99 172l-328 518h257l191 -311l180 311h236l-399 -690h-236z" />
    <glyph glyph-name="afii10038" unicode="&#x424;" horiz-adv-x="1184" 
d="M716 88v-104h-248v104q-109 0 -186 12.5t-136.5 43t-89 85.5t-29.5 136q0 68 20 117t55.5 80t92 49t121 25t152.5 7v63h248v-63q88 0 152.5 -7t121 -25t92 -49t55.5 -80t20 -117q0 -81 -29.5 -136t-89 -85.5t-136.5 -43t-186 -12.5zM468 270v191q-111 1 -149.5 -14.5
t-38.5 -66.5v-30q0 -52 36 -66.5t152 -13.5zM716 461v-191q115 -1 151.5 14t36.5 66v30q0 52 -37 67t-151 14z" />
    <glyph glyph-name="afii10039" unicode="&#x425;" horiz-adv-x="941" 
d="M289 690l185 -198l179 198h272l-307 -341l323 -349h-289l-190 205l-182 -205h-273l312 349l-319 341h289z" />
    <glyph glyph-name="afii10040" unicode="&#x426;" horiz-adv-x="989" 
d="M52 690h247v-485h335v485h247v-485h100v-355h-237v150h-692v690z" />
    <glyph glyph-name="afii10041" unicode="&#x427;" horiz-adv-x="915" 
d="M862 690v-690h-247v212q-94 -2 -186 -2q-150 0 -237 32t-123 94t-36 165v189h247v-147q0 -78 40.5 -103.5t141.5 -25.5q70 0 153 3v273h247z" />
    <glyph glyph-name="afii10042" unicode="&#x428;" horiz-adv-x="1231" 
d="M932 690h247v-690h-1127v690h247v-485h193v485h247v-485h193v485z" />
    <glyph glyph-name="afii10043" unicode="&#x429;" horiz-adv-x="1287" 
d="M932 690h247v-485h100v-355h-237v150h-990v690h247v-485h193v485h247v-485h193v485z" />
    <glyph glyph-name="afii10044" unicode="&#x42a;" horiz-adv-x="1040" 
d="M1026 258q0 -125 -63.5 -191.5t-189.5 -66.5h-575v485h-178v205h425v-173h328q253 0 253 -259zM773 273q0 20 -15.5 33.5t-44.5 13.5h-268v-123h268q60 0 60 49v27z" />
    <glyph glyph-name="afii10045" unicode="&#x42b;" horiz-adv-x="1234" 
d="M880 258q0 -125 -63.5 -191.5t-189.5 -66.5h-575v690h247v-173h328q253 0 253 -259zM627 273q0 20 -15.5 33.5t-44.5 13.5h-268v-123h268q60 0 60 49v27zM1182 0h-247v690h247v-690z" />
    <glyph glyph-name="afii10046" unicode="&#x42c;" horiz-adv-x="894" 
d="M880 258q0 -125 -63.5 -191.5t-189.5 -66.5h-575v690h247v-173h328q253 0 253 -259zM627 273q0 20 -15.5 33.5t-44.5 13.5h-268v-123h268q60 0 60 49v27z" />
    <glyph glyph-name="afii10047" unicode="&#x42d;" horiz-adv-x="931" 
d="M464 -16q-200 0 -309 62t-125 206h252q7 -45 53 -61t129 -16q36 0 53.5 0.5t44.5 5t41 13.5t26.5 27t16.5 44h-286v169h284q-5 19 -13.5 33.5t-23 23t-28 14t-36 7.5t-37.5 2.5t-42 0.5q-44 0 -70.5 -2.5t-54 -10t-41.5 -25t-17 -45.5h-252q14 151 122.5 212.5
t312.5 61.5q84 0 149 -10.5t120.5 -35.5t91.5 -66t56 -103.5t20 -146.5q0 -86 -20 -149t-56 -103.5t-92 -64.5t-120 -33.5t-149 -9.5z" />
    <glyph glyph-name="afii10048" unicode="&#x42e;" horiz-adv-x="1296" 
d="M1266 351q0 -109 -28.5 -182t-88 -113t-136 -56t-186.5 -16q-98 0 -169 12.5t-128.5 43t-91 86.5t-44.5 138h-95v-264h-247v690h247v-234h99q26 140 131.5 195t297.5 55q87 0 152.5 -9.5t121.5 -33.5t91 -64t54.5 -102t19.5 -146zM1014 311v71q0 79 -44 106t-143 27
q-98 0 -142 -27t-44 -106v-71q0 -46 11 -74t38 -41.5t56 -17t81 -3.5t81.5 3.5t56.5 17t38 41.5t11 74z" />
    <glyph glyph-name="afii10049" unicode="&#x42f;" horiz-adv-x="908" 
d="M47 452q0 113 70 175.5t203 62.5h536v-690h-247v212h-192l-119 -212h-258l136 242q-129 58 -129 210zM300 461v-16q0 -53 52 -53h257v118h-257q-23 0 -37.5 -12.5t-14.5 -36.5z" />
    <glyph glyph-name="afii10065" unicode="&#x430;" horiz-adv-x="756" 
d="M21 152q0 161 236 168l220 6v10q0 30 -18.5 39t-66.5 9q-85 0 -97 -31h-249q12 92 96 137t250 45t247 -48t81 -150v-337h-236v75q-63 -91 -256 -91q-101 0 -154 43t-53 125zM342 139q135 0 135 69v1l-162 -4q-26 -1 -38 -7t-12 -21v-4q0 -20 16 -27t61 -7z" />
    <glyph glyph-name="afii10066" unicode="&#x431;" horiz-adv-x="775" 
d="M23 330q0 100 16.5 170t46.5 114.5t84 70t117 36t158 12.5q224 3 262 10v-194q-54 -8 -254 -8q-129 -1 -170.5 -26t-43.5 -110q75 96 236 96q140 0 207.5 -57.5t67.5 -196.5q0 -145 -87.5 -204t-275.5 -59q-95 0 -158 14t-112 51.5t-71.5 106t-22.5 174.5zM387 145
q62 0 89 14.5t27 60.5v50q0 44 -27.5 59.5t-88.5 15.5t-89 -15.5t-28 -59.5v-50q0 -46 27 -60.5t90 -14.5z" />
    <glyph glyph-name="afii10067" unicode="&#x432;" horiz-adv-x="764" 
d="M739 144q0 -144 -194 -144h-503v519h446q125 0 179 -31t54 -92q0 -50 -29.5 -81t-104.5 -44q152 -22 152 -127zM490 166v13q0 34 -49 34h-163v-84h163q49 0 49 37zM478 360q0 30 -46 30h-154v-71h154q46 0 46 32v9z" />
    <glyph glyph-name="afii10068" unicode="&#x433;" horiz-adv-x="588" 
d="M42 519h526v-177h-284v-342h-242v519z" />
    <glyph glyph-name="afii10069" unicode="&#x434;" horiz-adv-x="856" 
d="M4 -140v317h75q29 44 29 168v174h650v-342h91v-317h-232v140h-381v-140h-232zM521 342h-202v-7q0 -97 -24 -158h226v165z" />
    <glyph glyph-name="afii10070" unicode="&#x435;" horiz-adv-x="750" 
d="M375 139q54 0 77.5 9.5t31.5 35.5h242q-16 -105 -102.5 -152.5t-248.5 -47.5q-177 0 -263.5 62t-86.5 210q0 151 87 215t263 64q351 0 351 -242v-68h-457v-14q0 -43 25 -57.5t81 -14.5zM486 333v1q0 51 -111 51q-106 0 -106 -51v-1h217z" />
    <glyph glyph-name="afii10072" unicode="&#x436;" horiz-adv-x="1153" 
d="M700 0h-243v173h-48l-137 -173h-257l207 259l-212 260h255l145 -180h47v180h243v-180h46l146 180h252l-210 -256l211 -263h-260l-138 173h-47v-173z" />
    <glyph glyph-name="afii10073" unicode="&#x437;" horiz-adv-x="755" 
d="M425 198h-123v134h110q62 0 62 29v7q0 18 -18 24t-66 6q-110 0 -116 -52h-247q3 45 23 78.5t52 54.5t79 33.5t96.5 17.5t112.5 5q164 0 248 -32.5t84 -107.5q0 -90 -124 -122q64 -11 98.5 -41.5t34.5 -73.5q0 -90 -84 -132t-268 -42q-77 0 -134 7.5t-106 26.5t-78 55.5
t-36 90.5h247q10 -43 107 -43q59 0 81.5 7.5t22.5 29.5v12q0 28 -58 28z" />
    <glyph glyph-name="afii10074" unicode="&#x438;" horiz-adv-x="795" 
d="M753 0h-242v276l-204 -276h-265v519h242v-276l204 276h265v-519z" />
    <glyph glyph-name="afii10075" unicode="&#x439;" horiz-adv-x="795" 
d="M753 0h-242v276l-204 -276h-265v519h242v-276l204 276h265v-519zM452 763h194q0 -98 -60 -145t-186 -47t-186 47t-60 145h195q0 -49 11 -64.5t40 -15.5t40.5 15.5t11.5 64.5z" />
    <glyph glyph-name="afii10076" unicode="&#x43a;" horiz-adv-x="764" 
d="M284 0h-242v519h242v-180h48l156 180h262l-224 -257l232 -262h-270l-152 173h-52v-173z" />
    <glyph glyph-name="afii10077" unicode="&#x43b;" horiz-adv-x="776" 
d="M19 0v203h12q46 0 57.5 17t11.5 78v221h635v-519h-243v342h-171v-49q0 -174 -48.5 -233.5t-193.5 -59.5h-60z" />
    <glyph glyph-name="afii10078" unicode="&#x43c;" horiz-adv-x="982" 
d="M397 519l97 -260l99 260h347v-519h-241v343l-116 -305h-212l-116 310v-348h-213v519h355z" />
    <glyph glyph-name="afii10079" unicode="&#x43d;" horiz-adv-x="782" 
d="M740 0h-242v168h-214v-168h-242v519h242v-174h214v174h242v-519z" />
    <glyph glyph-name="afii10080" unicode="&#x43e;" horiz-adv-x="796" 
d="M398 -16q-78 0 -133.5 6.5t-103.5 24.5t-76.5 48.5t-44 79.5t-15.5 117q0 67 15.5 115.5t44 79t76 48.5t103.5 25t134 7t134 -7t103.5 -25t76 -48.5t44 -79t15.5 -115.5q0 -68 -15.5 -117t-44 -79.5t-76.5 -48.5t-103.5 -24.5t-133.5 -6.5zM398 145q69 0 97.5 15t28.5 63
v73q0 51 -27.5 64.5t-98.5 13.5t-98.5 -13.5t-27.5 -64.5v-74q0 -47 29 -62t97 -15z" />
    <glyph glyph-name="afii10081" unicode="&#x43f;" horiz-adv-x="772" 
d="M730 0h-242v342h-204v-342h-242v519h688v-519z" />
    <glyph glyph-name="afii10082" unicode="&#x440;" horiz-adv-x="813" 
d="M284 -200h-242v719h237v-71q62 87 239 87q266 0 266 -270q0 -149 -69 -215t-198 -66q-171 0 -233 78v-262zM410 155q71 0 98.5 14.5t27.5 55.5v67q0 43 -27 57.5t-97 14.5q-71 0 -98.5 -13t-29.5 -51v-75q0 -40 28 -55t98 -15z" />
    <glyph glyph-name="afii10083" unicode="&#x441;" horiz-adv-x="718" 
d="M693 185q-11 -101 -91.5 -151t-245.5 -50q-177 0 -254 58t-77 218q0 158 77 216.5t255 58.5q157 0 240.5 -46t92.5 -150h-249q-3 10 -8 16.5t-24.5 12.5t-52.5 6q-45 0 -64.5 -15.5t-19.5 -53.5v-88q0 -40 20 -56t64 -16q34 0 53.5 6.5t24.5 13.5t10 20h249z" />
    <glyph glyph-name="afii10084" unicode="&#x442;" horiz-adv-x="686" 
d="M666 342h-200v-342h-242v342h-204v177h646v-177z" />
    <glyph glyph-name="afii10085" unicode="&#x443;" horiz-adv-x="768" 
d="M129 -20h85q36 0 52.5 3.5t26.5 15.5l-288 520h250l153 -285l135 285h220l-277 -590q-33 -70 -84.5 -99.5t-143.5 -29.5h-129v180z" />
    <glyph glyph-name="afii10086" unicode="&#x444;" horiz-adv-x="1052" 
d="M25 260q0 145 93.5 210t288.5 65v195h237v-195q196 0 289.5 -65t93.5 -210q0 -146 -93.5 -211t-289.5 -65v-184h-237v184q-196 0 -289 64.5t-93 211.5zM267 217q0 -37 32 -54.5t108 -17.5v229q-81 0 -110.5 -16t-29.5 -62v-79zM644 374v-229q78 0 109.5 17t31.5 55v79
q0 45 -30 61.5t-111 16.5z" />
    <glyph glyph-name="afii10087" unicode="&#x445;" horiz-adv-x="784" 
d="M251 262l-246 257h258l133 -140l129 140h238l-235 -257l251 -262h-259l-137 144l-131 -144h-240z" />
    <glyph glyph-name="afii10088" unicode="&#x446;" horiz-adv-x="829" 
d="M41 519h242v-342h204v342h242v-342h91v-317h-232v140h-547v519z" />
    <glyph glyph-name="afii10089" unicode="&#x447;" horiz-adv-x="765" 
d="M723 519v-519h-242v159q-89 -7 -155 -7q-148 0 -220.5 56.5t-72.5 190.5v120h242v-94q0 -57 25 -76t89 -19q54 0 92 4v185h242z" />
    <glyph glyph-name="afii10090" unicode="&#x448;" horiz-adv-x="1102" 
d="M1060 519v-519h-1018v519h242v-342h146v342h242v-342h146v342h242z" />
    <glyph glyph-name="afii10091" unicode="&#x449;" horiz-adv-x="1161" 
d="M1060 519v-342h92v-317h-232v140h-878v519h242v-342h146v342h242v-342h146v342h242z" />
    <glyph glyph-name="afii10092" unicode="&#x44a;" horiz-adv-x="881" 
d="M176 0v342h-153v177h395v-126h234q101 0 156 -51.5t55 -145.5q0 -95 -55 -145.5t-156 -50.5h-476zM615 208q0 33 -48 33h-149v-90h149q48 0 48 37v20z" />
    <glyph glyph-name="afii10093" unicode="&#x44b;" horiz-adv-x="1048" 
d="M42 0v519h242v-126h234q101 0 156 -51.5t55 -145.5q0 -95 -55 -145.5t-156 -50.5h-476zM481 208q0 33 -48 33h-149v-90h149q48 0 48 37v20zM1006 0h-242v519h242v-519z" />
    <glyph glyph-name="afii10094" unicode="&#x44c;" horiz-adv-x="749" 
d="M42 0v519h242v-126h234q101 0 156 -51.5t55 -145.5q0 -95 -55 -145.5t-156 -50.5h-476zM481 208q0 33 -48 33h-149v-90h149q48 0 48 37v20z" />
    <glyph glyph-name="afii10095" unicode="&#x44d;" horiz-adv-x="742" 
d="M25 185h249q6 -16 12 -24.5t28.5 -17t60.5 -8.5q102 0 102 63h-175v131h175q0 31 -24 43t-79 12q-38 0 -60 -8t-28 -16t-9 -21h-249q9 106 95.5 151t250.5 45q183 0 263.5 -59t80.5 -216q0 -82 -20 -136t-64.5 -85t-105 -43t-151.5 -12q-172 0 -256.5 49.5t-95.5 151.5z
" />
    <glyph glyph-name="afii10096" unicode="&#x44e;" horiz-adv-x="1091" 
d="M703 -16q-166 0 -250.5 40t-105.5 152h-63v-176h-242v519h242v-168h64q23 105 108 144.5t247 39.5q95 0 158 -11.5t111.5 -41.5t71 -84.5t22.5 -137.5q0 -84 -22.5 -139t-71 -84.5t-111.5 -41t-158 -11.5zM703 145q63 0 89.5 15t26.5 63v73q0 51 -25 64.5t-91 13.5
t-91 -13.5t-25 -64.5v-74q0 -47 26.5 -62t89.5 -15z" />
    <glyph glyph-name="afii10097" unicode="&#x44f;" horiz-adv-x="756" 
d="M279 0h-254l94 172q-40 14 -68.5 53t-28.5 104q0 190 239 190h453v-519h-242v139h-117zM270 321q0 -13 10.5 -21.5t30.5 -8.5h161v77h-161q-19 0 -30 -8.5t-11 -19.5v-19z" />
    <glyph glyph-name="afii10071" unicode="&#x451;" horiz-adv-x="750" 
d="M375 139q54 0 77.5 9.5t31.5 35.5h242q-16 -105 -102.5 -152.5t-248.5 -47.5q-177 0 -263.5 62t-86.5 210q0 151 87 215t263 64q351 0 351 -242v-68h-457v-14q0 -43 25 -57.5t81 -14.5zM486 333v1q0 51 -111 51q-106 0 -106 -51v-1h217zM636 662q0 -46 -29.5 -70
t-84.5 -24t-85 24t-30 70q0 45 30 69t85 24t84.5 -24t29.5 -69zM345 662q0 -46 -29.5 -70t-84.5 -24t-85 24t-30 70q0 45 30 69t85 24t84.5 -24t29.5 -69z" />
    <glyph glyph-name="afii10101" unicode="&#x454;" horiz-adv-x="742" 
d="M468 185h250q-11 -102 -95.5 -151.5t-256.5 -49.5q-91 0 -151.5 12t-105 42.5t-64.5 84.5t-20 137q-1 157 79 216t263 59q165 0 252 -45t96 -151h-250q-3 13 -9 21t-28.5 16t-60.5 8q-102 0 -102 -50v-5h175v-131h-175v-4q0 -59 102 -59q39 0 61 8.5t28 16.5t12 25z" />
    <glyph glyph-name="afii10103" unicode="&#x456;" horiz-adv-x="326" 
d="M284 0h-242v519h242v-519zM291 662q0 -49 -33.5 -74.5t-94.5 -25.5q-60 0 -94 25.5t-34 74.5t34 74.5t94 25.5q61 0 94.5 -25.5t33.5 -74.5z" />
    <glyph glyph-name="afii10104" unicode="&#x457;" horiz-adv-x="326" 
d="M322 662q0 -100 -76 -100q-78 0 -78 100t78 100q76 0 76 -100zM158 662q0 -100 -76 -100q-78 0 -78 100t78 100q76 0 76 -100zM284 0h-242v519h242v-519z" />
    <glyph glyph-name="afii10105" unicode="&#x458;" horiz-adv-x="326" 
d="M-61 -23h32q38 0 54.5 18.5t16.5 56.5v467h242v-503q0 -114 -47 -165t-166 -51h-132v177zM295 662q0 -49 -33.5 -74.5t-94.5 -25.5q-60 0 -94 25.5t-34 74.5t34 74.5t94 25.5q61 0 94.5 -25.5t33.5 -74.5z" />
    <glyph glyph-name="afii10110" unicode="&#x45e;" horiz-adv-x="768" 
d="M129 -20h85q36 0 52.5 3.5t26.5 15.5l-288 520h250l153 -285l135 285h220l-277 -590q-33 -70 -84.5 -99.5t-143.5 -29.5h-129v180zM448 763h194q0 -98 -60 -145t-186 -47t-186 47t-60 145h195q0 -49 11 -64.5t40 -15.5t40.5 15.5t11.5 64.5z" />
    <glyph glyph-name="afii10050" unicode="&#x490;" horiz-adv-x="733" 
d="M52 690h424v150h237v-355h-414v-485h-247v690z" />
    <glyph glyph-name="afii10098" unicode="&#x491;" horiz-adv-x="588" 
d="M42 519h294v140h232v-317h-284v-342h-242v519z" />
    <glyph glyph-name="enquad" unicode="&#x2000;" horiz-adv-x="500" 
 />
    <glyph glyph-name="emquad" unicode="&#x2001;" horiz-adv-x="1000" 
 />
    <glyph glyph-name="enspace" unicode="&#x2002;" horiz-adv-x="500" 
 />
    <glyph glyph-name="emspace" unicode="&#x2003;" horiz-adv-x="1000" 
 />
    <glyph glyph-name="thirdemspace" unicode="&#x2004;" horiz-adv-x="300" 
 />
    <glyph glyph-name="quarteremspace" unicode="&#x2005;" horiz-adv-x="250" 
 />
    <glyph glyph-name="sixthemspace" unicode="&#x2006;" horiz-adv-x="100" 
 />
    <glyph glyph-name="figurespace" unicode="&#x2007;" horiz-adv-x="200" 
 />
    <glyph glyph-name="punctuationspace" unicode="&#x2008;" horiz-adv-x="210" 
 />
    <glyph glyph-name="thinspace" unicode="&#x2009;" horiz-adv-x="150" 
 />
    <glyph glyph-name="hairspace" unicode="&#x200a;" horiz-adv-x="35" 
 />
    <glyph glyph-name="zerowidthspace" unicode="&#x200b;" horiz-adv-x="0" 
 />
    <glyph glyph-name="endash" unicode="&#x2013;" horiz-adv-x="775" 
d="M725 173h-675v174h675v-174z" />
    <glyph glyph-name="emdash" unicode="&#x2014;" horiz-adv-x="1025" 
d="M955 173h-885v174h885v-174z" />
    <glyph glyph-name="quoteleft" unicode="&#x2018;" horiz-adv-x="363" 
d="M184 317q-66 0 -101.5 29t-35.5 97v43q0 126 52.5 172.5t180.5 46.5v-108q-54 0 -77.5 -11t-23.5 -39q70 0 103.5 -28t33.5 -88q0 -114 -132 -114z" />
    <glyph glyph-name="quoteright" unicode="&#x2019;" horiz-adv-x="363" 
d="M179 706q66 0 101.5 -29t35.5 -97v-43q0 -126 -52.5 -172.5t-180.5 -46.5v108q54 0 77.5 11t23.5 39q-70 0 -103.5 28t-33.5 88q0 114 132 114z" />
    <glyph glyph-name="quotesinglbase" unicode="&#x201a;" horiz-adv-x="363" 
d="M179 214q66 0 101.5 -29t35.5 -97v-43q0 -126 -52.5 -172.5t-180.5 -46.5v108q54 0 77.5 11t23.5 39q-70 0 -103.5 28t-33.5 88q0 114 132 114z" />
    <glyph glyph-name="quotedblleft" unicode="&#x201c;" horiz-adv-x="676" 
d="M497 317q-66 0 -101.5 29t-35.5 97v43q0 126 52.5 172.5t180.5 46.5v-108q-54 0 -77.5 -11t-23.5 -39q70 0 103.5 -28t33.5 -88q0 -114 -132 -114zM184 317q-66 0 -101.5 29t-35.5 97v43q0 126 52.5 172.5t180.5 46.5v-108q-54 0 -77.5 -11t-23.5 -39q70 0 103.5 -28
t33.5 -88q0 -114 -132 -114z" />
    <glyph glyph-name="quotedblright" unicode="&#x201d;" horiz-adv-x="676" 
d="M179 706q66 0 101.5 -29t35.5 -97v-43q0 -126 -52.5 -172.5t-180.5 -46.5v108q54 0 77.5 11t23.5 39q-70 0 -103.5 28t-33.5 88q0 114 132 114zM492 706q66 0 101.5 -29t35.5 -97v-43q0 -126 -52.5 -172.5t-180.5 -46.5v108q54 0 77.5 11t23.5 39q-70 0 -103.5 28
t-33.5 88q0 114 132 114z" />
    <glyph glyph-name="quotedblbase" unicode="&#x201e;" horiz-adv-x="676" 
d="M179 214q66 0 101.5 -29t35.5 -97v-43q0 -126 -52.5 -172.5t-180.5 -46.5v108q54 0 77.5 11t23.5 39q-70 0 -103.5 28t-33.5 88q0 114 132 114zM492 214q66 0 101.5 -29t35.5 -97v-43q0 -126 -52.5 -172.5t-180.5 -46.5v108q54 0 77.5 11t23.5 39q-70 0 -103.5 28
t-33.5 88q0 114 132 114z" />
    <glyph glyph-name="bullet" unicode="&#x2022;" horiz-adv-x="518" 
d="M438 360q0 -147 -178 -147q-180 0 -180 147q0 144 180 144q178 0 178 -144z" />
    <glyph glyph-name="ellipsis" unicode="&#x2026;" horiz-adv-x="1005" 
d="M317 100q0 -61 -33.5 -88.5t-100.5 -27.5q-136 0 -136 116q0 60 34 87t102 27q67 0 100.5 -26.5t33.5 -87.5zM638 100q0 -61 -33.5 -88.5t-100.5 -27.5q-136 0 -136 116q0 60 34 87t102 27q67 0 100.5 -26.5t33.5 -87.5zM958 100q0 -61 -33.5 -88.5t-100.5 -27.5
q-136 0 -136 116q0 60 34 87t102 27q67 0 100.5 -26.5t33.5 -87.5z" />
    <glyph glyph-name="nonbreakingspace.narrow" unicode="&#x202f;" horiz-adv-x="100" 
 />
    <glyph glyph-name="perthousand" unicode="&#x2030;" horiz-adv-x="1987" 
d="M1648 -16q-278 0 -278 196t278 196t278 -196t-278 -196zM1648 119q53 0 73.5 9.5t20.5 44.5v15q0 34 -21 43.5t-73 9.5t-73 -9.5t-21 -43.5v-15q0 -35 20.5 -44.5t73.5 -9.5zM1087 690l-545 -690h-227l544 690h228zM338 314q-278 0 -278 197q0 195 278 195t278 -195
q0 -197 -278 -197zM338 449q53 0 73.5 9.5t20.5 45.5v14q0 35 -20.5 44t-73.5 9t-73.5 -9t-20.5 -44v-14q0 -36 20.5 -45.5t73.5 -9.5zM1065 -16q-278 0 -278 196t278 196q277 0 277 -196t-277 -196zM1065 119q53 0 73.5 9.5t20.5 44.5v15q0 34 -21 43.5t-73 9.5
q-53 0 -74 -9.5t-21 -43.5v-15q0 -35 20.5 -44.5t74.5 -9.5z" />
    <glyph glyph-name="minute" unicode="&#x2032;" horiz-adv-x="398" 
d="M135 690h218l-107 -266h-201z" />
    <glyph glyph-name="second" unicode="&#x2033;" horiz-adv-x="690" 
d="M135 690h218l-107 -266h-201zM427 690h218l-107 -266h-201z" />
    <glyph glyph-name="guilsinglleft" unicode="&#x2039;" horiz-adv-x="361" 
d="M309 305l-90 -48l90 -47v-198l-268 169v151l268 169v-196z" />
    <glyph glyph-name="guilsinglright" unicode="&#x203a;" horiz-adv-x="361" 
d="M52 208l90 48l-90 47v198l268 -169v-151l-268 -169v196z" />
    <glyph glyph-name="fraction" unicode="&#x2044;" horiz-adv-x="419" 
d="M-160 0l540 750h191l-540 -750h-191z" />
    <glyph glyph-name="mathspacemedium" unicode="&#x205f;" horiz-adv-x="180" 
 />
    <glyph glyph-name="joinerspace" unicode="&#x2060;" horiz-adv-x="0" 
 />
    <glyph glyph-name="Euro" unicode="&#x20ac;" horiz-adv-x="1044" 
d="M40 361v118h108q36 125 145.5 176t293.5 51q410 0 428 -268h-252q-5 87 -176 87q-48 0 -74.5 -2t-58 -12.5t-47.5 -31.5h246v-118h-270v-33h270v-118h-247q23 -30 64.5 -37.5t116.5 -7.5q79 0 122.5 17t54.5 64h252q-17 -139 -125.5 -200.5t-303.5 -61.5q-91 0 -160 10.5
t-127 35t-96.5 69.5t-56.5 111h-107v118h91v16v17h-91z" />
    <glyph glyph-name="uni20B4" unicode="&#x20b4;" horiz-adv-x="970" 
d="M479 549q-124 0 -156 -45h-247q10 98 115.5 150t288.5 52q204 0 303.5 -44t99.5 -120q0 -46 -30 -76h77v-106h-890v106h549q29 8 29 27v3q0 53 -139 53zM483 141q120 0 156 44h248q-10 -97 -115.5 -149t-289.5 -52q-206 0 -303.5 42t-97.5 111q0 46 32 78h-73v108h890
v-108h-560q-24 -10 -24 -25v-2q0 -29 36 -38t101 -9z" />
    <glyph glyph-name="uni20B8" unicode="&#x20b8;" horiz-adv-x="863" 
d="M843 324h-288v-324h-248v324h-287v164h823v-164zM843 526h-823v164h823v-164z" />
    <glyph glyph-name="uni20BD" unicode="&#x20bd;" horiz-adv-x="1016" 
d="M992 479q0 -94 -60 -144t-178 -50h-324v-38h355v-165h-355v-82h-247v82h-140v165h140v38h-140v158h140v247h571q118 0 178 -55.5t60 -155.5zM741 473v14q0 27 -45 27h-266v-71h266q45 0 45 30z" />
    <glyph glyph-name="afii61352" unicode="&#x2116;" horiz-adv-x="1570" 
d="M406 690l272 -455v455h234v-690h-354l-272 454v-454h-234v690h354zM1255 304q-278 0 -278 202q0 200 278 200t278 -200q0 -202 -278 -202zM997 106v156h508v-156h-508zM1255 444q52 0 73 10t21 45v14q0 35 -20.5 44t-73.5 9t-73.5 -9t-20.5 -44v-14q0 -35 21 -45t73 -10z
" />
    <glyph glyph-name="trademark" unicode="&#x2122;" horiz-adv-x="1239" 
d="M757 362l-49 173v-227h-168v382h282l51 -173l51 173h255v-382h-189v226l-51 -172h-182zM486 560h-133v-252h-189v252h-145v130h467v-130z" />
    <glyph glyph-name="onethird" unicode="&#x2153;" horiz-adv-x="1194" 
d="M922 105q31 0 45 6t14 24v4q0 16 -16.5 21t-62.5 5h-22v107h21q38 0 51.5 4.5t13.5 16.5v6q0 12 -11.5 17t-42.5 5q-52 0 -59 -34h-185q8 154 243 154q243 0 243 -117q0 -72 -82 -100q101 -24 101 -99q0 -77 -63 -109t-198 -32q-126 0 -191 34.5t-69 117.5h191
q6 -18 23 -24.5t56 -6.5zM19 509v160l125 81h191v-425h-191v264zM168 0l540 750h191l-540 -750h-191z" />
    <glyph glyph-name="twothirds" unicode="&#x2154;" horiz-adv-x="1372" 
d="M1100 105q31 0 45 6t14 24v4q0 16 -16.5 21t-62.5 5h-22v107h21q39 0 52 4.5t13 16.5v6q0 12 -11.5 17t-42.5 5q-52 0 -59 -34h-185q8 154 243 154q243 0 243 -117q0 -72 -82 -100q101 -24 101 -99q0 -77 -63 -109t-198 -32q-126 0 -191 34.5t-69 117.5h191
q6 -18 23 -24.5t56 -6.5zM349 0l540 750h191l-540 -750h-191zM286 646q-31 0 -46.5 -7.5t-19.5 -25.5h-185q6 84 69 118.5t183 34.5q249 0 249 -136q0 -59 -43 -92.5t-95 -41t-104.5 -15t-64.5 -19.5h303v-137h-497v84q0 60 32 98t77.5 51.5t91 20t77.5 14.5t32 25v4
q0 14 -13.5 19t-45.5 5z" />
    <glyph glyph-name="oneeighth" unicode="&#x215b;" horiz-adv-x="1242" 
d="M945 -16q-132 0 -199 31t-67 107q0 88 106 111q-92 17 -92 92q0 116 252 116q253 0 253 -116q0 -75 -91 -92q107 -23 107 -111q0 -76 -68 -107t-201 -31zM946 167q-40 0 -58 -7.5t-18 -26.5v-4q0 -34 76 -34q77 0 77 33v4q0 35 -77 35zM946 270q68 0 68 27v4q0 18 -15 24
t-53 6t-53.5 -6.5t-15.5 -23.5v-4q0 -27 69 -27zM19 509v160l125 81h191v-425h-191v264zM168 0l540 750h191l-540 -750h-191z" />
    <glyph glyph-name="threeeighths" unicode="&#x215c;" horiz-adv-x="1384" 
d="M311 0l540 750h191l-540 -750h-191zM291 430q31 0 45 6t14 24v4q0 16 -16.5 21t-62.5 5h-22v107h21q38 0 51.5 4.5t13.5 16.5v6q0 12 -11.5 17t-42.5 5q-52 0 -59 -34h-185q8 154 243 154q243 0 243 -117q0 -72 -82 -100q101 -24 101 -99q0 -77 -63 -109t-198 -32
q-126 0 -191 34.5t-69 117.5h191q6 -18 23 -24.5t56 -6.5zM1086 -16q-132 0 -199 31t-67 107q0 88 106 111q-92 17 -92 92q0 116 252 116q253 0 253 -116q0 -75 -91 -92q107 -23 107 -111q0 -76 -68 -107t-201 -31zM1087 167q-40 0 -58 -7.5t-18 -26.5v-4q0 -34 76 -34
q77 0 77 33v4q0 35 -77 35zM1087 270q68 0 68 27v4q0 18 -15 24t-53 6q-37 0 -53 -6.5t-16 -23.5v-4q0 -27 69 -27z" />
    <glyph glyph-name="fiveeighths" unicode="&#x215d;" horiz-adv-x="1391" 
d="M319 0l540 750h191l-540 -750h-191zM1093 -16q-132 0 -199 31t-67 107q0 88 106 111q-92 17 -92 92q0 116 252 116q253 0 253 -116q0 -75 -91 -92q107 -23 107 -111q0 -76 -68 -107t-201 -31zM1094 167q-40 0 -58 -7.5t-18 -26.5v-4q0 -34 76 -34q77 0 77 33v4
q0 35 -77 35zM1094 270q68 0 68 27v4q0 18 -15 24t-53 6t-53.5 -6.5t-15.5 -23.5v-4q0 -27 69 -27zM294 430q36 0 50 6t14 27v6q0 31 -66 31q-51 0 -83 -17l-164 28l17 239h461v-133h-319l-4 -46q46 23 143 23q98 0 151.5 -33.5t53.5 -98.5q0 -87 -59.5 -120t-190.5 -33
t-196 35.5t-72 111.5h190q16 -26 74 -26z" />
    <glyph glyph-name="seveneighths" unicode="&#x215e;" horiz-adv-x="1313" 
d="M1015 -16q-132 0 -199 31t-67 107q0 88 106 111q-92 17 -92 92q0 116 252 116q253 0 253 -116q0 -75 -91 -92q107 -23 107 -111q0 -76 -68 -107t-201 -31zM1016 167q-40 0 -58 -7.5t-18 -26.5v-4q0 -34 76 -34q77 0 77 33v4q0 35 -77 35zM1016 270q68 0 68 27v4
q0 18 -15 24t-53 6t-53.5 -6.5t-15.5 -23.5v-4q0 -27 69 -27zM238 0l540 750h191l-540 -750h-191zM29 613v137h495v-121l-227 -304h-197l215 288h-286z" />
    <glyph glyph-name="arrowleft" unicode="&#x2190;" horiz-adv-x="1179" 
d="M1109 267h-760l158 -109v-193l-437 301v169l436 296v-186l-159 -109h762v-169z" />
    <glyph glyph-name="arrowright" unicode="&#x2192;" horiz-adv-x="1179" 
d="M70 435h760l-158 109v193l437 -301v-169l-436 -296v186l159 109h-762v169z" />
    <glyph glyph-name="minus" unicode="&#x2212;" 
d="M730 257h-662v205h662v-205z" />
    <glyph glyph-name="approxequal" unicode="&#x2248;" horiz-adv-x="801" 
d="M262 626q52 0 96 -16t77 -31.5t58 -15.5q23 0 34.5 17t11.5 42h198q1 -112 -47.5 -174t-147.5 -62q-63 0 -137 27.5t-97 27.5q-47 0 -47 -50h-197q-2 235 198 235zM262 332q52 0 96 -16t77 -32t58 -16q24 0 36 17.5t12 42.5h196q1 -113 -47.5 -174.5t-147.5 -61.5
q-63 0 -137 27.5t-97 27.5q-47 0 -47 -50h-197q-2 235 198 235z" />
    <glyph glyph-name="notequal" unicode="&#x2260;" 
d="M323 2h-213l48 95h-90v204h195l59 116h-254v204h358l50 97h212l-50 -97h92v-204h-196l-59 -116h255v-204h-359z" />
    <glyph glyph-name="lessequal" unicode="&#x2264;" 
d="M730 206l-662 121v271l662 119v-201l-434 -50l434 -51v-209zM730 0h-662v205h662v-205z" />
    <glyph glyph-name="greaterequal" unicode="&#x2265;" 
d="M68 716l662 -121v-271l-662 -119v201l434 50l-434 51v209zM730 0h-662v205h662v-205z" />
    <glyph glyph-name="Pcircle" unicode="&#x24c5;" horiz-adv-x="886" 
d="M622 382q0 65 -35 99t-121 34h-167v-336h144v72h23q87 0 121.5 32.5t34.5 98.5zM481 395v-23q0 -23 -26 -23h-12v66h12q26 0 26 -20zM834 345q0 -168 -104.5 -264.5t-283.5 -96.5q-180 0 -285.5 96.5t-105.5 264.5t105.5 264.5t285.5 96.5q179 0 283.5 -96.5
t104.5 -264.5zM446 79q126 0 196.5 65t70.5 201q0 134 -71 200t-196 66q-127 0 -198.5 -66t-71.5 -200q0 -136 71 -201t199 -65z" />
    <glyph glyph-name="apple.icon" unicode="&#xf8ff;" horiz-adv-x="1011" 
d="M656 613q107 0 163 -81l-5 -4q-6 -4 -13.5 -10.5t-17 -16t-18.5 -22.5t-17 -28t-12.5 -35t-4.5 -42q0 -34 11 -63.5t26.5 -47.5t32.5 -31t27.5 -18t12.5 -5q-10 -49 -55 -118q-23 -33 -38 -50.5t-40 -34t-52 -16.5t-64 16t-71 16q-33 0 -72 -17t-64 -17q-24 0 -48.5 16.5
t-38.5 33.5t-41 54q-38 55 -62.5 128.5t-24.5 144.5q0 114 62.5 180.5t145.5 66.5q29 0 73.5 -18t59.5 -18q13 0 61.5 18.5t83.5 18.5zM628 681q-21 -25 -52.5 -41.5t-59.5 -16.5h-13q-1 2 -1 16q0 57 46 111q23 26 56.5 43.5t64.5 18.5q2 -4 2 -17q0 -59 -43 -114z" />
    <glyph glyph-name="zerowidthnobreak" unicode="&#xfeff;" horiz-adv-x="0" 
 />
    <glyph glyph-name="numbersign.icon" horiz-adv-x="1028" 
d="M70 378l40 174h159l30 138h209l-30 -138h158l30 138h209l-30 -138h140l-40 -174h-137l-18 -87h168l-40 -174h-165l-25 -117h-209l25 117h-158l-25 -117h-209l25 117h-134l40 174h131l18 87h-162zM441 378l-18 -87h158l18 87h-158z" />
    <glyph glyph-name="dollar.tab" 
d="M502 -120h-214v111q-123 16 -182.5 76.5t-67.5 173.5h248q8 -44 35 -58t83 -14q58 0 83.5 9t25.5 34q0 20 -25.5 29t-66.5 11t-90.5 3t-99 11t-90.5 29.5t-66.5 62.5t-25.5 107q0 108 60.5 164t178.5 71v110h214v-111q117 -16 178.5 -75t68.5 -168h-247q-7 40 -31 52.5
t-75 12.5q-52 0 -77 -8t-25 -34q0 -17 20 -27t53 -12t74.5 -5t85.5 -6t85.5 -15t74.5 -31t53 -56t20 -88q0 -119 -62.5 -178t-195.5 -72v-109z" />
    <glyph glyph-name="parenleft.uc" horiz-adv-x="562" 
d="M510 -134q-198 14 -314 130t-116 349q0 120 33 211t92.5 147t135 85.5t169.5 36.5v-176q-91 -13 -142 -76t-51 -163v-130q0 -100 51 -162.5t142 -75.5v-176z" />
    <glyph glyph-name="parenright.uc" horiz-adv-x="562" 
d="M52 825q198 -14 314 -130t116 -349q0 -120 -33 -211t-92.5 -147t-135 -85.5t-169.5 -36.5v176q91 13 142 76t51 163v130q0 100 -51 162.5t-142 75.5v176z" />
    <glyph glyph-name="asterisk.icon" horiz-adv-x="858" 
d="M303 690h252l-29 -179l166 129l123 -215l-205 -79l205 -81l-123 -215l-167 132l30 -182h-252l31 183l-168 -133l-123 215l203 81l-203 79l123 215l167 -130z" />
    <glyph glyph-name="hyphen.uc" horiz-adv-x="450" 
d="M400 240h-350v221h350v-221z" />
    <glyph glyph-name="slash.uc" horiz-adv-x="582" 
d="M247 -60h-237l325 810h237z" />
    <glyph glyph-name="zero.den" horiz-adv-x="595" 
d="M577 216q0 -68 -21.5 -115t-62 -72t-87.5 -35t-109 -10q-61 0 -108 10t-87.5 35t-62 72t-21.5 115q0 65 21.5 111t61.5 70t87.5 34t108.5 10q62 0 109 -10t87.5 -34t62 -69.5t21.5 -111.5zM387 190v45q0 44 -22 59.5t-67 15.5q-46 0 -68 -15.5t-22 -59.5v-45
q0 -48 21 -61.5t69 -13.5q47 0 68 13.5t21 61.5z" />
    <glyph glyph-name="zero.num" horiz-adv-x="595" 
d="M577 541q0 -68 -21.5 -115t-62 -72t-87.5 -35t-109 -10q-61 0 -108 10t-87.5 35t-62 72t-21.5 115q0 65 21.5 111t61.5 70t87.5 34t108.5 10q62 0 109 -10t87.5 -34t62 -69.5t21.5 -111.5zM387 515v45q0 44 -22 59.5t-67 15.5q-46 0 -68 -15.5t-22 -59.5v-45
q0 -48 21 -61.5t69 -13.5q47 0 68 13.5t21 61.5z" />
    <glyph glyph-name="zero.sub" horiz-adv-x="595" 
d="M577 132q0 -68 -21.5 -115t-62 -72t-87.5 -35t-109 -10q-61 0 -108 10t-87.5 35t-62 72t-21.5 115q0 65 21.5 111t61.5 70t87.5 34t108.5 10q62 0 109 -10t87.5 -34t62 -69.5t21.5 -111.5zM387 106v45q0 44 -22 59.5t-67 15.5q-46 0 -68 -15.5t-22 -59.5v-45
q0 -48 21 -61.5t69 -13.5q47 0 68 13.5t21 61.5z" />
    <glyph glyph-name="zero.sup" horiz-adv-x="595" 
d="M577 591q0 -68 -21.5 -115t-62 -72t-87.5 -35t-109 -10q-61 0 -108 10t-87.5 35t-62 72t-21.5 115q0 65 21.5 111t61.5 70t87.5 34t108.5 10q62 0 109 -10t87.5 -34t62 -69.5t21.5 -111.5zM387 565v45q0 44 -22 59.5t-67 15.5q-46 0 -68 -15.5t-22 -59.5v-45
q0 -48 21 -61.5t69 -13.5q47 0 68 13.5t21 61.5z" />
    <glyph glyph-name="zero.tab" 
d="M759 350q0 -108 -25.5 -181.5t-75.5 -113t-112 -55.5t-147 -16t-146.5 16t-112 55.5t-75.5 113t-25 181.5q0 104 25.5 175t75 110t111.5 55t147 16t147 -16t112 -55t75.5 -110t25.5 -175zM506 304v84q0 74 -27.5 100.5t-79.5 26.5q-51 0 -79 -26t-28 -101v-84
q0 -44 7.5 -71t24.5 -39t32.5 -15.5t42.5 -3.5t43 3.5t32.5 15.5t24 39t7.5 71z" />
    <glyph glyph-name="one.den" horiz-adv-x="387" 
d="M24 184v160l125 81h191v-425h-191v264z" />
    <glyph glyph-name="one.num" horiz-adv-x="387" 
d="M24 509v160l125 81h191v-425h-191v264z" />
    <glyph glyph-name="one.sub" horiz-adv-x="387" 
d="M24 100v160l125 81h191v-425h-191v264z" />
    <glyph glyph-name="one.sup" horiz-adv-x="387" 
d="M24 559v160l125 81h191v-425h-191v264z" />
    <glyph glyph-name="one.tab" 
d="M100 336v226l197 128h247v-490h194v-200h-640v200h199v268z" />
    <glyph glyph-name="two.den" horiz-adv-x="569" 
d="M286 321q-31 0 -46.5 -7.5t-19.5 -25.5h-185q6 84 69 118.5t183 34.5q249 0 249 -136q0 -59 -43 -92.5t-95 -41t-104.5 -15t-64.5 -19.5h303v-137h-497v84q0 60 32 98t77.5 51.5t91 20t77.5 14.5t32 25v4q0 14 -13.5 19t-45.5 5z" />
    <glyph glyph-name="two.num" horiz-adv-x="569" 
d="M286 646q-31 0 -46.5 -7.5t-19.5 -25.5h-185q6 84 69 118.5t183 34.5q249 0 249 -136q0 -59 -43 -92.5t-95 -41t-104.5 -15t-64.5 -19.5h303v-137h-497v84q0 60 32 98t77.5 51.5t91 20t77.5 14.5t32 25v4q0 14 -13.5 19t-45.5 5z" />
    <glyph glyph-name="two.sub" horiz-adv-x="569" 
d="M286 237q-31 0 -46.5 -7.5t-19.5 -25.5h-185q6 84 69 118.5t183 34.5q249 0 249 -136q0 -59 -43 -92.5t-95 -41t-104.5 -15t-64.5 -19.5h303v-137h-497v84q0 60 32 98t77.5 51.5t91 20t77.5 14.5t32 25v4q0 14 -13.5 19t-45.5 5z" />
    <glyph glyph-name="two.sup" horiz-adv-x="569" 
d="M286 696q-31 0 -46.5 -7.5t-19.5 -25.5h-185q6 84 69 118.5t183 34.5q249 0 249 -136q0 -59 -43 -92.5t-95 -41t-104.5 -15t-64.5 -19.5h303v-137h-497v84q0 60 32 98t77.5 51.5t91 20t77.5 14.5t32 25v4q0 14 -13.5 19t-45.5 5z" />
    <glyph glyph-name="two.tab" 
d="M410 515q-50 0 -71 -10.5t-29 -41.5h-249q9 135 95.5 189t253.5 54q164 0 250.5 -52t86.5 -174q0 -77 -43 -129t-105 -75t-124 -35.5t-108.5 -23.5t-50.5 -27h424v-190h-690v113q0 76 33.5 131t84 82.5t109 48t109 30t84 25t33.5 36.5v7q0 25 -21 33.5t-72 8.5z" />
    <glyph glyph-name="three.alt" horiz-adv-x="796" 
d="M76 500v190h644v-172l-174 -117q215 -29 215 -190q0 -119 -87.5 -173t-269.5 -54t-275.5 53.5t-100.5 171.5h244q11 -30 38 -39.5t94 -9.5q64 0 93 11.5t29 48.5v14q0 24 -28.5 33t-98.5 9h-103v137l134 87h-354z" />
    <glyph glyph-name="three.den" horiz-adv-x="563" 
d="M291 105q31 0 45 6t14 24v4q0 16 -16.5 21t-62.5 5h-22v107h21q38 0 51.5 4.5t13.5 16.5v6q0 12 -11.5 17t-42.5 5q-52 0 -59 -34h-185q8 154 243 154q243 0 243 -117q0 -72 -82 -100q101 -24 101 -99q0 -77 -63 -109t-198 -32q-126 0 -191 34.5t-69 117.5h191
q6 -18 23 -24.5t56 -6.5z" />
    <glyph glyph-name="three.num" horiz-adv-x="563" 
d="M291 430q31 0 45 6t14 24v4q0 16 -16.5 21t-62.5 5h-22v107h21q38 0 51.5 4.5t13.5 16.5v6q0 12 -11.5 17t-42.5 5q-52 0 -59 -34h-185q8 154 243 154q243 0 243 -117q0 -72 -82 -100q101 -24 101 -99q0 -77 -63 -109t-198 -32q-126 0 -191 34.5t-69 117.5h191
q6 -18 23 -24.5t56 -6.5z" />
    <glyph glyph-name="three.sub" horiz-adv-x="563" 
d="M291 21q31 0 45 6t14 24v4q0 16 -16.5 21t-62.5 5h-22v107h21q38 0 51.5 4.5t13.5 16.5v6q0 12 -11.5 17t-42.5 5q-52 0 -59 -34h-185q8 154 243 154q243 0 243 -117q0 -72 -82 -100q101 -24 101 -99q0 -77 -63 -109t-198 -32q-126 0 -191 34.5t-69 117.5h191
q6 -18 23 -24.5t56 -6.5z" />
    <glyph glyph-name="three.sup" horiz-adv-x="563" 
d="M291 480q31 0 45 6t14 24v4q0 16 -16.5 21t-62.5 5h-22v107h21q38 0 51.5 4.5t13.5 16.5v6q0 12 -11.5 17t-42.5 5q-52 0 -59 -34h-185q8 154 243 154q243 0 243 -117q0 -72 -82 -100q101 -24 101 -99q0 -77 -63 -109t-198 -32q-126 0 -191 34.5t-69 117.5h191
q6 -18 23 -24.5t56 -6.5z" />
    <glyph glyph-name="three.tab" 
d="M409 160q64 0 87.5 10.5t23.5 41.5v13q0 30 -26 40.5t-89 10.5h-78v159h78q88 0 88 37v10q0 28 -21.5 38t-74.5 10q-31 0 -48 -2t-31.5 -11t-18.5 -28h-237q6 119 90 168t242 49q336 0 336 -182q0 -116 -115 -159q145 -40 145 -160q0 -115 -87.5 -168.5t-263.5 -53.5
q-181 0 -274 53.5t-97 172.5h243q7 -32 33.5 -40.5t94.5 -8.5z" />
    <glyph glyph-name="three.tab.alt" 
d="M83 500v190h639v-172l-173 -117q103 -13 155.5 -57.5t52.5 -128.5q0 -119 -85.5 -175t-265.5 -56t-272 53.5t-99 171.5h243q12 -31 37.5 -40t90.5 -9q25 0 38 0.5t30.5 3.5t26.5 9t15.5 17t6.5 27v14q0 26 -27.5 35.5t-94.5 9.5h-103v137l133 87h-348z" />
    <glyph glyph-name="four.alt" horiz-adv-x="855" 
d="M705 0h-248v133h-431v169l303 388h262l-290 -372h156v133h248v-133h122v-185h-122v-133z" />
    <glyph glyph-name="four.den" horiz-adv-x="645" 
d="M235 424h284v-228h94v-132h-94v-64h-188v64h-302v121zM212 196h119v137z" />
    <glyph glyph-name="four.num" horiz-adv-x="645" 
d="M235 749h284v-228h94v-132h-94v-64h-188v64h-302v121zM212 521h119v137z" />
    <glyph glyph-name="four.sub" horiz-adv-x="645" 
d="M235 340h284v-228h94v-132h-94v-64h-188v64h-302v121zM212 112h119v137z" />
    <glyph glyph-name="four.sup" horiz-adv-x="645" 
d="M235 799h284v-228h94v-132h-94v-64h-188v64h-302v121zM212 571h119v137z" />
    <glyph glyph-name="four.tab" 
d="M305 690h370v-376h90v-181h-90v-133h-248v133h-396v169zM270 314h157v221z" />
    <glyph glyph-name="four.tab.alt" 
d="M680 0h-246v133h-408v169l261 388h262l-250 -372h135v125h246v-125h88v-185h-88v-133z" />
    <glyph glyph-name="five.den" horiz-adv-x="578" 
d="M294 105q36 0 50 6t14 27v6q0 31 -66 31q-51 0 -83 -17l-164 28l17 239h461v-133h-319l-4 -46q46 23 143 23q98 0 151.5 -33.5t53.5 -98.5q0 -87 -59.5 -120t-190.5 -33t-196 35.5t-72 111.5h190q16 -26 74 -26z" />
    <glyph glyph-name="five.num" horiz-adv-x="578" 
d="M294 430q36 0 50 6t14 27v6q0 31 -66 31q-51 0 -83 -17l-164 28l17 239h461v-133h-319l-4 -46q46 23 143 23q98 0 151.5 -33.5t53.5 -98.5q0 -87 -59.5 -120t-190.5 -33t-196 35.5t-72 111.5h190q16 -26 74 -26z" />
    <glyph glyph-name="five.sub" horiz-adv-x="578" 
d="M294 21q36 0 50 6t14 27v6q0 31 -66 31q-51 0 -83 -17l-164 28l17 239h461v-133h-319l-4 -46q46 23 143 23q98 0 151.5 -33.5t53.5 -98.5q0 -87 -59.5 -120t-190.5 -33t-196 35.5t-72 111.5h190q16 -26 74 -26z" />
    <glyph glyph-name="five.sup" horiz-adv-x="578" 
d="M294 480q36 0 50 6t14 27v6q0 31 -66 31q-51 0 -83 -17l-164 28l17 239h461v-133h-319l-4 -46q46 23 143 23q98 0 151.5 -33.5t53.5 -98.5q0 -87 -59.5 -120t-190.5 -33t-196 35.5t-72 111.5h190q16 -26 74 -26z" />
    <glyph glyph-name="five.tab" 
d="M401 160q54 0 78 13t24 52v17q0 59 -103 59q-81 0 -122 -19l-205 41l27 367h612v-190h-417l-6 -90q59 40 181 40q141 0 209.5 -61t68.5 -166q0 -124 -77.5 -181.5t-269.5 -57.5q-173 0 -259 54t-97 171h246q19 -49 110 -49z" />
    <glyph glyph-name="six.den" horiz-adv-x="587" 
d="M291 320q-52 0 -71 -17.5t-19 -59.5v-3q36 37 142 37q113 0 167.5 -30.5t54.5 -109.5q0 -80 -66 -116.5t-205 -36.5q-143 0 -208 47t-65 172q0 57 14 99.5t37.5 69t59 42.5t74 22t87.5 6q122 0 187.5 -37.5t72.5 -105.5h-188q-21 21 -74 21zM292 103q43 0 62.5 5t19.5 23
v10q0 22 -20.5 29.5t-61.5 7.5q-43 0 -62 -7.5t-20 -29.5q-1 -23 18 -30.5t64 -7.5z" />
    <glyph glyph-name="six.num" horiz-adv-x="587" 
d="M291 646q-52 0 -71 -17.5t-19 -59.5v-3q36 37 142 37q113 0 167.5 -30.5t54.5 -109.5q0 -80 -66 -116.5t-205 -36.5q-143 0 -208 47t-65 172q0 57 14 99.5t37.5 69t59 42.5t74 22t87.5 6q122 0 187.5 -37.5t72.5 -105.5h-188q-21 21 -74 21zM292 429q43 0 62.5 5t19.5 23
v10q0 22 -20.5 29.5t-61.5 7.5q-43 0 -62 -7.5t-20 -29.5q-1 -23 18 -30.5t64 -7.5z" />
    <glyph glyph-name="six.sub" horiz-adv-x="587" 
d="M291 236q-52 0 -71 -17.5t-19 -59.5v-3q36 37 142 37q113 0 167.5 -30.5t54.5 -109.5q0 -80 -66 -116.5t-205 -36.5q-143 0 -208 47t-65 172q0 57 14 99.5t37.5 69t59 42.5t74 22t87.5 6q122 0 187.5 -37.5t72.5 -105.5h-188q-21 21 -74 21zM292 19q43 0 62.5 5t19.5 23
v10q0 22 -20.5 29.5t-61.5 7.5q-43 0 -62 -7.5t-20 -29.5q-1 -23 18 -30.5t64 -7.5z" />
    <glyph glyph-name="six.sup" horiz-adv-x="587" 
d="M291 696q-52 0 -71 -17.5t-19 -59.5v-3q36 37 142 37q113 0 167.5 -30.5t54.5 -109.5q0 -80 -66 -116.5t-205 -36.5q-143 0 -208 47t-65 172q0 57 14 99.5t37.5 69t59 42.5t74 22t87.5 6q122 0 187.5 -37.5t72.5 -105.5h-188q-21 21 -74 21zM292 479q43 0 62.5 5t19.5 23
v10q0 22 -20.5 29.5t-61.5 7.5q-43 0 -62 -7.5t-20 -29.5q-1 -23 18 -30.5t64 -7.5z" />
    <glyph glyph-name="six.tab" 
d="M402 529q-117 0 -117 -116v-15q64 51 192 51q142 0 214.5 -52t72.5 -171q0 -121 -85 -181.5t-263 -60.5q-199 0 -288.5 81.5t-88.5 270.5q0 108 26 182t78 114.5t117 57t156 16.5q153 0 234 -55.5t96 -155.5h-248q-23 34 -96 34zM412 159q57 0 81 9t24 45v11q0 38 -26 51
t-79 13q-66 0 -93.5 -12.5t-28.5 -54.5q-1 -36 28.5 -49t93.5 -13z" />
    <glyph glyph-name="seven.den" horiz-adv-x="555" 
d="M29 288v137h495v-121l-227 -304h-197l215 288h-286z" />
    <glyph glyph-name="seven.num" horiz-adv-x="555" 
d="M29 613v137h495v-121l-227 -304h-197l215 288h-286z" />
    <glyph glyph-name="seven.sub" horiz-adv-x="555" 
d="M29 204v137h495v-121l-227 -304h-197l215 288h-286z" />
    <glyph glyph-name="seven.sup" horiz-adv-x="555" 
d="M29 663v137h495v-121l-227 -304h-197l215 288h-286z" />
    <glyph glyph-name="seven.tab" 
d="M68 490v200h658v-154l-320 -536h-243l292 490h-387z" />
    <glyph glyph-name="eight.den" horiz-adv-x="587" 
d="M292 -16q-132 0 -199 31t-67 107q0 88 106 111q-92 17 -92 92q0 116 252 116q253 0 253 -116q0 -75 -91 -92q107 -23 107 -111q0 -76 -68 -107t-201 -31zM293 167q-40 0 -58 -7.5t-18 -26.5v-4q0 -34 76 -34q77 0 77 33v4q0 35 -77 35zM293 270q68 0 68 27v4q0 18 -15 24
t-53 6q-37 0 -53 -6.5t-16 -23.5v-4q0 -27 69 -27z" />
    <glyph glyph-name="eight.num" horiz-adv-x="567" 
d="M292 309q-132 0 -199 31t-67 107q0 88 106 111q-92 17 -92 92q0 116 252 116q253 0 253 -116q0 -75 -91 -92q107 -23 107 -111q0 -76 -68 -107t-201 -31zM293 492q-40 0 -58 -7.5t-18 -26.5v-4q0 -34 76 -34q77 0 77 33v4q0 35 -77 35zM293 595q68 0 68 27v4q0 18 -15 24
t-53 6q-37 0 -53 -6.5t-16 -23.5v-4q0 -27 69 -27z" />
    <glyph glyph-name="eight.sub" horiz-adv-x="567" 
d="M292 -100q-132 0 -199 31t-67 107q0 88 106 111q-92 17 -92 92q0 116 252 116q253 0 253 -116q0 -75 -91 -92q107 -23 107 -111q0 -76 -68 -107t-201 -31zM293 83q-40 0 -58 -7.5t-18 -26.5v-4q0 -34 76 -34q77 0 77 33v4q0 35 -77 35zM293 186q68 0 68 27v4q0 18 -15 24
t-53 6q-37 0 -53 -6.5t-16 -23.5v-4q0 -27 69 -27z" />
    <glyph glyph-name="eight.sup" horiz-adv-x="567" 
d="M292 359q-132 0 -199 31t-67 107q0 88 106 111q-92 17 -92 92q0 116 252 116q253 0 253 -116q0 -75 -91 -92q107 -23 107 -111q0 -76 -68 -107t-201 -31zM293 542q-40 0 -58 -7.5t-18 -26.5v-4q0 -34 76 -34q77 0 77 33v4q0 35 -77 35zM293 645q68 0 68 27v4q0 18 -15 24
t-53 6q-37 0 -53 -6.5t-16 -23.5v-4q0 -27 69 -27z" />
    <glyph glyph-name="eight.tab" 
d="M399 -16q-177 0 -266 49t-89 172q0 142 169 172q-79 14 -112 52t-33 101q0 176 331 176t331 -176q0 -63 -33 -101.5t-113 -52.5q170 -30 170 -171q0 -122 -90 -171.5t-265 -49.5zM399 272q-60 0 -87 -12t-27 -42v-17q0 -32 27.5 -43.5t86.5 -11.5q57 0 85.5 11.5
t28.5 42.5v17q0 30 -27.5 42.5t-86.5 12.5zM399 435q90 0 90 50v11q0 28 -20 38t-70 10t-70 -10t-20 -38v-11q0 -50 90 -50z" />
    <glyph glyph-name="nine.den" horiz-adv-x="587" 
d="M296 105q52 0 71 17.5t19 59.5v3q-36 -37 -142 -37q-113 0 -167.5 30.5t-54.5 109.5q0 80 66 116.5t205 36.5q143 0 208 -47t65 -172q0 -57 -14 -99.5t-37.5 -69t-59 -42.5t-74 -22t-87.5 -6q-122 0 -187.5 37.5t-72.5 105.5h188q21 -21 74 -21zM295 322q-43 0 -62.5 -5
t-19.5 -23v-10q0 -22 20.5 -29.5t61.5 -7.5q43 0 62 7.5t20 29.5q1 23 -18 30.5t-64 7.5z" />
    <glyph glyph-name="nine.num" horiz-adv-x="587" 
d="M296 430q52 0 71 17.5t19 59.5v3q-36 -37 -142 -37q-113 0 -167.5 30.5t-54.5 109.5q0 80 66 116.5t205 36.5q143 0 208 -47t65 -172q0 -57 -14 -99.5t-37.5 -69t-59 -42.5t-74 -22t-87.5 -6q-122 0 -187.5 37.5t-72.5 105.5h188q21 -21 74 -21zM295 647q-43 0 -62.5 -5
t-19.5 -23v-10q0 -22 20.5 -29.5t61.5 -7.5q43 0 62 7.5t20 29.5q1 23 -18 30.5t-64 7.5z" />
    <glyph glyph-name="nine.sub" horiz-adv-x="587" 
d="M296 21q52 0 71 17.5t19 59.5v3q-36 -37 -142 -37q-113 0 -167.5 30.5t-54.5 109.5q0 80 66 116.5t205 36.5q143 0 208 -47t65 -172q0 -57 -14 -99.5t-37.5 -69t-59 -42.5t-74 -22t-87.5 -6q-122 0 -187.5 37.5t-72.5 105.5h188q21 -21 74 -21zM295 238q-43 0 -62.5 -5
t-19.5 -23v-10q0 -22 20.5 -29.5t61.5 -7.5q43 0 62 7.5t20 29.5q1 23 -18 30.5t-64 7.5z" />
    <glyph glyph-name="nine.sup" horiz-adv-x="587" 
d="M296 480q52 0 71 17.5t19 59.5v3q-36 -37 -142 -37q-113 0 -167.5 30.5t-54.5 109.5q0 80 66 116.5t205 36.5q143 0 208 -47t65 -172q0 -57 -14 -99.5t-37.5 -69t-59 -42.5t-74 -22t-87.5 -6q-122 0 -187.5 37.5t-72.5 105.5h188q21 -21 74 -21zM295 697q-43 0 -62.5 -5
t-19.5 -23v-10q0 -22 20.5 -29.5t61.5 -7.5q43 0 62 7.5t20 29.5q1 23 -18 30.5t-64 7.5z" />
    <glyph glyph-name="nine.tab" 
d="M396 179q117 0 117 116v15q-64 -51 -192 -51q-142 0 -214.5 52t-72.5 171q0 121 85 181.5t263 60.5q199 0 288.5 -81.5t88.5 -270.5q0 -108 -26 -182t-78 -114.5t-117 -57t-156 -16.5q-153 0 -234 55.5t-96 155.5h248q23 -34 96 -34zM386 549q-57 0 -81 -9t-24 -45v-11
q0 -38 26 -51t79 -13q66 0 93.5 12.5t28.5 54.5q1 36 -28.5 49t-93.5 13z" />
    <glyph glyph-name="at.uc" horiz-adv-x="1362" 
d="M589 119q-108 0 -166 54.5t-58 179.5q0 228 224 228q118 0 170 -61v38h206v-225q0 -32 15.5 -43.5t47.5 -11.5q45 0 62.5 15.5t17.5 72.5v53q0 128 -101.5 184.5t-322.5 56.5q-227 0 -328.5 -63.5t-101.5 -216.5v-61q0 -151 95 -208t311 -57q81 0 166.5 11t125.5 29v-136
q-42 -20 -122.5 -33t-172.5 -13q-120 0 -210 12t-168 41.5t-127.5 79t-77 126t-27.5 179.5q0 235 161 343.5t476 108.5q631 0 631 -407q0 -138 -74.5 -207t-229.5 -69q-190 0 -224 107q-42 -107 -198 -107zM672 272q48 0 66 10t18 40v59q0 28 -17.5 37.5t-67.5 9.5
q-45 0 -62.5 -9.5t-17.5 -37.5v-59q0 -30 17 -40t64 -10z" />
    <glyph glyph-name="bracketleft.uc" horiz-adv-x="525" 
d="M473 -128h-388v950h388v-179h-163v-592h163v-179z" />
    <glyph glyph-name="backslash.uc" horiz-adv-x="582" 
d="M335 -60l-325 810h237l325 -810h-237z" />
    <glyph glyph-name="bracketright.uc" horiz-adv-x="525" 
d="M52 822h388v-950h-388v179h163v592h-163v179z" />
    <glyph glyph-name="a.alt" horiz-adv-x="818" 
d="M529 0v63q-57 -79 -212 -79q-141 0 -216.5 64t-75.5 208q0 148 75.5 213.5t216.5 65.5q154 0 212 -81v65h237v-519h-237zM398 155q71 0 98.5 14.5t27.5 55.5v75q-2 37 -30 50.5t-97 13.5q-70 0 -97.5 -15t-27.5 -57v-67q0 -41 27.5 -55.5t98.5 -14.5z" />
    <glyph glyph-name="braceleft.uc" horiz-adv-x="549" 
d="M355 575v-71q0 -67 -21.5 -103t-94.5 -54q74 -14 95 -49.5t21 -106.5v-74q0 -22 2 -33.5t14.5 -22t36.5 -10.5h90v-179h-143q-124 0 -174 42.5t-50 142.5v102q0 52 -18.5 76t-77.5 25v175q58 1 77 25.5t19 74.5v102q0 100 50 142.5t174 42.5h143v-179h-90q-18 0 -29.5 -5
t-16.5 -16t-6 -20.5t-1 -26.5z" />
    <glyph glyph-name="bar.uc" horiz-adv-x="349" 
d="M287 -100h-225v890h225v-890z" />
    <glyph glyph-name="braceright.uc" horiz-adv-x="549" 
d="M194 119v71q0 67 21.5 103t94.5 54q-74 14 -95 49.5t-21 106.5v74q0 22 -2 33.5t-14.5 22t-36.5 10.5h-90v179h143q124 0 174 -42.5t50 -142.5v-102q0 -52 18.5 -76t77.5 -25v-175q-58 -1 -77 -25.5t-19 -74.5v-102q0 -100 -50 -142.5t-174 -42.5h-143v179h90
q18 0 29.5 5t16.5 16t6 20.5t1 26.5z" />
    <glyph glyph-name="cent.tab" 
d="M504 -120h-202v108q-124 12 -180.5 73t-56.5 199q0 136 56 197t181 74v108h202v-110q212 -28 226 -190h-249q-3 10 -8 16.5t-24.5 12.5t-52.5 6q-45 0 -64.5 -15.5t-19.5 -53.5v-88q0 -40 20 -56t64 -16q34 0 53.5 6.5t24.5 13.5t10 20h249q-18 -167 -229 -194v-111z" />
    <glyph glyph-name="sterling.tab" 
d="M66 232v134h77q-43 24 -67 55.5t-24 86.5q0 99 91.5 148.5t259.5 49.5q164 0 256 -54t97 -164h-246q-13 42 -107 42q-99 0 -99 -42v-9q0 -22 26 -37.5t65 -34t58 -41.5h204v-134h-196q-13 -20 -36 -37h332v-195h-714v182q138 0 180 50h-157z" />
    <glyph glyph-name="yen.tab" 
d="M290 690l119 -198l123 198h255l-157 -226h107v-164h-215v-39h215v-163h-215v-98h-247v98h-215v163h215v39h-215v164h106l-155 226h279z" />
    <glyph glyph-name="dieresis.uc" horiz-adv-x="566" 
d="M556 829q0 -49 -30 -74t-86 -25t-86.5 25t-30.5 74q0 48 30.5 73t86.5 25q55 0 85.5 -25t30.5 -73zM242 829q0 -99 -115 -99q-56 0 -87 25t-31 74q0 48 31 73t87 25q55 0 85 -25t30 -73z" />
    <glyph glyph-name="guillemotleft.uc" horiz-adv-x="670" 
d="M309 398l-90 -48l90 -47v-198l-268 169v151l268 169v-196zM618 398l-90 -48l90 -47v-198l-268 169v151l268 169v-196z" />
    <glyph glyph-name="guillemotright.uc" horiz-adv-x="670" 
d="M361 301l90 48l-90 47v198l268 -169v-151l-268 -169v196zM52 301l90 48l-90 47v198l268 -169v-151l-268 -169v196z" />
    <glyph glyph-name="endash.uc" horiz-adv-x="775" 
d="M725 264h-675v174h675v-174z" />
    <glyph glyph-name="emdash.uc" horiz-adv-x="1025" 
d="M955 264h-885v174h885v-174z" />
    <glyph glyph-name="guilsinglleft.uc" horiz-adv-x="356" 
d="M309 398l-90 -48l90 -47v-198l-268 169v151l268 169v-196z" />
    <glyph glyph-name="guilsinglright.uc" horiz-adv-x="356" 
d="M52 301l90 48l-90 47v198l268 -169v-151l-268 -169v196z" />
    <glyph glyph-name="Euro.tab" 
d="M29 361v118h71q28 124 112.5 175.5t225.5 51.5q314 0 332 -268h-247q-4 89 -85 89q-21 0 -32 -1t-25 -5.5t-22.5 -14.5t-14.5 -27h117v-118h-127v-33h127v-118h-117q8 -22 23.5 -32.5t29.5 -12.5t41 -2q37 0 58 18t28 65h247q-17 -140 -99.5 -201t-233.5 -61
q-144 0 -228 49.5t-111 176.5h-70v118h58v16v17h-58z" />
    <glyph glyph-name="uni20B4.tab" 
d="M398 141q41 0 59 8.5t33 25.5h247q-8 -92 -96.5 -141.5t-243.5 -49.5q-337 0 -337 153q0 38 23 68h-61v118h756v-118h-457q-7 -6 -7 -15v-2q0 -29 22.5 -38t61.5 -9zM394 549q-69 0 -92 -35h-247q37 192 340 192q171 0 254.5 -44t83.5 -120q0 -39 -21 -66h66v-116h-756
v116h448q9 7 9 17v3q0 53 -85 53z" />
    <glyph glyph-name="uni20B8.tab" 
d="M759 304h-236v-304h-248v304h-234v164h718v-164zM759 526h-718v164h718v-164z" />
    <glyph glyph-name="uni20BD.tab" 
d="M793 477q0 -198 -224 -198h-183v-38h253v-165h-253v-76h-247v76h-109v165h109v38h-109v159h109v252h430q224 0 224 -213zM542 470v15q0 29 -39 29h-117v-76h117q39 0 39 32z" />
    <glyph glyph-name="cyrbreve" horiz-adv-x="552" 
d="M328 763h194q0 -98 -60 -145t-186 -47t-186 47t-60 145h195q0 -49 11 -64.5t40 -15.5t40.5 15.5t11.5 64.5z" />
    <glyph glyph-name="cyrbreve.uc" horiz-adv-x="584" 
d="M365 929h212q0 -101 -69 -147t-217 -46q-149 0 -218 46t-69 147h212q0 -45 16.5 -58.5t58.5 -13.5t58 13.5t16 58.5z" />
    <glyph glyph-name="egg.icon" horiz-adv-x="1005" 
d="M836 292q0 -71 -20.5 -135t-60 -116.5t-105 -84t-147.5 -31.5q-109 0 -186.5 54.5t-112 135t-34.5 174.5q0 129 47.5 257.5t126 211.5t159.5 83t159.5 -83t126 -211t47.5 -255z" />
    <glyph glyph-name="phone1.icon" horiz-adv-x="783" 
d="M196 -16q-65 0 -126 60q-45 45 -45 72q0 8 2 12.5t13.5 15.5t36.5 29l122 87q24 17 41 17q3 0 5.5 -0.5t5.5 -1.5l4.5 -1.5t4.5 -2.5l4.5 -3t4.5 -4l4.5 -4.5l5.5 -5.5l5 -5q30 -30 51 -30q32 0 102 71q83 84 83 130q0 16 -26 41q-35 32 -35 46t20 40l104 131
q23 28 41 28q28 0 85 -59q49 -52 49 -102q0 -125 -204 -348q-52 -57 -111 -101.5t-89.5 -60.5t-73.5 -36q-33 -15 -84 -15z" />
    </font>
</defs>
</svg>
