<?xml version="1.0" standalone="no"?>
<!DOCTYPE svg PUBLIC "-//W3C//DTD SVG 1.1//EN" "http://www.w3.org/Graphics/SVG/1.1/DTD/svg11.dtd" >
<svg xmlns="http://www.w3.org/2000/svg" xmlns:xlink="http://www.w3.org/1999/xlink" version="1.1">
<metadata>
Created by FontForge 20170731 at Fri May 24 18:31:21 2019
 By Aleksey,,,
(c) Ilya Ruderman and Yury Ostromentsky, CSTM Fonts, 2019
</metadata>
<defs>
<font id="MTSSans-Black" horiz-adv-x="660" >
  <font-face 
    font-family="MTS Sans Black"
    font-weight="900"
    font-stretch="normal"
    units-per-em="1000"
    panose-1="2 0 0 0 0 0 0 0 0 0"
    ascent="800"
    descent="-200"
    x-height="515"
    cap-height="690"
    bbox="-170 -215 1477 922"
    underline-thickness="50"
    underline-position="-200"
    unicode-range="U+0020-FEFF"
  />
<missing-glyph horiz-adv-x="500" 
 />
    <glyph glyph-name="fi" unicode="fi" horiz-adv-x="630" 
d="M580 0h-195v360h-120v-360h-195v360h-60v155h60q0 106 54 160.5t189 54.5h267v-155h-241q-42 0 -58 -14t-16 -46h315v-515z" />
    <glyph glyph-name="fl" unicode="fl" horiz-adv-x="630" 
d="M580 0h-195v360h-120v-360h-195v360h-60v155h60q0 109 53 162t190 53h267v-730zM339 590q-41 0 -57.5 -17.5t-16.5 -57.5h120v75h-46z" />
    <glyph glyph-name=".notdef" horiz-adv-x="500" 
 />
    <glyph glyph-name=".null" horiz-adv-x="0" 
 />
    <glyph glyph-name="nonmarkingreturn" horiz-adv-x="333" 
 />
    <glyph glyph-name="space" unicode=" " horiz-adv-x="250" 
 />
    <glyph glyph-name="exclam" unicode="!" horiz-adv-x="337" 
d="M242 243h-147l-40 447h227zM271 83q0 -98 -102 -98q-103 0 -103 98q0 97 103 97q102 0 102 -97z" />
    <glyph glyph-name="quotedbl" unicode="&#x22;" horiz-adv-x="563" 
d="M231 423h-144l-22 267h188zM476 423h-144l-22 267h188z" />
    <glyph glyph-name="numbersign" unicode="#" horiz-adv-x="825" 
d="M67 394l35 148h141l32 148h150l-32 -148h122l32 148h150l-32 -148h120l-35 -148h-116l-25 -117h149l-35 -148h-146l-27 -129h-150l27 129h-122l-27 -129h-150l27 129h-115l35 148h112l25 117h-145zM362 394l-25 -117h122l25 117h-122z" />
    <glyph glyph-name="dollar" unicode="$" horiz-adv-x="677" 
d="M425 -120h-180v112q-203 33 -210 232h205q1 -49 26.5 -66.5t76.5 -17.5q54 0 80 14t26 53q0 24 -22 37.5t-58 19t-79 10t-85.5 16t-78.5 31.5t-58 61.5t-22 101.5q0 184 199 214v112h180v-112q201 -31 205 -214h-205q-2 39 -24.5 52.5t-66.5 13.5q-48 0 -72 -13.5
t-24 -50.5q0 -23 22.5 -36.5t58 -19.5t78.5 -11t86 -16t78.5 -30t58 -58t22.5 -94q0 -107 -55 -162.5t-162 -68.5v-110z" />
    <glyph glyph-name="percent" unicode="%" horiz-adv-x="1053" 
d="M838 690l-458 -690h-167l454 690h171zM243 309q-96 0 -154.5 49t-58.5 149q0 99 59 148.5t154 49.5t153.5 -49.5t58.5 -148.5q0 -100 -58.5 -149t-153.5 -49zM243 434q34 0 48 12t14 51v20q0 37 -14.5 49.5t-47.5 12.5t-48 -12.5t-15 -49.5v-20q0 -39 14.5 -51t48.5 -12z
M812 -15q-96 0 -154.5 49t-58.5 149q0 99 59 148.5t154 49.5t153.5 -49.5t58.5 -148.5q0 -100 -58.5 -149t-153.5 -49zM812 110q34 0 48 12t14 51v20q0 37 -14.5 49.5t-47.5 12.5t-48 -12.5t-15 -49.5v-20q0 -39 14.5 -51t48.5 -12z" />
    <glyph glyph-name="ampersand" unicode="&#x26;" horiz-adv-x="820" 
d="M40 190q-2 133 138 189q-34 35 -49 68t-15 78q0 81 58.5 130.5t177.5 49.5t177.5 -49.5t58.5 -130.5q0 -58 -33.5 -99.5t-111.5 -80.5l108 -93q14 42 14 93h170q0 -116 -58 -200q26 -15 73 -15h32v-130h-61q-58 0 -94.5 8t-67.5 32q-100 -55 -226 -55q-155 0 -222.5 57
t-68.5 148zM345 120q57 0 101 18l-166 148q-42 -26 -42 -72v-15q0 -38 27.5 -58.5t79.5 -20.5zM290 515q0 -40 53 -86q67 32 67 86v10q0 46 -60 46q-28 0 -44 -12.5t-16 -33.5v-10z" />
    <glyph glyph-name="quotesingle" unicode="'" horiz-adv-x="318" 
d="M231 423h-144l-22 267h188z" />
    <glyph glyph-name="parenleft" unicode="(" horiz-adv-x="493" 
d="M443 -214q-87 8 -152.5 38t-113.5 86t-72.5 145t-24.5 210q0 237 94 350.5t269 129.5v-154q-79 -15 -123 -82.5t-44 -173.5v-140q0 -107 44 -173.5t123 -81.5v-154z" />
    <glyph glyph-name="parenright" unicode=")" horiz-adv-x="493" 
d="M50 745q87 -8 152.5 -38t113.5 -86t72.5 -145t24.5 -210q0 -237 -94 -350.5t-269 -129.5v154q79 15 123 82.5t44 173.5v140q0 107 -44 173.5t-123 81.5v154z" />
    <glyph glyph-name="asterisk" unicode="*" horiz-adv-x="552" 
d="M472 451l-58 -101l-86 59l11 -105h-126l11 105l-86 -59l-58 101l97 46l-97 46l58 101l86 -60l-11 106h126l-11 -105l86 59l58 -101l-97 -46z" />
    <glyph glyph-name="plus" unicode="+" 
d="M243 90v177h-179v170h179v177h174v-177h179v-170h-179v-177h-174z" />
    <glyph glyph-name="comma" unicode="," horiz-adv-x="305" 
d="M151 180q104 0 104 -102v-74q0 -95 -39.5 -132t-133.5 -37v93q41 0 57.5 13t16.5 41v3h-6q-46 0 -73 24.5t-27 75.5q0 95 101 95z" />
    <glyph glyph-name="hyphen" unicode="-" horiz-adv-x="420" 
d="M370 165h-320v188h320v-188z" />
    <glyph glyph-name="period" unicode="." horiz-adv-x="305" 
d="M255 83q0 -98 -102 -98q-103 0 -103 98q0 97 103 97q102 0 102 -97z" />
    <glyph glyph-name="slash" unicode="/" horiz-adv-x="587" 
d="M256 -95h-191l311 835h191z" />
    <glyph glyph-name="zero" unicode="0" horiz-adv-x="670" 
d="M635 345q0 -190 -74.5 -275t-225.5 -85t-225.5 85t-74.5 275q0 187 75 273.5t225 86.5t225 -86.5t75 -273.5zM430 287v118q0 74 -20 107t-75 33t-75 -31.5t-20 -108.5v-118q0 -81 19.5 -111t75.5 -31t75.5 30t19.5 112z" />
    <glyph glyph-name="one" unicode="1" horiz-adv-x="438" 
d="M35 380v195l143 115h200v-690h-200v498z" />
    <glyph glyph-name="two" unicode="2" horiz-adv-x="644" 
d="M323 545q-37 0 -50.5 -14.5t-17.5 -53.5h-205q4 123 73 175.5t200 52.5q138 0 204.5 -50t66.5 -165q0 -53 -22 -95.5t-55.5 -67.5t-73.5 -47t-74.5 -36t-60 -33.5t-29.5 -40.5h315v-170h-543v100q0 67 25 118t62.5 78.5t81.5 50.5t81.5 37.5t62.5 37.5t25 52v17
q0 28 -15 41t-51 13z" />
    <glyph glyph-name="three" unicode="3" horiz-adv-x="644" 
d="M322 144q42 0 61 12t19 46v21q0 55 -78 55h-65v150h65q53 0 53 50v21q0 46 -55 46q-29 0 -44.5 -10.5t-18.5 -43.5h-211q0 214 271 214q124 0 192 -47t68 -135q0 -122 -119 -158q144 -33 144 -163q0 -218 -282 -218q-143 0 -217.5 51t-74.5 167h213q-1 -29 19.5 -43.5
t59.5 -14.5z" />
    <glyph glyph-name="four" unicode="4" horiz-adv-x="700" 
d="M270 690h300v-385h100v-158h-100v-147h-200v147h-335v147zM218 305h152v255z" />
    <glyph glyph-name="five" unicode="5" horiz-adv-x="653" 
d="M327 145q73 0 73 73v27q0 79 -75 79q-50 0 -87 -33l-168 39l28 360h456v-170h-305l-9 -113q46 43 138 43q111 0 168 -58.5t57 -162.5q0 -122 -71.5 -183t-204.5 -61q-280 0 -287 224h211q4 -32 20.5 -48t55.5 -16z" />
    <glyph glyph-name="six" unicode="6" horiz-adv-x="644" 
d="M334 544q-50 0 -73 -31.5t-23 -123.5v-10q56 63 157 63q214 0 214 -216q0 -117 -69.5 -179t-208.5 -62q-155 0 -225.5 85.5t-70.5 275.5q0 102 21.5 173t63 111t95 57.5t125.5 17.5q119 0 185.5 -55.5t70.5 -141.5h-199q-15 36 -63 36zM331 139q37 0 56 16t19 58v28
q0 75 -75 75q-82 0 -82 -92q0 -48 21.5 -66.5t60.5 -18.5z" />
    <glyph glyph-name="seven" unicode="7" horiz-adv-x="553" 
d="M30 520v170h488v-149l-236 -541h-194l227 520h-285z" />
    <glyph glyph-name="eight" unicode="8" horiz-adv-x="664" 
d="M332 -15q-147 0 -222 48t-75 158q0 148 149 178q-128 29 -128 155q0 91 75 136t201 45q125 0 200.5 -45t75.5 -136q0 -125 -132 -155q153 -30 153 -178q0 -109 -76.5 -157.5t-220.5 -48.5zM332 288q-97 0 -97 -68v-19q0 -66 97 -66q41 0 69 16.5t28 49.5v19q0 68 -97 68z
M332 422q76 0 76 58v17q0 58 -76 58t-76 -58v-17q0 -58 76 -58z" />
    <glyph glyph-name="nine" unicode="9" horiz-adv-x="644" 
d="M310 146q50 0 73 31.5t23 123.5v10q-56 -63 -157 -63q-214 0 -214 216q0 117 69.5 179t208.5 62q155 0 225.5 -85.5t70.5 -275.5q0 -102 -21.5 -173t-63 -111t-95 -57.5t-125.5 -17.5q-119 0 -185.5 55.5t-70.5 141.5h199q15 -36 63 -36zM313 551q-37 0 -56 -16t-19 -58
v-28q0 -75 75 -75q82 0 82 92q0 48 -21.5 66.5t-60.5 18.5z" />
    <glyph glyph-name="colon" unicode=":" horiz-adv-x="305" 
d="M255 83q0 -98 -102 -98q-103 0 -103 98q0 97 103 97q102 0 102 -97zM255 383q0 -98 -102 -98q-103 0 -103 98q0 97 103 97q102 0 102 -97z" />
    <glyph glyph-name="semicolon" unicode=";" horiz-adv-x="305" 
d="M255 383q0 -98 -102 -98q-103 0 -103 98q0 97 103 97q102 0 102 -97zM151 180q104 0 104 -102v-74q0 -95 -39.5 -132t-133.5 -37v93q41 0 57.5 13t16.5 41v3h-6q-46 0 -73 24.5t-27 75.5q0 95 101 95z" />
    <glyph glyph-name="less" unicode="&#x3c;" 
d="M596 459l-329 -107l329 -107v-179l-532 182v208l532 181v-178z" />
    <glyph glyph-name="equal" unicode="=" 
d="M596 406h-532v170h532v-170zM596 124h-532v170h532v-170z" />
    <glyph glyph-name="greater" unicode="&#x3e;" 
d="M64 244l329 107l-329 107v179l532 -182v-208l-532 -181v178z" />
    <glyph glyph-name="question" unicode="?" horiz-adv-x="624" 
d="M318 545q-83 0 -83 -66h-205q1 127 76.5 176.5t213.5 49.5q132 0 203 -50t71 -152q0 -40 -15.5 -71.5t-38 -48.5t-49.5 -33t-49.5 -27t-38 -28.5t-15.5 -39.5v-12h-178v12q0 50 18.5 85t45 52.5t52.5 29.5t44.5 25.5t18.5 31.5v17q0 28 -17.5 38.5t-53.5 10.5zM402 83
q0 -98 -102 -98q-103 0 -103 98q0 97 103 97q102 0 102 -97z" />
    <glyph glyph-name="at" unicode="@" horiz-adv-x="1120" 
d="M499 12q-195 0 -195 243q0 239 195 239q94 0 139 -69v49h159v-247q0 -45 12 -59.5t41 -14.5q60 0 60 104v62q0 262 -350 262q-81 0 -142 -14.5t-109.5 -47t-73.5 -90.5t-25 -141v-64q0 -71 19.5 -124.5t51 -85.5t78 -51.5t94 -26.5t106.5 -7q57 0 121.5 10t97.5 31v-121
q-35 -20 -96 -32t-123 -12q-509 0 -509 449q0 227 131.5 339t378.5 112q246 0 378 -105t132 -306q0 -138 -61.5 -210t-175.5 -72q-149 0 -177 97q-39 -97 -157 -97zM556 147q39 0 55.5 17.5t16.5 60.5v54q0 44 -16.5 62t-56.5 18q-38 0 -54.5 -18.5t-16.5 -61.5v-54
q0 -43 16.5 -60.5t55.5 -17.5z" />
    <glyph glyph-name="A" unicode="A" horiz-adv-x="736" 
d="M223 690h290l213 -690h-211l-40 132h-244l-39 -132h-182zM353 537l-77 -255h154z" />
    <glyph glyph-name="B" unicode="B" horiz-adv-x="685" 
d="M655 205q0 -99 -59 -152t-175 -53h-361v690h371q99 0 153.5 -43.5t54.5 -124.5q0 -119 -116 -157q132 -35 132 -160zM450 230q0 29 -21 45t-58 16h-116v-151h116q79 0 79 62v28zM434 496q0 25 -19 39.5t-53 14.5h-107v-131h107q72 0 72 57v20z" />
    <glyph glyph-name="C" unicode="C" horiz-adv-x="715" 
d="M363 -15q-164 0 -246 81t-82 282q0 194 83 275.5t245 81.5q147 0 228 -59t93 -195h-205q-6 55 -34.5 74.5t-81.5 19.5q-61 0 -92 -27.5t-31 -110.5v-122q0 -84 30.5 -112t92.5 -28q51 0 80 21t37 75h205q-15 -135 -95.5 -195.5t-226.5 -60.5z" />
    <glyph glyph-name="D" unicode="D" horiz-adv-x="725" 
d="M335 170q80 0 115 27t35 105v88q0 72 -36 101t-114 29h-75v-350h75zM335 0h-275v690h275q180 0 267.5 -77t87.5 -268q0 -192 -87.5 -268.5t-267.5 -76.5z" />
    <glyph glyph-name="E" unicode="E" horiz-adv-x="625" 
d="M585 0h-525v690h524v-165h-324v-90h241v-160h-241v-110h325v-165z" />
    <glyph glyph-name="F" unicode="F" horiz-adv-x="604" 
d="M260 0h-200v690h504v-170h-304v-100h221v-170h-221v-250z" />
    <glyph glyph-name="G" unicode="G" horiz-adv-x="730" 
d="M695 272q0 -145 -86.5 -216t-245.5 -71q-164 0 -246 81t-82 282q0 195 82.5 276t245.5 81q147 0 228 -58t93 -191h-205q-6 51 -35 70t-81 19q-61 0 -92 -27.5t-31 -110.5v-127q0 -81 30.5 -108t92.5 -27q64 0 94.5 22.5t35.5 74.5h-130v140h332v-110z" />
    <glyph glyph-name="H" unicode="H" horiz-adv-x="743" 
d="M683 0h-200v267h-223v-267h-200v690h200v-253h223v253h200v-690z" />
    <glyph glyph-name="I" unicode="I" horiz-adv-x="320" 
d="M260 0h-200v690h200v-690z" />
    <glyph glyph-name="J" unicode="J" horiz-adv-x="410" 
d="M150 232v458h200v-537q0 -75 -42.5 -114t-137.5 -39h-150v160h64q66 0 66 72z" />
    <glyph glyph-name="K" unicode="K" horiz-adv-x="710" 
d="M260 690v-253h35l179 253h211l-230 -329l250 -361h-231l-185 267h-29v-267h-200v690h200z" />
    <glyph glyph-name="L" unicode="L" horiz-adv-x="536" 
d="M516 0h-456v690h200v-520h256v-170z" />
    <glyph glyph-name="M" unicode="M" horiz-adv-x="928" 
d="M385 690l91 -395l92 395h300v-690h-200v522l-105 -440h-213l-105 440v-522h-185v690h325z" />
    <glyph glyph-name="N" unicode="N" horiz-adv-x="766" 
d="M335 690l186 -434v434h185v-690h-275l-186 433v-433h-185v690h275z" />
    <glyph glyph-name="O" unicode="O" horiz-adv-x="780" 
d="M745 355q0 -106 -23 -178.5t-70 -114.5t-110 -59.5t-152 -17.5t-152 17.5t-110 59.5t-70 114.5t-23 178.5q0 193 87.5 271.5t267.5 78.5t267.5 -78.5t87.5 -271.5zM540 297v98q0 84 -36 117t-114 33t-114 -33t-36 -117v-98q0 -90 35 -121t115 -31t115 31t35 121z" />
    <glyph glyph-name="P" unicode="P" horiz-adv-x="688" 
d="M668 447q0 -237 -243 -237h-165v-210h-200v690h365q122 0 182.5 -62.5t60.5 -180.5zM463 433v30q0 27 -16.5 44.5t-46.5 17.5h-140v-150h140q30 0 46.5 15.5t16.5 42.5z" />
    <glyph glyph-name="Q" unicode="Q" horiz-adv-x="780" 
d="M745 355q0 -193 -82 -283l71 -81l-140 -112l-99 114q-51 -8 -105 -8q-89 0 -152 17.5t-110 59.5t-70 114.5t-23 178.5q0 193 87.5 271.5t267.5 78.5t267.5 -78.5t87.5 -271.5zM540 297v98q0 84 -36 117t-114 33t-114 -33t-36 -117v-98q0 -90 35 -121t115 -31t115 31
t35 121z" />
    <glyph glyph-name="R" unicode="R" horiz-adv-x="712" 
d="M661 463q0 -145 -110 -202l121 -261h-210l-107 230h-95v-230h-200v690h341q123 0 191.5 -58.5t68.5 -168.5zM456 451v20q0 59 -68 59h-128v-140h128q68 0 68 61z" />
    <glyph glyph-name="S" unicode="S" horiz-adv-x="677" 
d="M642 221q0 -126 -76 -181t-223 -55t-225.5 56.5t-82.5 182.5h205q1 -49 26.5 -66.5t76.5 -17.5q54 0 80 14t26 53q0 24 -22 37.5t-58 19t-79 10t-85.5 16t-78.5 31.5t-58 61.5t-22 101.5q0 221 288 221q292 0 296 -221h-205q-2 39 -24.5 52.5t-66.5 13.5q-48 0 -72 -13.5
t-24 -50.5q0 -23 22.5 -36.5t58 -19.5t78.5 -11t86 -16t78.5 -30t58 -58t22.5 -94z" />
    <glyph glyph-name="T" unicode="T" horiz-adv-x="657" 
d="M637 520h-209v-520h-200v520h-208v170h617v-170z" />
    <glyph glyph-name="U" unicode="U" horiz-adv-x="730" 
d="M365 145q58 0 84 24.5t26 96.5v424h200v-424q0 -149 -77.5 -215t-232.5 -66q-154 0 -232 66t-78 215v424h200v-424q0 -72 26 -96.5t84 -24.5z" />
    <glyph glyph-name="V" unicode="V" horiz-adv-x="716" 
d="M503 0h-290l-203 690h211l152 -530l151 530h182z" />
    <glyph glyph-name="W" unicode="W" horiz-adv-x="940" 
d="M359 0h-234l-110 690h201l67 -445l100 445h193l91 -445l76 445h182l-123 -690h-256l-90 433z" />
    <glyph glyph-name="X" unicode="X" horiz-adv-x="680" 
d="M218 690l126 -197l119 197h197l-211 -345l226 -345h-213l-131 199l-122 -199h-198l216 345l-222 345h213z" />
    <glyph glyph-name="Y" unicode="Y" horiz-adv-x="705" 
d="M217 690l155 -247l139 247h189l-233 -415v-275h-200v275l-262 415h212z" />
    <glyph glyph-name="Z" unicode="Z" horiz-adv-x="637" 
d="M587 0h-537v170l305 350h-305v170h537v-170l-305 -350h305v-170z" />
    <glyph glyph-name="bracketleft" unicode="[" horiz-adv-x="455" 
d="M405 -210h-320v950h320v-150h-140v-650h140v-150z" />
    <glyph glyph-name="backslash" unicode="\" horiz-adv-x="587" 
d="M331 -95l-311 835h191l311 -835h-191z" />
    <glyph glyph-name="bracketright" unicode="]" horiz-adv-x="455" 
d="M50 740h320v-950h-320v150h140v650h-140v150z" />
    <glyph glyph-name="asciicircum" unicode="^" horiz-adv-x="515" 
d="M303 435l-45 164l-45 -164h-173l97 295h242l96 -295h-172z" />
    <glyph glyph-name="underscore" unicode="_" horiz-adv-x="580" 
d="M0 -196v142h580v-142h-580z" />
    <glyph glyph-name="a" unicode="a" horiz-adv-x="614" 
d="M35 141q0 85 55.5 126.5t171.5 47.5l112 6v21q0 33 -13 45.5t-42 12.5q-51 0 -60 -41h-205q15 171 264 171q126 0 188.5 -46t62.5 -142v-342h-189v61q-49 -76 -175 -76q-79 0 -124.5 42.5t-45.5 113.5zM289 114q85 0 85 80v20l-84 -5q-55 -3 -55 -40v-12q0 -43 54 -43z
" />
    <glyph glyph-name="b" unicode="b" horiz-adv-x="639" 
d="M240 0h-190v730h195v-262q48 62 152 62q212 0 212 -275q0 -270 -212 -270q-110 0 -157 67v-52zM327 120q44 0 63 18.5t19 61.5v121q0 40 -18.5 57t-62.5 17t-63 -15t-20 -51v-129q0 -43 19 -61.5t63 -18.5z" />
    <glyph glyph-name="c" unicode="c" horiz-adv-x="572" 
d="M547 171q-11 -93 -73 -139.5t-186 -46.5q-136 0 -197 60.5t-61 212.5q0 150 61.5 211t197.5 61q119 0 183.5 -42.5t71.5 -140.5h-200q-2 48 -56 48q-31 0 -44.5 -15.5t-13.5 -53.5v-129q0 -42 14 -59.5t44 -17.5q56 0 59 51h200z" />
    <glyph glyph-name="d" unicode="d" horiz-adv-x="639" 
d="M399 0v52q-47 -67 -157 -67q-212 0 -212 270q0 275 212 275q104 0 152 -62v262h195v-730h-190zM312 120q42 0 61.5 16.5t20.5 54.5v130q0 41 -18.5 57.5t-64.5 16.5q-44 0 -62.5 -17t-18.5 -57v-121q0 -43 19 -61.5t63 -18.5z" />
    <glyph glyph-name="e" unicode="e" horiz-adv-x="596" 
d="M295 115q73 0 76 63h195q-18 -193 -271 -193q-134 0 -199.5 63.5t-65.5 206.5q0 146 66 210.5t199 64.5q138 0 204.5 -61.5t66.5 -200.5v-35h-346v-26q0 -51 19.5 -71.5t55.5 -20.5zM371 333v1q0 66 -76 66q-75 0 -75 -66v-1h151z" />
    <glyph glyph-name="f" unicode="f" horiz-adv-x="384" 
d="M379 575h-40q-42 0 -58 -14t-16 -46h114v-155h-114v-360h-195v360h-60v155h60q0 117 48.5 166t177.5 49h83v-155z" />
    <glyph glyph-name="g" unicode="g" horiz-adv-x="639" 
d="M589 0q0 -110 -66 -162.5t-202 -52.5q-255 0 -269 171h204q7 -18 20.5 -27t44.5 -9q39 0 56 17t17 63v50q-46 -55 -142 -55q-222 0 -222 260q0 275 222 275q101 0 147 -65v50h190v-515zM312 130q42 0 61.5 16.5t20.5 54.5v128q-1 36 -20 51t-63 15t-62.5 -17t-18.5 -57
v-111q0 -43 19 -61.5t63 -18.5z" />
    <glyph glyph-name="h" unicode="h" horiz-adv-x="625" 
d="M385 0v335q0 32 -16 45t-54 13q-70 0 -70 -58v-335h-195v730h190v-288q40 88 164 88q176 0 176 -195v-335h-195z" />
    <glyph glyph-name="i" unicode="i" horiz-adv-x="295" 
d="M245 0h-195v515h195v-515zM247 665q0 -93 -99 -93t-99 93q0 92 99 92t99 -92z" />
    <glyph glyph-name="j" unicode="j" horiz-adv-x="295" 
d="M-53 -45h37q38 0 52 16t14 54v490h195v-516q0 -107 -38 -153t-144 -46h-116v155zM247 665q0 -93 -99 -93t-99 93q0 92 99 92t99 -92z" />
    <glyph glyph-name="k" unicode="k" horiz-adv-x="623" 
d="M245 0h-195v730h195v-397h26l115 182h216l-153 -244l174 -271h-235l-114 178h-29v-178z" />
    <glyph glyph-name="l" unicode="l" horiz-adv-x="295" 
d="M245 0h-195v730h195v-730z" />
    <glyph glyph-name="m" unicode="m" horiz-adv-x="920" 
d="M365 0v335q0 32 -14 45t-46 13q-60 0 -60 -58v-335h-195v515h190v-70q38 85 154 85q111 0 148 -88q40 88 167 88q166 0 166 -195v-335h-195v335q0 32 -14 45t-46 13q-57 0 -60 -52v-6v-335h-195z" />
    <glyph glyph-name="n" unicode="n" horiz-adv-x="625" 
d="M385 0v335q0 32 -16 45t-54 13q-70 0 -70 -58v-335h-195v515h190v-73q40 88 164 88q176 0 176 -195v-335h-195z" />
    <glyph glyph-name="o" unicode="o" horiz-adv-x="624" 
d="M312 -15q-148 0 -215 59t-67 214q0 153 67 212.5t215 59.5t215 -59.5t67 -212.5q0 -155 -67 -214t-215 -59zM312 120q43 0 62.5 18.5t19.5 68.5v109q0 46 -19 62.5t-63 16.5t-63 -16.5t-19 -62.5v-110q0 -49 19.5 -67.5t62.5 -18.5z" />
    <glyph glyph-name="p" unicode="p" horiz-adv-x="639" 
d="M245 -200h-195v715h190v-56q49 71 167 71q202 0 202 -275q0 -270 -202 -270q-113 0 -162 63v-248zM327 120q44 0 63 18.5t19 61.5v121q0 40 -18.5 57t-62.5 17t-63 -15t-20 -51v-129q0 -43 19 -61.5t63 -18.5z" />
    <glyph glyph-name="q" unicode="q" horiz-adv-x="639" 
d="M252 -15q-222 0 -222 270q0 275 222 275q101 0 147 -65v50h190v-715h-195v242q-46 -57 -142 -57zM312 120q42 0 61.5 16.5t20.5 54.5v130q0 41 -18.5 57.5t-64.5 16.5q-44 0 -62.5 -17t-18.5 -57v-121q0 -43 19 -61.5t63 -18.5z" />
    <glyph glyph-name="r" unicode="r" horiz-adv-x="456" 
d="M436 515v-169h-70q-68 0 -94.5 -20t-26.5 -66v-260h-195v515h190v-106q31 106 150 106h46z" />
    <glyph glyph-name="s" unicode="s" horiz-adv-x="587" 
d="M365 146q0 23 -24 34.5t-59.5 13t-77 9.5t-77 21.5t-59.5 51t-24 96.5q0 158 241 158q253 0 257 -173h-200q-1 26 -15 36t-42 10q-49 0 -49 -31q0 -21 24 -32t59.5 -13t77 -10.5t77 -22.5t59.5 -51t24 -94q0 -164 -257 -164q-263 0 -270 182h200q1 -55 71 -55q64 0 64 34
z" />
    <glyph glyph-name="t" unicode="t" horiz-adv-x="408" 
d="M10 360v155h60v150h195v-150h113v-155h-113v-135q0 -38 14.5 -54t51.5 -16h47v-155h-126q-106 0 -144 46t-38 153v161h-60z" />
    <glyph glyph-name="u" unicode="u" horiz-adv-x="625" 
d="M240 515v-335q0 -32 16 -45t54 -13q70 0 70 58v335h195v-515h-190v72q-39 -87 -164 -87q-89 0 -132.5 45t-43.5 150v335h195z" />
    <glyph glyph-name="v" unicode="v" horiz-adv-x="566" 
d="M166 0l-161 515h190l97 -332l95 332h174l-157 -515h-238z" />
    <glyph glyph-name="w" unicode="w" horiz-adv-x="826" 
d="M482 0l-75 331l-69 -331h-212l-116 515h175l71 -346l72 346h186l75 -330l68 330h159l-116 -515h-218z" />
    <glyph glyph-name="x" unicode="x" horiz-adv-x="585" 
d="M187 260l-177 255h198l88 -128l82 128h182l-166 -255l181 -260h-198l-93 133l-85 -133h-183z" />
    <glyph glyph-name="y" unicode="y" horiz-adv-x="587" 
d="M75 -50h52q42 0 59 7t29 34l-210 524h195l104 -278l101 278h177l-210 -568q-31 -85 -77.5 -116t-137.5 -31h-82v150z" />
    <glyph glyph-name="z" unicode="z" horiz-adv-x="540" 
d="M500 0h-460v155l217 205h-212v155h438v-155l-217 -205h234v-155z" />
    <glyph glyph-name="braceleft" unicode="{" horiz-adv-x="469" 
d="M299 523v-111q0 -63 -18.5 -98t-80.5 -49q62 -11 80.5 -45t18.5 -101v-112q0 -35 10 -51t43 -16h67v-150h-117q-99 0 -139 39.5t-40 131.5v120q0 56 -17 82t-71 27v151q53 1 70.5 28.5t17.5 80.5v119q0 92 40 131.5t139 39.5h117v-150h-67q-33 0 -43 -16t-10 -51z" />
    <glyph glyph-name="bar" unicode="|" horiz-adv-x="310" 
d="M245 -200h-180v930h180v-930z" />
    <glyph glyph-name="braceright" unicode="}" horiz-adv-x="469" 
d="M170 7v111q0 63 18.5 98t80.5 49q-62 11 -80.5 45t-18.5 101v112q0 35 -10 51t-43 16h-67v150h117q99 0 139 -39.5t40 -131.5v-120q0 -56 17 -82t71 -27v-151q-53 -1 -70.5 -28.5t-17.5 -80.5v-119q0 -92 -40 -131.5t-139 -39.5h-117v150h67q33 0 43 16t10 51z" />
    <glyph glyph-name="asciitilde" unicode="~" horiz-adv-x="643" 
d="M214 490q40 0 72 -14.5t48 -31.5t34.5 -31.5t35.5 -14.5q49 0 49 88h160q0 -116 -45.5 -177.5t-136.5 -61.5q-48 0 -84 21.5t-60.5 42.5t-44.5 21q-52 0 -52 -80h-160q0 238 184 238z" />
    <glyph glyph-name="nonbreakingspace" unicode="&#xa0;" horiz-adv-x="200" 
 />
    <glyph glyph-name="cent" unicode="&#xa2;" horiz-adv-x="572" 
d="M372 -120h-170v112q-89 16 -130.5 78t-41.5 188q0 124 41.5 186t130.5 79v112h170v-111q162 -27 172 -177h-200q-2 48 -56 48q-31 0 -44.5 -15.5t-13.5 -53.5v-129q0 -42 14 -59.5t44 -17.5q56 0 59 51h200q-18 -153 -175 -179v-112z" />
    <glyph glyph-name="sterling" unicode="&#xa3;" horiz-adv-x="703" 
d="M80 254v130h45q-51 64 -51 131q0 94 76.5 142t211.5 48q270 0 282 -203h-205q-6 47 -77 47q-83 0 -83 -64v-7q0 -12 3 -22t10 -20.5t12.5 -16.5t17.5 -18l17 -17h175v-130h-128q-6 -50 -52 -84h319v-170h-603v160q61 0 102.5 22t41.5 65v7h-114z" />
    <glyph glyph-name="currency" unicode="&#xa4;" horiz-adv-x="690" 
d="M528 71l-86 85q-41 -14 -97 -14q-57 0 -98 14l-85 -85l-92 95l73 74q-24 44 -24 108t24 109l-73 74l92 94l85 -84q42 15 98 15q55 0 98 -15l85 84l92 -94l-74 -74q25 -44 25 -109q0 -61 -25 -108l74 -74zM345 271q74 0 74 77q0 79 -74 79t-74 -79q0 -77 74 -77z" />
    <glyph glyph-name="yen" unicode="&#xa5;" horiz-adv-x="735" 
d="M217 690l157 -254l157 254h199l-184 -285h86v-130h-170v-60h170v-130h-170v-85h-199v85h-170v130h170v60h-170v130h89l-177 285h212z" />
    <glyph glyph-name="brokenbar" unicode="&#xa6;" horiz-adv-x="310" 
d="M245 360h-180v370h180v-370zM245 -200h-180v370h180v-370z" />
    <glyph glyph-name="section" unicode="&#xa7;" horiz-adv-x="684" 
d="M639 294q0 -97 -84 -145q58 -48 58 -121q0 -94 -74 -142.5t-196 -48.5q-284 0 -284 200h205q0 -25 17.5 -37.5t61.5 -12.5q40 0 58 9.5t18 31.5v6q0 19 -38.5 34.5t-93.5 30.5t-110 35t-93.5 59.5t-38.5 94.5q0 97 83 144q-57 47 -57 120q0 95 72.5 144t191.5 49
q279 0 279 -200h-205q0 25 -16.5 37.5t-57.5 12.5q-37 0 -53.5 -9.5t-16.5 -31.5v-6q0 -19 38.5 -34.5t93.5 -30.5t110 -35t93.5 -59.5t38.5 -94.5zM457 266q0 16 -10 29t-34 24t-42.5 17t-58 17t-57.5 17q-28 -17 -28 -47v-7q0 -16 10 -29t33.5 -24t42.5 -17.5t57.5 -17.5
t57.5 -17q29 17 29 48v7z" />
    <glyph glyph-name="dieresis" unicode="&#xa8;" horiz-adv-x="475" 
d="M435 665q0 -43 -23 -65.5t-65 -22.5t-65.5 22.5t-23.5 65.5q0 42 23.5 64.5t65.5 22.5t65 -22.5t23 -64.5zM217 665q0 -88 -88 -88q-42 0 -65.5 22.5t-23.5 65.5q0 42 23.5 64.5t65.5 22.5t65 -22.5t23 -64.5z" />
    <glyph glyph-name="copyright" unicode="&#xa9;" horiz-adv-x="870" 
d="M604 291q-17 -132 -162 -132q-88 0 -131.5 49.5t-43.5 137.5q0 87 43.5 135.5t132.5 48.5q154 0 160 -135h-122q-1 32 -38 32q-44 0 -44 -62v-38q0 -65 43 -65q35 0 39 29h123zM820 345q0 -168 -102.5 -264t-276.5 -96q-175 0 -278 96t-103 264t103 264t278 96
q174 0 276.5 -96t102.5 -264zM441 68q132 0 206 68.5t74 208.5q0 138 -74.5 207.5t-205.5 69.5q-132 0 -207 -69.5t-75 -207.5q0 -140 74.5 -208.5t207.5 -68.5z" />
    <glyph glyph-name="ordfeminine" unicode="&#xaa;" horiz-adv-x="522" 
d="M319 591v21q0 44 -50 44q-24 0 -34.5 -8.5t-15.5 -26.5h-173q13 144 222 144q214 0 214 -153v-292h-158v52q-43 -62 -151 -62q-67 0 -105 33.5t-38 89.5q0 69 46 106.5t145 44.5zM195 466v-10q0 -36 49 -36q75 0 75 62v24l-74 -6q-50 -4 -50 -34z" />
    <glyph glyph-name="guillemotleft" unicode="&#xab;" horiz-adv-x="594" 
d="M271 325l-95 -67l95 -67v-176l-231 177v129l231 177v-173zM534 325l-95 -67l95 -67v-176l-231 177v129l231 177v-173z" />
    <glyph glyph-name="logicalnot" unicode="&#xac;" 
d="M596 154h-174v202h-358v170h532v-372z" />
    <glyph glyph-name="uni00AD" unicode="&#xad;" horiz-adv-x="420" 
d="M370 165h-320v188h320v-188z" />
    <glyph glyph-name="registered" unicode="&#xae;" horiz-adv-x="599" 
d="M539 479q0 -107 -64 -166t-175 -59t-175.5 59t-64.5 166q0 108 64.5 167t175.5 59t175 -58.5t64 -167.5zM300 309q172 0 172 170q0 171 -172 171t-172 -171q0 -170 172 -170zM406 512q0 82 -95 82h-97v-217h67v54h30h6l21 -54h70l-28 72q26 20 26 63zM330 520v-14
q0 -16 -23 -16h-26v46h26q23 0 23 -16z" />
    <glyph glyph-name="degree" unicode="&#xb0;" horiz-adv-x="496" 
d="M248 338q-99 0 -153.5 46.5t-54.5 135.5t55 137t153 48t153 -48.5t55 -136.5q0 -87 -55 -134.5t-153 -47.5zM248 451q58 0 58 69q0 72 -58 72t-58 -72q0 -69 58 -69z" />
    <glyph glyph-name="plusminus" unicode="&#xb1;" 
d="M243 254v131h-179v170h179v131h174v-131h179v-170h-179v-131h-174zM596 23h-532v170h532v-170z" />
    <glyph glyph-name="twosuperior" unicode="&#xb2;" horiz-adv-x="487" 
d="M225 701q-47 0 -50 -31h-150q8 145 197 145q202 0 202 -132q0 -42 -23 -71t-56.5 -43t-68 -24t-62.5 -22t-34 -28h244v-120h-395v75q0 51 25 87t61 53t72.5 28t61.5 22t25 25v11q0 25 -49 25z" />
    <glyph glyph-name="threesuperior" unicode="&#xb3;" horiz-adv-x="457" 
d="M231 474q51 0 51 29v8q0 26 -56 26h-43v109h42q41 0 41 21v9q0 25 -41 25q-40 0 -45 -25h-146q4 139 194 139q89 0 138.5 -30t49.5 -86q0 -78 -86 -103q102 -21 102 -98q0 -138 -201 -138q-99 0 -150.5 34t-55.5 108h150q11 -28 56 -28z" />
    <glyph glyph-name="paragraph" unicode="&#xb6;" horiz-adv-x="774" 
d="M444 -150h-170v428h-9q-112 0 -168.5 46.5t-56.5 158.5t55 159.5t164 47.5h185v-840zM714 -150h-170v840h170v-840z" />
    <glyph glyph-name="periodcentered" unicode="&#xb7;" horiz-adv-x="305" 
d="M255 284q0 -98 -102 -98q-103 0 -103 98q0 97 103 97q102 0 102 -97z" />
    <glyph glyph-name="onesuperior" unicode="&#xb9;" horiz-adv-x="346" 
d="M20 577v142l106 81h150v-425h-150v287z" />
    <glyph glyph-name="ordmasculine" unicode="&#xba;" horiz-adv-x="529" 
d="M265 310q-117 0 -176 50.5t-59 178.5q0 126 59 176t176 50t175.5 -50t58.5 -176q0 -128 -58.5 -178.5t-175.5 -50.5zM265 423q36 0 52 15.5t16 57.5v90q0 39 -15.5 52.5t-52.5 13.5t-53 -13.5t-16 -52.5v-91q0 -41 16.5 -56.5t52.5 -15.5z" />
    <glyph glyph-name="guillemotright" unicode="&#xbb;" horiz-adv-x="594" 
d="M323 188l95 67l-95 67v176l231 -177v-129l-231 -177v173zM60 188l95 67l-95 67v176l231 -177v-129l-231 -177v173z" />
    <glyph glyph-name="onequarter" unicode="&#xbc;" horiz-adv-x="1028" 
d="M20 527v142l106 81h150v-425h-150v287zM121 0l537 750h163l-537 -750h-163zM722 425h207v-242h64v-114h-64v-69h-140v69h-226v106zM694 183h95v149z" />
    <glyph glyph-name="onehalf" unicode="&#xbd;" horiz-adv-x="1068" 
d="M20 527v142l106 81h150v-425h-150v287zM121 0l537 750h163l-537 -750h-163zM805 326q-47 0 -50 -31h-150q8 145 197 145q202 0 202 -132q0 -42 -23 -71t-56.5 -43t-68 -24t-62.5 -22t-34 -28h244v-120h-395v75q0 51 25 87t61.5 53t72.5 28t61 22t25 25v11q0 25 -49 25z
" />
    <glyph glyph-name="threequarters" unicode="&#xbe;" horiz-adv-x="1120" 
d="M213 0l537 750h163l-537 -750h-163zM814 425h207v-242h64v-114h-64v-69h-140v69h-226v106zM786 183h95v149zM231 424q51 0 51 29v8q0 26 -56 26h-43v109h42q41 0 41 21v9q0 25 -41 25q-40 0 -45 -25h-146q4 139 194 139q89 0 138.5 -30t49.5 -86q0 -78 -86 -103
q102 -21 102 -98q0 -138 -201 -138q-99 0 -150.5 34t-55.5 108h150q11 -28 56 -28z" />
    <glyph glyph-name="Edieresis" unicode="&#xcb;" horiz-adv-x="625" 
d="M585 0h-525v690h524v-165h-324v-90h241v-160h-241v-110h325v-165zM538 832q0 -91 -94 -91t-94 91q0 44 24.5 67t69.5 23t69.5 -23t24.5 -67zM290 832q0 -91 -94 -91t-94 91q0 44 24.5 67t69.5 23t69.5 -23t24.5 -67z" />
    <glyph glyph-name="multiply" unicode="&#xd7;" 
d="M54 196l156 156l-156 156l120 120l156 -156l156 156l120 -120l-156 -156l156 -156l-120 -120l-156 156l-156 -156z" />
    <glyph glyph-name="edieresis" unicode="&#xeb;" horiz-adv-x="596" 
d="M295 115q73 0 76 63h195q-18 -193 -271 -193q-134 0 -199.5 63.5t-65.5 206.5q0 146 66 210.5t199 64.5q138 0 204.5 -61.5t66.5 -200.5v-35h-346v-26q0 -51 19.5 -71.5t55.5 -20.5zM371 333v1q0 66 -76 66q-75 0 -75 -66v-1h151zM495 665q0 -43 -23 -65.5t-65 -22.5
t-65.5 22.5t-23.5 65.5q0 42 23.5 64.5t65.5 22.5t65 -22.5t23 -64.5zM277 665q0 -88 -88 -88q-42 0 -65.5 22.5t-23.5 65.5q0 42 23.5 64.5t65.5 22.5t65 -22.5t23 -64.5z" />
    <glyph glyph-name="divide" unicode="&#xf7;" 
d="M431 583q0 -92 -100 -92q-101 0 -101 92q0 91 101 91q100 0 100 -91zM431 122q0 -92 -100 -92q-101 0 -101 92q0 91 101 91q100 0 100 -91zM596 267h-532v170h532v-170z" />
    <glyph glyph-name="dotlessi" unicode="&#x131;" horiz-adv-x="295" 
d="M245 0h-195v515h195v-515z" />
    <glyph glyph-name="dotlessj" unicode="&#x237;" horiz-adv-x="295" 
d="M-53 -45h37q38 0 52 16t14 54v490h195v-516q0 -107 -38 -153t-144 -46h-116v155z" />
    <glyph glyph-name="uni02BC" unicode="&#x2bc;" horiz-adv-x="305" 
d="M151 705q104 0 104 -102v-74q0 -95 -39.5 -132t-133.5 -37v93q41 0 57.5 13t16.5 41v3h-6q-46 0 -73 24.5t-27 75.5q0 95 101 95z" />
    <glyph glyph-name="dotaccent" unicode="&#x2d9;" horiz-adv-x="300" 
d="M249 665q0 -93 -99 -93t-99 93q0 92 99 92t99 -92z" />
    <glyph glyph-name="afii10023" unicode="&#x401;" horiz-adv-x="625" 
d="M585 0h-525v690h524v-165h-324v-90h241v-160h-241v-110h325v-165zM538 832q0 -91 -94 -91t-94 91q0 44 24.5 67t69.5 23t69.5 -23t24.5 -67zM290 832q0 -91 -94 -91t-94 91q0 44 24.5 67t69.5 23t69.5 -23t24.5 -67z" />
    <glyph glyph-name="afii10053" unicode="&#x404;" horiz-adv-x="715" 
d="M363 -15q-164 0 -246 81t-82 282q0 194 83 275.5t245 81.5q147 0 228 -59t93 -195h-205q-6 55 -34.5 74.5t-81.5 19.5q-57 0 -88 -23.5t-35 -93.5h216v-150h-216q1 -80 31.5 -106.5t91.5 -26.5q51 0 80 21t37 75h205q-15 -135 -95.5 -195.5t-226.5 -60.5z" />
    <glyph glyph-name="afii10055" unicode="&#x406;" horiz-adv-x="320" 
d="M260 0h-200v690h200v-690z" />
    <glyph glyph-name="afii10056" unicode="&#x407;" horiz-adv-x="320" 
d="M308 830q0 -93 -69 -93t-69 93q0 92 69 92t69 -92zM150 830q0 -93 -69 -93t-69 93q0 92 69 92t69 -92zM260 0h-200v690h200v-690z" />
    <glyph glyph-name="afii10057" unicode="&#x408;" horiz-adv-x="410" 
d="M150 232v458h200v-537q0 -75 -42.5 -114t-137.5 -39h-150v160h64q66 0 66 72z" />
    <glyph glyph-name="afii10062" unicode="&#x40e;" horiz-adv-x="716" 
d="M199 0l78 168l-272 522h209l160 -313l146 313h191l-321 -690h-191zM423 914h169q0 -91 -54 -135t-168 -44t-168 44t-54 135h169q0 -37 13 -53t40 -16q28 0 40.5 16t12.5 53z" />
    <glyph glyph-name="afii10017" unicode="&#x410;" horiz-adv-x="736" 
d="M223 690h290l213 -690h-211l-40 132h-244l-39 -132h-182zM353 537l-77 -255h154z" />
    <glyph glyph-name="afii10018" unicode="&#x411;" horiz-adv-x="695" 
d="M665 225q0 -108 -57 -166.5t-170 -58.5h-378v690h556v-165h-361v-90h183q113 0 170 -54t57 -156zM460 234q0 56 -59 56h-146v-135h146q59 0 59 54v25z" />
    <glyph glyph-name="afii10019" unicode="&#x412;" horiz-adv-x="685" 
d="M655 205q0 -99 -59 -152t-175 -53h-361v690h371q99 0 153.5 -43.5t54.5 -124.5q0 -119 -116 -157q132 -35 132 -160zM450 230q0 29 -21 45t-58 16h-116v-151h116q79 0 79 62v28zM434 496q0 25 -19 39.5t-53 14.5h-107v-131h107q72 0 72 57v20z" />
    <glyph glyph-name="afii10020" unicode="&#x413;" horiz-adv-x="583" 
d="M60 690h503v-170h-303v-520h-200v690z" />
    <glyph glyph-name="afii10021" unicode="&#x414;" horiz-adv-x="797" 
d="M5 -150v320h70q49 70 49 249v271h573v-520h90v-320h-190v150h-402v-150h-190zM497 520h-188v-101q0 -191 -38 -249h226v350z" />
    <glyph glyph-name="afii10022" unicode="&#x415;" horiz-adv-x="625" 
d="M585 0h-525v690h524v-165h-324v-90h241v-160h-241v-110h325v-165z" />
    <glyph glyph-name="afii10024" unicode="&#x416;" horiz-adv-x="1086" 
d="M642 690v-253h45l170 253h200l-216 -322l240 -368h-224l-174 267h-41v-267h-200v267h-41l-174 -267h-222l235 360l-222 330h209l169 -253h46v253h200z" />
    <glyph glyph-name="afii10025" unicode="&#x417;" horiz-adv-x="696" 
d="M360 140q53 0 77 15t24 53v15q0 57 -77 57h-117v149h117q61 0 61 52v12q0 31 -23 44t-71 13q-50 0 -76 -17t-34 -56h-205q15 117 92.5 172.5t222.5 55.5q299 0 299 -190q0 -109 -127 -150q70 -17 106.5 -58t36.5 -93q0 -229 -306 -229q-307 0 -328 234h205
q2 -44 32.5 -61.5t90.5 -17.5z" />
    <glyph glyph-name="afii10026" unicode="&#x418;" horiz-adv-x="763" 
d="M284 0h-224v690h200v-406l219 406h224v-690h-200v406z" />
    <glyph glyph-name="afii10027" unicode="&#x419;" horiz-adv-x="763" 
d="M284 0h-224v690h200v-406l219 406h224v-690h-200v406zM434 914h169q0 -91 -54 -135t-168 -44t-168 44t-54 135h169q0 -37 13 -53t40 -16q28 0 40.5 16t12.5 53z" />
    <glyph glyph-name="afii10028" unicode="&#x41a;" horiz-adv-x="710" 
d="M260 690v-253h35l179 253h211l-230 -329l250 -361h-231l-185 267h-29v-267h-200v690h200z" />
    <glyph glyph-name="afii10029" unicode="&#x41b;" horiz-adv-x="747" 
d="M687 0h-200v520h-170v-115q0 -163 -26.5 -251.5t-78.5 -121t-147 -32.5h-45v185h18q57 0 75.5 48t18.5 170v287h555v-690z" />
    <glyph glyph-name="afii10030" unicode="&#x41c;" horiz-adv-x="928" 
d="M385 690l91 -395l92 395h300v-690h-200v522l-105 -440h-213l-105 440v-522h-185v690h325z" />
    <glyph glyph-name="afii10031" unicode="&#x41d;" horiz-adv-x="743" 
d="M683 0h-200v267h-223v-267h-200v690h200v-253h223v253h200v-690z" />
    <glyph glyph-name="afii10032" unicode="&#x41e;" horiz-adv-x="780" 
d="M745 355q0 -106 -23 -178.5t-70 -114.5t-110 -59.5t-152 -17.5t-152 17.5t-110 59.5t-70 114.5t-23 178.5q0 193 87.5 271.5t267.5 78.5t267.5 -78.5t87.5 -271.5zM540 297v98q0 84 -36 117t-114 33t-114 -33t-36 -117v-98q0 -90 35 -121t115 -31t115 31t35 121z" />
    <glyph glyph-name="afii10033" unicode="&#x41f;" horiz-adv-x="733" 
d="M673 0h-200v520h-213v-520h-200v690h613v-690z" />
    <glyph glyph-name="afii10034" unicode="&#x420;" horiz-adv-x="688" 
d="M668 447q0 -237 -243 -237h-165v-210h-200v690h365q122 0 182.5 -62.5t60.5 -180.5zM463 433v30q0 27 -16.5 44.5t-46.5 17.5h-140v-150h140q30 0 46.5 15.5t16.5 42.5z" />
    <glyph glyph-name="afii10035" unicode="&#x421;" horiz-adv-x="715" 
d="M363 -15q-164 0 -246 81t-82 282q0 194 83 275.5t245 81.5q147 0 228 -59t93 -195h-205q-6 55 -34.5 74.5t-81.5 19.5q-61 0 -92 -27.5t-31 -110.5v-122q0 -84 30.5 -112t92.5 -28q51 0 80 21t37 75h205q-15 -135 -95.5 -195.5t-226.5 -60.5z" />
    <glyph glyph-name="afii10036" unicode="&#x422;" horiz-adv-x="657" 
d="M637 520h-209v-520h-200v520h-208v170h617v-170z" />
    <glyph glyph-name="afii10037" unicode="&#x423;" horiz-adv-x="716" 
d="M199 0l78 168l-272 522h209l160 -313l146 313h191l-321 -690h-191z" />
    <glyph glyph-name="afii10038" unicode="&#x424;" horiz-adv-x="933" 
d="M567 89v-104h-200v104q-168 3 -252.5 66.5t-84.5 208.5q0 149 83.5 210.5t253.5 64.5v66h200v-66q170 -3 253 -64.5t83 -210.5q0 -145 -84 -208.5t-252 -66.5zM367 242v244q-73 -1 -102.5 -24.5t-29.5 -77.5v-40q0 -60 26.5 -80t105.5 -22zM567 486v-244q77 2 104 22
t27 80v40q0 56 -28 78.5t-103 23.5z" />
    <glyph glyph-name="afii10039" unicode="&#x425;" horiz-adv-x="680" 
d="M218 690l126 -197l119 197h197l-211 -345l226 -345h-213l-131 199l-122 -199h-198l216 345l-222 345h213z" />
    <glyph glyph-name="afii10040" unicode="&#x426;" horiz-adv-x="773" 
d="M60 690h200v-520h213v520h200v-520h90v-320h-190v150h-513v690z" />
    <glyph glyph-name="afii10041" unicode="&#x427;" horiz-adv-x="728" 
d="M663 690v-690h-200v238q-62 -4 -119 -4q-151 1 -222.5 62.5t-71.5 201.5v192h200v-168q0 -70 25 -96t87 -26q67 0 101 3v287h200z" />
    <glyph glyph-name="afii10042" unicode="&#x428;" horiz-adv-x="1046" 
d="M786 690h200v-690h-926v690h200v-520h163v520h200v-520h163v520z" />
    <glyph glyph-name="afii10043" unicode="&#x429;" horiz-adv-x="1086" 
d="M786 690h200v-520h90v-320h-190v150h-826v690h200v-520h163v520h200v-520h163v520z" />
    <glyph glyph-name="afii10044" unicode="&#x42a;" horiz-adv-x="788" 
d="M768 251q0 -121 -62 -186t-186 -65h-360v520h-140v170h340v-189h160q124 0 186 -64t62 -186zM563 270q0 30 -18 48t-50 18h-135v-171h135q30 0 49 20.5t19 46.5v38z" />
    <glyph glyph-name="afii10045" unicode="&#x42b;" horiz-adv-x="990" 
d="M668 251q0 -121 -62 -186t-186 -65h-360v690h200v-189h160q124 0 186 -64t62 -186zM463 270q0 30 -18 48t-50 18h-135v-171h135q30 0 49 20.5t19 46.5v38zM930 0h-200v690h200v-690z" />
    <glyph glyph-name="afii10046" unicode="&#x42c;" horiz-adv-x="688" 
d="M668 251q0 -121 -62 -186t-186 -65h-360v690h200v-189h160q124 0 186 -64t62 -186zM463 270q0 30 -18 48t-50 18h-135v-171h135q30 0 49 20.5t19 46.5v38z" />
    <glyph glyph-name="afii10047" unicode="&#x42d;" horiz-adv-x="715" 
d="M352 -15q-146 0 -226.5 60.5t-95.5 195.5h205q8 -54 37 -75t80 -21q60 0 91 26.5t32 106.5h-216v150h215q-3 70 -33.5 93.5t-88.5 23.5q-53 0 -81.5 -19.5t-34.5 -74.5h-205q12 136 93 195t228 59q162 0 245 -81.5t83 -275.5q0 -201 -82 -282t-246 -81z" />
    <glyph glyph-name="afii10048" unicode="&#x42e;" horiz-adv-x="1070" 
d="M1035 348q0 -104 -22.5 -175t-68 -112t-107 -58.5t-147.5 -17.5q-160 0 -244 65.5t-98 227.5h-88v-278h-200v690h200v-252h90q19 146 102.5 206.5t237.5 60.5q175 0 260 -79.5t85 -277.5zM830 292v108q0 81 -34 113t-106 32t-106 -32t-34 -113v-108q0 -87 33 -117
t107 -30t107 30t33 117z" />
    <glyph glyph-name="afii10049" unicode="&#x42f;" horiz-adv-x="712" 
d="M51 458q0 109 66 170.5t194 61.5h341v-690h-200v225h-96l-106 -225h-210l121 258q-110 57 -110 200zM256 471v-22q0 -31 18.5 -49t49.5 -18h128v148h-128q-30 0 -49 -15.5t-19 -43.5z" />
    <glyph glyph-name="afii10065" unicode="&#x430;" horiz-adv-x="614" 
d="M35 141q0 85 55.5 126.5t171.5 47.5l112 6v21q0 33 -13 45.5t-42 12.5q-51 0 -60 -41h-205q15 171 264 171q126 0 188.5 -46t62.5 -142v-342h-189v61q-49 -76 -175 -76q-79 0 -124.5 42.5t-45.5 113.5zM289 114q85 0 85 80v20l-84 -5q-55 -3 -55 -40v-12q0 -43 54 -43z
" />
    <glyph glyph-name="afii10066" unicode="&#x431;" horiz-adv-x="624" 
d="M30 318q0 101 13 172t38 117t68 72.5t94.5 37.5t127.5 13q138 3 180 10v-166q-45 -8 -172 -9q-109 -2 -145 -29.5t-40 -117.5q60 87 184 87q111 0 163.5 -60t52.5 -197q0 -140 -68.5 -201.5t-213.5 -61.5q-98 0 -157.5 28t-92 102t-32.5 203zM312 120q47 0 64.5 17.5
t17.5 74.5v66q0 56 -18 74t-64 18t-64 -18t-18 -74v-66q0 -57 17.5 -74.5t64.5 -17.5z" />
    <glyph glyph-name="afii10067" unicode="&#x432;" horiz-adv-x="612" 
d="M582 144q0 -144 -192 -144h-340v515h293q119 0 170.5 -33t51.5 -100q0 -90 -131 -113q148 -20 148 -125zM382 162v15q0 41 -55 41h-87v-98h87q55 0 55 42zM368 359q0 36 -47 36h-81v-84h81q47 0 47 37v11z" />
    <glyph glyph-name="afii10068" unicode="&#x433;" horiz-adv-x="478" 
d="M50 515h408v-155h-213v-360h-195v515z" />
    <glyph glyph-name="afii10069" unicode="&#x434;" horiz-adv-x="688" 
d="M5 -140v295h57q30 50 30 193v167h506v-360h80v-295h-185v140h-303v-140h-185zM403 360h-131v-12q0 -136 -26 -193h157v205z" />
    <glyph glyph-name="afii10070" unicode="&#x435;" horiz-adv-x="596" 
d="M295 115q73 0 76 63h195q-18 -193 -271 -193q-134 0 -199.5 63.5t-65.5 206.5q0 146 66 210.5t199 64.5q138 0 204.5 -61.5t66.5 -200.5v-35h-346v-26q0 -51 19.5 -71.5t55.5 -20.5zM371 333v1q0 66 -76 66q-75 0 -75 -66v-1h151z" />
    <glyph glyph-name="afii10072" unicode="&#x436;" horiz-adv-x="857" 
d="M529 0h-198v178h-29l-94 -178h-203l142 266l-137 249h193l100 -183h28v183h198v-183h27l101 183h185l-134 -243l144 -272h-200l-94 178h-29v-178z" />
    <glyph glyph-name="afii10073" unicode="&#x437;" horiz-adv-x="613" 
d="M315 203h-79v121h69q33 0 48 8.5t15 30.5v10q0 21 -14.5 29t-45.5 8q-66 0 -75 -58h-200q8 98 79.5 138t192.5 40q263 0 263 -142q0 -83 -104 -111q114 -26 114 -122q0 -87 -67.5 -128.5t-204.5 -41.5q-126 0 -196.5 39t-84.5 137h200q14 -56 81 -56q40 0 56 10t16 34v13
q0 41 -63 41z" />
    <glyph glyph-name="afii10074" unicode="&#x438;" horiz-adv-x="650" 
d="M600 0h-195v294l-138 -294h-217v515h195v-294l138 294h217v-515z" />
    <glyph glyph-name="afii10075" unicode="&#x439;" horiz-adv-x="650" 
d="M600 0h-195v294l-138 -294h-217v515h195v-294l138 294h217v-515zM368 757h154q0 -89 -48 -132.5t-149 -43.5t-149 43.5t-48 132.5h154q0 -44 10 -60t33 -16t33 16t10 60z" />
    <glyph glyph-name="afii10076" unicode="&#x43a;" horiz-adv-x="623" 
d="M245 0h-195v515h195v-182h26l115 182h216l-153 -244l174 -271h-235l-114 178h-29v-178z" />
    <glyph glyph-name="afii10077" unicode="&#x43b;" horiz-adv-x="617" 
d="M15 0v170h15q44 0 53 18.5t9 85.5v241h475v-515h-195v360h-100v-84q0 -158 -43 -217t-175 -59h-39z" />
    <glyph glyph-name="afii10078" unicode="&#x43c;" horiz-adv-x="817" 
d="M345 515l68 -274l69 274h285v-515h-190v376l-86 -342h-180l-86 344v-378h-175v515h295z" />
    <glyph glyph-name="afii10079" unicode="&#x43d;" horiz-adv-x="630" 
d="M580 0h-195v179h-140v-179h-195v515h195v-181h140v181h195v-515z" />
    <glyph glyph-name="afii10080" unicode="&#x43e;" horiz-adv-x="624" 
d="M312 -15q-148 0 -215 59t-67 214q0 153 67 212.5t215 59.5t215 -59.5t67 -212.5q0 -155 -67 -214t-215 -59zM312 120q43 0 62.5 18.5t19.5 68.5v109q0 46 -19 62.5t-63 16.5t-63 -16.5t-19 -62.5v-110q0 -49 19.5 -67.5t62.5 -18.5z" />
    <glyph glyph-name="afii10081" unicode="&#x43f;" horiz-adv-x="620" 
d="M570 0h-195v360h-130v-360h-195v515h520v-515z" />
    <glyph glyph-name="afii10082" unicode="&#x440;" horiz-adv-x="639" 
d="M245 -200h-195v715h190v-56q49 71 167 71q202 0 202 -275q0 -270 -202 -270q-113 0 -162 63v-248zM327 120q44 0 63 18.5t19 61.5v121q0 40 -18.5 57t-62.5 17t-63 -15t-20 -51v-129q0 -43 19 -61.5t63 -18.5z" />
    <glyph glyph-name="afii10083" unicode="&#x441;" horiz-adv-x="572" 
d="M547 171q-11 -93 -73 -139.5t-186 -46.5q-136 0 -197 60.5t-61 212.5q0 150 61.5 211t197.5 61q119 0 183.5 -42.5t71.5 -140.5h-200q-2 48 -56 48q-31 0 -44.5 -15.5t-13.5 -53.5v-129q0 -42 14 -59.5t44 -17.5q56 0 59 51h200z" />
    <glyph glyph-name="afii10084" unicode="&#x442;" horiz-adv-x="547" 
d="M527 360h-156v-360h-195v360h-156v155h507v-155z" />
    <glyph glyph-name="afii10085" unicode="&#x443;" horiz-adv-x="587" 
d="M75 -50h52q42 0 59 7t29 34l-210 524h195l104 -278l101 278h177l-210 -568q-31 -85 -77.5 -116t-137.5 -31h-82v150z" />
    <glyph glyph-name="afii10086" unicode="&#x444;" horiz-adv-x="855" 
d="M30 258q0 141 74 206.5t226 65.5v200h195v-200q152 0 226 -65.5t74 -206.5q0 -142 -74 -207.5t-226 -65.5v-185h-195v185q-153 0 -226.5 65t-73.5 208zM230 202q0 -42 23 -61.5t77 -19.5v273q-57 0 -78.5 -15.5t-21.5 -62.5v-114zM525 394v-273q54 0 77 19.5t23 61.5v114
q0 47 -21.5 62.5t-78.5 15.5z" />
    <glyph glyph-name="afii10087" unicode="&#x445;" horiz-adv-x="585" 
d="M187 260l-177 255h198l88 -128l82 128h182l-166 -255l181 -260h-198l-93 133l-85 -133h-183z" />
    <glyph glyph-name="afii10088" unicode="&#x446;" 
d="M50 515h195v-360h130v360h195v-360h80v-295h-185v140h-415v515z" />
    <glyph glyph-name="afii10089" unicode="&#x447;" horiz-adv-x="605" 
d="M555 515v-515h-195v176q-37 -8 -86 -8q-120 0 -177 50.5t-57 165.5v131h195v-110q0 -49 14 -66t49 -17q37 0 62 5v188h195z" />
    <glyph glyph-name="afii10090" unicode="&#x448;" horiz-adv-x="913" 
d="M863 515v-515h-813v515h195v-360h114v360h195v-360h114v360h195z" />
    <glyph glyph-name="afii10091" unicode="&#x449;" horiz-adv-x="953" 
d="M863 515v-360h80v-295h-185v140h-708v515h195v-360h114v360h195v-360h114v360h195z" />
    <glyph glyph-name="afii10092" unicode="&#x44a;" horiz-adv-x="673" 
d="M140 0v360h-120v155h315v-135h122q94 0 145 -49t51 -140q0 -93 -50.5 -142t-145.5 -49h-317zM453 203q0 42 -47 42h-71v-110h71q47 0 47 46v22z" />
    <glyph glyph-name="afii10093" unicode="&#x44b;" horiz-adv-x="854" 
d="M50 0v515h195v-135h122q94 0 145 -49t51 -140q0 -93 -50.5 -142t-145.5 -49h-317zM363 203q0 42 -47 42h-71v-110h71q47 0 47 46v22zM804 0h-195v515h195v-515z" />
    <glyph glyph-name="afii10094" unicode="&#x44c;" horiz-adv-x="583" 
d="M50 0v515h195v-135h122q94 0 145 -49t51 -140q0 -93 -50.5 -142t-145.5 -49h-317zM363 203q0 42 -47 42h-71v-110h71q47 0 47 46v22z" />
    <glyph glyph-name="afii10095" unicode="&#x44d;" horiz-adv-x="588" 
d="M25 171h200q3 -51 70 -51q35 0 51.5 17.5t16.5 59.5v4h-132v120h132v5q0 38 -16.5 53.5t-52.5 15.5q-64 0 -66 -48h-200q6 97 74.5 140t195.5 43q137 0 198.5 -61t61.5 -212q0 -152 -61 -212t-197 -60q-131 0 -197.5 46.5t-77.5 139.5z" />
    <glyph glyph-name="afii10096" unicode="&#x44e;" horiz-adv-x="885" 
d="M578 -15q-123 0 -190.5 45t-82.5 157h-60v-187h-195v515h195v-180h61q16 107 83.5 151t188.5 44q140 0 208.5 -60t68.5 -212q0 -153 -68.5 -213t-208.5 -60zM578 120q41 0 59 18.5t18 68.5v109q0 47 -18 63t-59 16t-59 -16t-18 -63v-110q0 -49 18 -67.5t59 -18.5z" />
    <glyph glyph-name="afii10097" unicode="&#x44f;" horiz-adv-x="604" 
d="M229 0h-199l101 189q-100 37 -100 148q0 88 56.5 133t165.5 45h301v-515h-195v151h-50zM231 323q0 -19 11 -30.5t32 -11.5h85v104h-85q-20 0 -31.5 -11t-11.5 -29v-22z" />
    <glyph glyph-name="afii10071" unicode="&#x451;" horiz-adv-x="596" 
d="M295 115q73 0 76 63h195q-18 -193 -271 -193q-134 0 -199.5 63.5t-65.5 206.5q0 146 66 210.5t199 64.5q138 0 204.5 -61.5t66.5 -200.5v-35h-346v-26q0 -51 19.5 -71.5t55.5 -20.5zM371 333v1q0 66 -76 66q-75 0 -75 -66v-1h151zM495 665q0 -43 -23 -65.5t-65 -22.5
t-65.5 22.5t-23.5 65.5q0 42 23.5 64.5t65.5 22.5t65 -22.5t23 -64.5zM277 665q0 -88 -88 -88q-42 0 -65.5 22.5t-23.5 65.5q0 42 23.5 64.5t65.5 22.5t65 -22.5t23 -64.5z" />
    <glyph glyph-name="afii10101" unicode="&#x454;" horiz-adv-x="588" 
d="M363 171h200q-11 -93 -77.5 -139.5t-197.5 -46.5q-136 0 -197 60t-61 212q0 151 61.5 212t198.5 61q127 0 195.5 -43t74.5 -140h-200q-2 48 -66 48q-36 0 -52.5 -15.5t-16.5 -53.5v-5h132v-120h-132v-4q0 -42 16.5 -59.5t51.5 -17.5q67 0 70 51z" />
    <glyph glyph-name="afii10103" unicode="&#x456;" horiz-adv-x="295" 
d="M245 0h-195v515h195v-515zM247 665q0 -93 -99 -93t-99 93q0 92 99 92t99 -92z" />
    <glyph glyph-name="afii10104" unicode="&#x457;" horiz-adv-x="295" 
d="M290 665q0 -93 -68 -93q-69 0 -69 93q0 92 69 92q68 0 68 -92zM142 665q0 -93 -68 -93q-69 0 -69 93q0 92 69 92q68 0 68 -92zM245 0h-195v515h195v-515z" />
    <glyph glyph-name="afii10105" unicode="&#x458;" horiz-adv-x="295" 
d="M-53 -45h37q38 0 52 16t14 54v490h195v-516q0 -107 -38 -153t-144 -46h-116v155zM247 665q0 -93 -99 -93t-99 93q0 92 99 92t99 -92z" />
    <glyph glyph-name="afii10110" unicode="&#x45e;" horiz-adv-x="587" 
d="M75 -50h52q42 0 59 7t29 34l-210 524h195l104 -278l101 278h177l-210 -568q-31 -85 -77.5 -116t-137.5 -31h-82v150zM340 757h154q0 -89 -48 -132.5t-149 -43.5t-149 43.5t-48 132.5h154q0 -44 10 -60t33 -16t33 16t10 60z" />
    <glyph glyph-name="afii10050" unicode="&#x490;" horiz-adv-x="583" 
d="M60 690h313v150h190v-320h-303v-520h-200v690z" />
    <glyph glyph-name="afii10098" unicode="&#x491;" horiz-adv-x="478" 
d="M50 515h223v140h185v-295h-213v-360h-195v515z" />
    <glyph glyph-name="enquad" unicode="&#x2000;" horiz-adv-x="500" 
 />
    <glyph glyph-name="emquad" unicode="&#x2001;" horiz-adv-x="1000" 
 />
    <glyph glyph-name="enspace" unicode="&#x2002;" horiz-adv-x="500" 
 />
    <glyph glyph-name="emspace" unicode="&#x2003;" horiz-adv-x="1000" 
 />
    <glyph glyph-name="thirdemspace" unicode="&#x2004;" horiz-adv-x="300" 
 />
    <glyph glyph-name="quarteremspace" unicode="&#x2005;" horiz-adv-x="250" 
 />
    <glyph glyph-name="sixthemspace" unicode="&#x2006;" horiz-adv-x="100" 
 />
    <glyph glyph-name="figurespace" unicode="&#x2007;" horiz-adv-x="200" 
 />
    <glyph glyph-name="punctuationspace" unicode="&#x2008;" horiz-adv-x="210" 
 />
    <glyph glyph-name="thinspace" unicode="&#x2009;" horiz-adv-x="150" 
 />
    <glyph glyph-name="hairspace" unicode="&#x200a;" horiz-adv-x="35" 
 />
    <glyph glyph-name="zerowidthspace" unicode="&#x200b;" horiz-adv-x="0" 
 />
    <glyph glyph-name="endash" unicode="&#x2013;" 
d="M610 185h-560v148h560v-148z" />
    <glyph glyph-name="emdash" unicode="&#x2014;" horiz-adv-x="900" 
d="M830 185h-760v148h760v-148z" />
    <glyph glyph-name="quoteleft" unicode="&#x2018;" horiz-adv-x="305" 
d="M154 360q-104 0 -104 102v74q0 95 39.5 132t133.5 37v-93q-41 0 -57.5 -13t-16.5 -41v-3h6q46 0 73 -24.5t27 -75.5q0 -95 -101 -95z" />
    <glyph glyph-name="quoteright" unicode="&#x2019;" horiz-adv-x="305" 
d="M151 705q104 0 104 -102v-74q0 -95 -39.5 -132t-133.5 -37v93q41 0 57.5 13t16.5 41v3h-6q-46 0 -73 24.5t-27 75.5q0 95 101 95z" />
    <glyph glyph-name="quotesinglbase" unicode="&#x201a;" horiz-adv-x="305" 
d="M151 180q104 0 104 -102v-74q0 -95 -39.5 -132t-133.5 -37v93q41 0 57.5 13t16.5 41v3h-6q-46 0 -73 24.5t-27 75.5q0 95 101 95z" />
    <glyph glyph-name="quotedblleft" unicode="&#x201c;" horiz-adv-x="563" 
d="M412 360q-104 0 -104 102v74q0 95 39.5 132t133.5 37v-93q-41 0 -57.5 -13t-16.5 -41v-3h6q46 0 73 -24.5t27 -75.5q0 -95 -101 -95zM154 360q-104 0 -104 102v74q0 95 39.5 132t133.5 37v-93q-41 0 -57.5 -13t-16.5 -41v-3h6q46 0 73 -24.5t27 -75.5q0 -95 -101 -95z
" />
    <glyph glyph-name="quotedblright" unicode="&#x201d;" horiz-adv-x="563" 
d="M151 705q104 0 104 -102v-74q0 -95 -39.5 -132t-133.5 -37v93q41 0 57.5 13t16.5 41v3h-6q-46 0 -73 24.5t-27 75.5q0 95 101 95zM409 705q104 0 104 -102v-74q0 -95 -39.5 -132t-133.5 -37v93q41 0 57.5 13t16.5 41v3h-6q-46 0 -73 24.5t-27 75.5q0 95 101 95z" />
    <glyph glyph-name="quotedblbase" unicode="&#x201e;" horiz-adv-x="563" 
d="M151 180q104 0 104 -102v-74q0 -95 -39.5 -132t-133.5 -37v93q41 0 57.5 13t16.5 41v3h-6q-46 0 -73 24.5t-27 75.5q0 95 101 95zM409 180q104 0 104 -102v-74q0 -95 -39.5 -132t-133.5 -37v93q41 0 57.5 13t16.5 41v3h-6q-46 0 -73 24.5t-27 75.5q0 95 101 95z" />
    <glyph glyph-name="bullet" unicode="&#x2022;" horiz-adv-x="457" 
d="M377 359q0 -143 -148 -143q-149 0 -149 143q0 142 149 142q148 0 148 -142z" />
    <glyph glyph-name="ellipsis" unicode="&#x2026;" horiz-adv-x="841" 
d="M255 83q0 -98 -102 -98q-103 0 -103 98q0 97 103 97q102 0 102 -97zM523 83q0 -98 -102 -98q-103 0 -103 98q0 97 103 97q102 0 102 -97zM791 83q0 -98 -102 -98q-103 0 -103 98q0 97 103 97q102 0 102 -97z" />
    <glyph glyph-name="nonbreakingspace.narrow" unicode="&#x202f;" horiz-adv-x="100" 
 />
    <glyph glyph-name="perthousand" unicode="&#x2030;" horiz-adv-x="1506" 
d="M1265 -15q-96 0 -154.5 49t-58.5 149q0 99 59 148.5t154 49.5t153.5 -49.5t58.5 -148.5q0 -100 -58.5 -149t-153.5 -49zM1265 110q34 0 48 12t14 51v20q0 37 -14.5 49.5t-47.5 12.5t-48 -12.5t-15 -49.5v-20q0 -39 14.5 -51t48.5 -12zM838 690l-458 -690h-167l454 690
h171zM243 309q-96 0 -154.5 49t-58.5 149q0 99 59 148.5t154 49.5t153.5 -49.5t58.5 -148.5q0 -100 -58.5 -149t-153.5 -49zM243 434q34 0 48 12t14 51v20q0 37 -14.5 49.5t-47.5 12.5t-48 -12.5t-15 -49.5v-20q0 -39 14.5 -51t48.5 -12zM812 -15q-96 0 -154.5 49t-58.5 149
q0 99 59 148.5t154 49.5t153.5 -49.5t58.5 -148.5q0 -100 -58.5 -149t-153.5 -49zM812 110q34 0 48 12t14 51v20q0 37 -14.5 49.5t-47.5 12.5t-48 -12.5t-15 -49.5v-20q0 -39 14.5 -51t48.5 -12z" />
    <glyph glyph-name="minute" unicode="&#x2032;" horiz-adv-x="315" 
d="M96 690h174l-67 -256h-158z" />
    <glyph glyph-name="second" unicode="&#x2033;" horiz-adv-x="550" 
d="M96 690h174l-67 -256h-158zM331 690h174l-67 -256h-158z" />
    <glyph glyph-name="guilsinglleft" unicode="&#x2039;" horiz-adv-x="331" 
d="M271 325l-95 -67l95 -67v-176l-231 177v129l231 177v-173z" />
    <glyph glyph-name="guilsinglright" unicode="&#x203a;" horiz-adv-x="331" 
d="M60 188l95 67l-95 67v176l231 -177v-129l-231 -177v173z" />
    <glyph glyph-name="fraction" unicode="&#x2044;" horiz-adv-x="390" 
d="M-170 0l537 750h163l-537 -750h-163z" />
    <glyph glyph-name="mathspacemedium" unicode="&#x205f;" horiz-adv-x="180" 
 />
    <glyph glyph-name="joinerspace" unicode="&#x2060;" horiz-adv-x="0" 
 />
    <glyph glyph-name="Euro" unicode="&#x20ac;" horiz-adv-x="760" 
d="M30 365v110h73q25 123 102.5 176.5t208.5 53.5q145 0 224 -55.5t91 -182.5h-205q-8 78 -110 78q-44 0 -71 -14.5t-38 -55.5h162v-110h-170v-41h170v-110h-162q11 -40 38 -54.5t71 -14.5q48 0 76.5 18t34.5 62h205q-27 -240 -316 -240q-132 0 -209 52t-101 177h-74v110h62
v24v17h-62z" />
    <glyph glyph-name="uni20B4" unicode="&#x20b4;" horiz-adv-x="747" 
d="M371 126q75 0 91 33h205q-15 -174 -299 -174q-153 0 -224 40.5t-71 110.5q0 47 36 78h-59v110h647v-110h-382q-28 -12 -28 -36v-12q0 -40 84 -40zM373 564q-68 0 -82 -33h-205q7 85 81 129.5t208 44.5q285 0 285 -160q0 -40 -26 -71h63v-100h-647v100h368q28 11 28 34v12
q0 44 -73 44z" />
    <glyph glyph-name="uni20B8" unicode="&#x20b8;" horiz-adv-x="657" 
d="M637 370h-209v-370h-200v370h-208v130h617v-130zM637 560h-617v130h617v-130z" />
    <glyph glyph-name="uni20BD" unicode="&#x20bd;" horiz-adv-x="771" 
d="M751 473q0 -95 -54 -146t-159 -51h-201v-60h245v-130h-245v-86h-200v86h-107v130h107v60h-107v147h107v267h401q105 0 159 -57t54 -160zM546 469v10q0 44 -55 44h-154v-100h154q55 0 55 46z" />
    <glyph glyph-name="afii61352" unicode="&#x2116;" horiz-adv-x="1237" 
d="M335 690l186 -434v434h185v-690h-275l-186 433v-433h-185v690h275zM985 309q-96 0 -154.5 49t-58.5 149q0 99 59 148.5t154 49.5t153.5 -49.5t58.5 -148.5q0 -100 -58.5 -149t-153.5 -49zM792 132v132h384v-132h-384zM985 434q31 0 46.5 13.5t15.5 49.5v20q0 39 -14 50.5
t-48 11.5q-35 0 -49 -11.5t-14 -50.5v-20q0 -36 15 -49.5t48 -13.5z" />
    <glyph glyph-name="trademark" unicode="&#x2122;" horiz-adv-x="1014" 
d="M636 370l-53 175v-228h-142v373h212l55 -174l54 174h202v-373h-152v226l-54 -173h-122zM397 586h-110v-269h-152v269h-115v104h377v-104z" />
    <glyph glyph-name="onethird" unicode="&#x2153;" horiz-adv-x="1049" 
d="M823 99q51 0 51 29v8q0 26 -56 26h-43v109h42q41 0 41 21v9q0 25 -41 25q-40 0 -45 -25h-146q4 139 194 139q89 0 138.5 -30t49.5 -86q0 -78 -86 -103q102 -21 102 -98q0 -138 -201 -138q-99 0 -150.5 34t-55.5 108h150q10 -28 56 -28zM20 527v142l106 81h150v-425h-150
v287zM121 0l537 750h163l-537 -750h-163z" />
    <glyph glyph-name="twothirds" unicode="&#x2154;" horiz-adv-x="1187" 
d="M961 99q51 0 51 29v8q0 26 -56 26h-43v109h42q41 0 41 21v9q0 25 -41 25q-40 0 -45 -25h-146q4 139 194 139q89 0 138.5 -30t49.5 -86q0 -78 -86 -103q102 -21 102 -98q0 -138 -201 -138q-99 0 -150.5 34t-55.5 108h150q10 -28 56 -28zM269 0l537 750h163l-537 -750h-163
zM225 651q-47 0 -50 -31h-150q8 145 197 145q202 0 202 -132q0 -42 -23 -71t-56.5 -43t-68 -24t-62.5 -22t-34 -28h244v-120h-395v75q0 51 25 87t61 53t72.5 28t61.5 22t25 25v11q0 25 -49 25z" />
    <glyph glyph-name="oneeighth" unicode="&#x215b;" horiz-adv-x="1068" 
d="M824 -15q-102 0 -155 31.5t-53 103.5q0 80 90 105q-73 24 -73 91q0 62 52 93t139 31t139.5 -31t52.5 -93q0 -66 -75 -91q92 -25 92 -105q0 -72 -53.5 -103.5t-155.5 -31.5zM824 165q-58 0 -58 -36v-11q0 -33 58 -33q59 0 59 33v11q0 36 -59 36zM824 270q53 0 53 30v7
q0 33 -53 33q-51 0 -51 -33v-7q0 -30 51 -30zM20 527v142l106 81h150v-425h-150v287zM121 0l537 750h163l-537 -750h-163z" />
    <glyph glyph-name="threeeighths" unicode="&#x215c;" horiz-adv-x="1160" 
d="M218 0l537 750h163l-537 -750h-163zM231 424q51 0 51 29v8q0 26 -56 26h-43v109h42q41 0 41 21v9q0 25 -41 25q-40 0 -45 -25h-146q4 139 194 139q89 0 138.5 -30t49.5 -86q0 -78 -86 -103q102 -21 102 -98q0 -138 -201 -138q-99 0 -150.5 34t-55.5 108h150
q11 -28 56 -28zM916 -15q-102 0 -155 31.5t-53 103.5q0 80 90 105q-73 24 -73 91q0 62 52 93t139 31t139.5 -31t52.5 -93q0 -66 -75 -91q92 -25 92 -105q0 -72 -53.5 -103.5t-155.5 -31.5zM916 165q-58 0 -58 -36v-11q0 -33 58 -33q59 0 59 33v11q0 36 -59 36zM916 270
q53 0 53 30v7q0 33 -53 33q-51 0 -51 -33v-7q0 -30 51 -30z" />
    <glyph glyph-name="fiveeighths" unicode="&#x215d;" horiz-adv-x="1188" 
d="M251 0l537 750h163l-537 -750h-163zM944 -15q-102 0 -155 31.5t-53 103.5q0 80 90 105q-73 24 -73 91q0 62 52 93t139 31t139.5 -31t52.5 -93q0 -66 -75 -91q92 -25 92 -105q0 -72 -53.5 -103.5t-155.5 -31.5zM944 165q-58 0 -58 -36v-11q0 -33 58 -33q59 0 59 33v11
q0 36 -59 36zM944 270q53 0 53 30v7q0 33 -53 33q-51 0 -51 -33v-7q0 -30 51 -30zM230 424q47 0 47 31v11q0 37 -47 37q-38 0 -61 -20l-126 25l19 242h338v-120h-229l-5 -61q29 28 97 28q83 0 124 -35t41 -99q0 -153 -194 -153q-97 0 -148.5 35.5t-55.5 101.5h151
q8 -23 49 -23z" />
    <glyph glyph-name="seveneighths" unicode="&#x215e;" horiz-adv-x="1049" 
d="M805 -15q-102 0 -155 31.5t-53 103.5q0 80 90 105q-73 24 -73 91q0 62 52 93t139 31t139.5 -31t52.5 -93q0 -66 -75 -91q92 -25 92 -105q0 -72 -53.5 -103.5t-155.5 -31.5zM805 165q-58 0 -58 -36v-11q0 -33 58 -33q59 0 59 33v11q0 36 -59 36zM805 270q53 0 53 30v7
q0 33 -53 33q-51 0 -51 -33v-7q0 -30 51 -30zM102 0l537 750h163l-537 -750h-163zM25 630v120h359v-94l-170 -331h-150l156 305h-195z" />
    <glyph glyph-name="arrowleft" unicode="&#x2190;" horiz-adv-x="995" 
d="M925 287h-656l199 -134v-154l-398 269v156l397 272v-149l-193 -132h651v-128z" />
    <glyph glyph-name="arrowright" unicode="&#x2192;" horiz-adv-x="995" 
d="M70 413h656l-199 134v154l398 -269v-156l-397 -272v149l193 132h-651v128z" />
    <glyph glyph-name="minus" unicode="&#x2212;" 
d="M596 267h-532v170h532v-170z" />
    <glyph glyph-name="approxequal" unicode="&#x2248;" 
d="M224 580q48 0 80.5 -13t52.5 -26t39 -13q44 0 44 48h160q0 -196 -161 -196q-59 0 -108 22.5t-65 22.5q-46 0 -46 -40h-160q0 195 164 195zM224 319q48 0 80.5 -13t52.5 -26t39 -13q49 0 49 48h155q0 -196 -161 -196q-59 0 -108 22.5t-65 22.5q-46 0 -46 -40h-160
q0 195 164 195z" />
    <glyph glyph-name="notequal" unicode="&#x2260;" 
d="M269 16h-181l49 108h-73v170h150l51 112h-201v170h279l49 108h181l-49 -108h72v-170h-150l-51 -112h201v-170h-278z" />
    <glyph glyph-name="lessequal" unicode="&#x2264;" 
d="M596 228l-532 137v210l532 136v-172l-331 -69l331 -69v-173zM596 23h-532v170h532v-170z" />
    <glyph glyph-name="greaterequal" unicode="&#x2265;" 
d="M64 710l532 -137v-210l-532 -136v172l331 69l-331 69v173zM596 23h-532v170h532v-170z" />
    <glyph glyph-name="Pcircle" unicode="&#x24c5;" horiz-adv-x="870" 
d="M618 389q0 64 -33 97.5t-112 33.5h-164v-347h125v86h39q80 0 112.5 32.5t32.5 97.5zM495 401v-22q0 -27 -30 -27h-31v74h31q30 0 30 -25zM820 345q0 -168 -102.5 -264t-276.5 -96q-175 0 -278 96t-103 264t103 264t278 96q174 0 276.5 -96t102.5 -264zM441 68
q132 0 206 68.5t74 208.5q0 138 -74.5 207.5t-205.5 69.5q-132 0 -207 -69.5t-75 -207.5q0 -140 74.5 -208.5t207.5 -68.5z" />
    <glyph glyph-name="apple.icon" unicode="&#xf8ff;" horiz-adv-x="1011" 
d="M656 613q107 0 163 -81l-5 -4q-6 -4 -13.5 -10.5t-17 -16t-18.5 -22.5t-17 -28t-12.5 -35t-4.5 -42q0 -34 11 -63.5t26.5 -47.5t32.5 -31t27.5 -18t12.5 -5q-10 -49 -55 -118q-23 -33 -38 -50.5t-40 -34t-52 -16.5t-64 16t-71 16q-33 0 -72 -17t-64 -17q-24 0 -48.5 16.5
t-38.5 33.5t-41 54q-38 55 -62.5 128.5t-24.5 144.5q0 114 62.5 180.5t145.5 66.5q29 0 73.5 -18t59.5 -18q13 0 61.5 18.5t83.5 18.5zM628 681q-21 -25 -52.5 -41.5t-59.5 -16.5h-13q-1 2 -1 16q0 57 46 111q23 26 56.5 43.5t64.5 18.5q2 -4 2 -17q0 -59 -43 -114z" />
    <glyph glyph-name="zerowidthnobreak" unicode="&#xfeff;" horiz-adv-x="0" 
 />
    <glyph glyph-name="numbersign.icon" horiz-adv-x="865" 
d="M67 394l35 148h141l32 148h170l-32 -148h122l32 148h170l-32 -148h120l-35 -148h-116l-25 -117h149l-35 -148h-146l-27 -129h-170l27 129h-122l-27 -129h-170l27 129h-115l35 148h112l25 117h-145zM382 394l-25 -117h122l25 117h-122z" />
    <glyph glyph-name="dollar.tab" 
d="M417 -120h-180v113q-193 33 -200 231h205q1 -49 24 -66.5t69 -17.5q49 0 72.5 14t23.5 53q0 28 -28.5 42.5t-71 17.5t-92 13.5t-92 27t-71 61.5t-28.5 115q0 182 189 214v112h180v-112q191 -32 195 -214h-205q-2 39 -22 52.5t-59 13.5q-43 0 -64.5 -13.5t-21.5 -50.5
q0 -20 16.5 -33t43.5 -18.5t61.5 -11.5t70.5 -11t70.5 -18.5t61.5 -32.5t43.5 -55t16.5 -85q0 -203 -207 -231v-110z" />
    <glyph glyph-name="parenleft.uc" horiz-adv-x="493" 
d="M443 -134q-87 8 -152.5 38t-113.5 86t-72.5 145t-24.5 210q0 237 94 350.5t269 129.5v-154q-79 -15 -123 -82.5t-44 -173.5v-140q0 -107 44 -173.5t123 -81.5v-154z" />
    <glyph glyph-name="parenright.uc" horiz-adv-x="493" 
d="M50 825q87 -8 152.5 -38t113.5 -86t72.5 -145t24.5 -210q0 -237 -94 -350.5t-269 -129.5v154q79 15 123 82.5t44 173.5v140q0 107 -44 173.5t-123 81.5v154z" />
    <glyph glyph-name="asterisk.icon" horiz-adv-x="776" 
d="M283 690h210l-16 -199l161 111l98 -169l-188 -87l188 -89l-98 -169l-162 113l17 -201h-210l17 202l-162 -114l-98 169l187 89l-187 87l98 169l162 -111z" />
    <glyph glyph-name="hyphen.uc" horiz-adv-x="420" 
d="M370 257h-320v188h320v-188z" />
    <glyph glyph-name="slash.uc" horiz-adv-x="519" 
d="M201 -60h-191l308 810h191z" />
    <glyph glyph-name="zero.den" horiz-adv-x="466" 
d="M446 212q0 -118 -54.5 -172.5t-159.5 -54.5q-212 0 -212 227q0 228 212 228q214 0 214 -228zM296 179v69q0 78 -63 78q-34 0 -48.5 -18.5t-14.5 -59.5v-69q0 -44 14.5 -62t48.5 -18t48.5 18t14.5 62z" />
    <glyph glyph-name="zero.num" horiz-adv-x="466" 
d="M446 537q0 -118 -54.5 -172.5t-159.5 -54.5q-212 0 -212 227q0 228 212 228q214 0 214 -228zM296 504v69q0 78 -63 78q-34 0 -48.5 -18.5t-14.5 -59.5v-69q0 -44 14.5 -62t48.5 -18t48.5 18t14.5 62z" />
    <glyph glyph-name="zero.sub" horiz-adv-x="466" 
d="M446 128q0 -118 -54.5 -172.5t-159.5 -54.5q-212 0 -212 227q0 228 212 228q214 0 214 -228zM296 95v69q0 78 -63 78q-34 0 -48.5 -18.5t-14.5 -59.5v-69q0 -44 14.5 -62t48.5 -18t48.5 18t14.5 62z" />
    <glyph glyph-name="zero.sup" horiz-adv-x="466" 
d="M446 587q0 -118 -54.5 -172.5t-159.5 -54.5q-212 0 -212 227q0 228 212 228q214 0 214 -228zM296 554v69q0 78 -63 78q-34 0 -48.5 -18.5t-14.5 -59.5v-69q0 -44 14.5 -62t48.5 -18t48.5 18t14.5 62z" />
    <glyph glyph-name="zero.tab" 
d="M630 345q0 -190 -74.5 -275t-225.5 -85t-225.5 85t-74.5 275q0 187 75 273.5t225 86.5t225 -86.5t75 -273.5zM425 287v118q0 74 -20 107t-75 33t-75 -31.5t-20 -108.5v-118q0 -81 19.5 -111t75.5 -31t75.5 30t19.5 112z" />
    <glyph glyph-name="one.den" horiz-adv-x="346" 
d="M20 202v142l106 81h150v-425h-150v287z" />
    <glyph glyph-name="one.num" horiz-adv-x="346" 
d="M20 527v142l106 81h150v-425h-150v287z" />
    <glyph glyph-name="one.sub" horiz-adv-x="346" 
d="M20 118v142l106 81h150v-425h-150v287z" />
    <glyph glyph-name="one.sup" horiz-adv-x="346" 
d="M20 577v142l106 81h150v-425h-150v287z" />
    <glyph glyph-name="one.tab" 
d="M85 370v193l170 127h200v-520h160v-170h-540v170h180v333z" />
    <glyph glyph-name="two.den" horiz-adv-x="449" 
d="M225 326q-47 0 -50 -31h-150q8 145 197 145q202 0 202 -132q0 -42 -23 -71t-56.5 -43t-68 -24t-62.5 -22t-34 -28h244v-120h-395v75q0 51 25 87t61 53t72.5 28t61.5 22t25 25v11q0 25 -49 25z" />
    <glyph glyph-name="two.num" horiz-adv-x="449" 
d="M225 651q-47 0 -50 -31h-150q8 145 197 145q202 0 202 -132q0 -42 -23 -71t-56.5 -43t-68 -24t-62.5 -22t-34 -28h244v-120h-395v75q0 51 25 87t61 53t72.5 28t61.5 22t25 25v11q0 25 -49 25z" />
    <glyph glyph-name="two.sub" horiz-adv-x="449" 
d="M225 242q-47 0 -50 -31h-150q8 145 197 145q202 0 202 -132q0 -42 -23 -71t-56.5 -43t-68 -24t-62.5 -22t-34 -28h244v-120h-395v75q0 51 25 87t61 53t72.5 28t61.5 22t25 25v11q0 25 -49 25z" />
    <glyph glyph-name="two.sup" horiz-adv-x="449" 
d="M225 701q-47 0 -50 -31h-150q8 145 197 145q202 0 202 -132q0 -42 -23 -71t-56.5 -43t-68 -24t-62.5 -22t-34 -28h244v-120h-395v75q0 51 25 87t61 53t72.5 28t61.5 22t25 25v11q0 25 -49 25z" />
    <glyph glyph-name="two.tab" 
d="M328 545q-37 0 -50.5 -14.5t-17.5 -53.5h-205q4 123 73.5 175.5t199.5 52.5q138 0 204.5 -50t66.5 -165q0 -53 -22 -95.5t-55.5 -67.5t-73.5 -47t-74.5 -36t-60 -33.5t-29.5 -40.5h315v-170h-543v100q0 67 25 118t62.5 78.5t81.5 50.5t81.5 37.5t62.5 37.5t25 52v17
q0 28 -15 41t-51 13z" />
    <glyph glyph-name="three.alt" horiz-adv-x="649" 
d="M70 520v170h490v-159l-127 -112q84 -15 125 -63t41 -133q0 -121 -69 -179.5t-213 -58.5q-280 0 -292 217h213q8 -57 79 -57q49 0 72 14t23 52v22q0 63 -103 63h-74v128l119 96h-284z" />
    <glyph glyph-name="three.den" horiz-adv-x="457" 
d="M231 99q51 0 51 29v8q0 26 -56 26h-43v109h42q41 0 41 21v9q0 25 -41 25q-40 0 -45 -25h-146q4 139 194 139q89 0 138.5 -30t49.5 -86q0 -78 -86 -103q102 -21 102 -98q0 -138 -201 -138q-99 0 -150.5 34t-55.5 108h150q11 -28 56 -28z" />
    <glyph glyph-name="three.num" horiz-adv-x="457" 
d="M231 424q51 0 51 29v8q0 26 -56 26h-43v109h42q41 0 41 21v9q0 25 -41 25q-40 0 -45 -25h-146q4 139 194 139q89 0 138.5 -30t49.5 -86q0 -78 -86 -103q102 -21 102 -98q0 -138 -201 -138q-99 0 -150.5 34t-55.5 108h150q11 -28 56 -28z" />
    <glyph glyph-name="three.sub" horiz-adv-x="457" 
d="M231 15q51 0 51 29v8q0 26 -56 26h-43v109h42q41 0 41 21v9q0 25 -41 25q-40 0 -45 -25h-146q4 139 194 139q89 0 138.5 -30t49.5 -86q0 -78 -86 -103q102 -21 102 -98q0 -138 -201 -138q-99 0 -150.5 34t-55.5 108h150q11 -28 56 -28z" />
    <glyph glyph-name="three.sup" horiz-adv-x="457" 
d="M231 474q51 0 51 29v8q0 26 -56 26h-43v109h42q41 0 41 21v9q0 25 -41 25q-40 0 -45 -25h-146q4 139 194 139q89 0 138.5 -30t49.5 -86q0 -78 -86 -103q102 -21 102 -98q0 -138 -201 -138q-99 0 -150.5 34t-55.5 108h150q11 -28 56 -28z" />
    <glyph glyph-name="three.tab" 
d="M330 144q42 0 61 12t19 46v21q0 55 -78 55h-65v150h65q53 0 53 50v21q0 46 -55 46q-29 0 -44.5 -10.5t-18.5 -43.5h-211q0 214 271 214q124 0 192 -47t68 -135q0 -122 -119 -158q144 -33 144 -163q0 -218 -282 -218q-143 0 -217.5 51t-74.5 167h213q-1 -29 19.5 -43.5
t59.5 -14.5z" />
    <glyph glyph-name="three.tab.alt" 
d="M79 520v170h490v-159l-127 -112q84 -15 125 -63t41 -133q0 -121 -69 -179.5t-213 -58.5q-280 0 -292 217h213q8 -57 79 -57q49 0 72 14t23 52v22q0 63 -103 63h-74v128l119 96h-284z" />
    <glyph glyph-name="four.alt" horiz-adv-x="700" 
d="M570 0h-200v147h-335v147l252 396h195l-244 -383h132v154h200v-154h100v-160h-100v-147z" />
    <glyph glyph-name="four.den" horiz-adv-x="500" 
d="M194 425h207v-242h64v-114h-64v-69h-140v69h-226v106zM166 183h95v149z" />
    <glyph glyph-name="four.num" horiz-adv-x="500" 
d="M194 750h207v-242h64v-114h-64v-69h-140v69h-226v106zM166 508h95v149z" />
    <glyph glyph-name="four.sub" horiz-adv-x="500" 
d="M194 341h207v-242h64v-114h-64v-69h-140v69h-226v106zM166 99h95v149z" />
    <glyph glyph-name="four.sup" horiz-adv-x="500" 
d="M194 800h207v-242h64v-114h-64v-69h-140v69h-226v106zM166 558h95v149z" />
    <glyph glyph-name="four.tab" 
d="M234 690h311v-385h85v-158h-85v-147h-200v147h-315v147zM212 305h133v257z" />
    <glyph glyph-name="four.tab.alt" 
d="M540 0h-195v147h-310v147l204 396h197l-198 -383h107v124h195v-124h85v-160h-85v-147z" />
    <glyph glyph-name="five.den" horiz-adv-x="458" 
d="M230 99q47 0 47 31v11q0 37 -47 37q-38 0 -61 -20l-126 25l19 242h338v-120h-229l-5 -61q29 28 97 28q83 0 124 -35t41 -99q0 -153 -194 -153q-97 0 -148.5 35.5t-55.5 101.5h151q8 -23 49 -23z" />
    <glyph glyph-name="five.num" horiz-adv-x="458" 
d="M230 424q47 0 47 31v11q0 37 -47 37q-38 0 -61 -20l-126 25l19 242h338v-120h-229l-5 -61q29 28 97 28q83 0 124 -35t41 -99q0 -153 -194 -153q-97 0 -148.5 35.5t-55.5 101.5h151q8 -23 49 -23z" />
    <glyph glyph-name="five.sub" horiz-adv-x="458" 
d="M230 15q47 0 47 31v11q0 37 -47 37q-38 0 -61 -20l-126 25l19 242h338v-120h-229l-5 -61q29 28 97 28q83 0 124 -35t41 -99q0 -153 -194 -153q-97 0 -148.5 35.5t-55.5 101.5h151q8 -23 49 -23z" />
    <glyph glyph-name="five.sup" horiz-adv-x="458" 
d="M230 474q47 0 47 31v11q0 37 -47 37q-38 0 -61 -20l-126 25l19 242h338v-120h-229l-5 -61q29 28 97 28q83 0 124 -35t41 -99q0 -153 -194 -153q-97 0 -148.5 35.5t-55.5 101.5h151q8 -23 49 -23z" />
    <glyph glyph-name="five.tab" 
d="M335 145q73 0 73 73v27q0 79 -75 79q-50 0 -87 -33l-168 39l28 360h456v-170h-305l-9 -113q46 43 138 43q111 0 168 -58.5t57 -162.5q0 -122 -71.5 -183t-204.5 -61q-280 0 -287 224h211q4 -32 20.5 -48t55.5 -16z" />
    <glyph glyph-name="six.den" horiz-adv-x="467" 
d="M240 326q-37 0 -50.5 -16t-13.5 -65v-6q34 34 109 34q152 0 152 -136q0 -78 -48.5 -115t-149.5 -37q-109 0 -159 46.5t-50 166.5q0 74 16.5 124t48 74.5t65.5 34t80 9.5q85 0 132 -34.5t55 -97.5h-145q-11 18 -42 18zM234 90q52 0 52 37v12q0 40 -52 40q-54 0 -54 -43
q0 -46 54 -46z" />
    <glyph glyph-name="six.num" horiz-adv-x="467" 
d="M240 652q-37 0 -50.5 -16t-13.5 -65v-6q34 34 109 34q152 0 152 -136q0 -78 -48.5 -115t-149.5 -37q-109 0 -159 46.5t-50 166.5q0 74 16.5 124t48 74.5t65.5 34t80 9.5q85 0 132 -34.5t55 -97.5h-145q-11 18 -42 18zM234 416q52 0 52 37v12q0 40 -52 40q-54 0 -54 -43
q0 -46 54 -46z" />
    <glyph glyph-name="six.sub" horiz-adv-x="467" 
d="M240 242q-37 0 -50.5 -16t-13.5 -65v-6q34 34 109 34q152 0 152 -136q0 -78 -48.5 -115t-149.5 -37q-109 0 -159 46.5t-50 166.5q0 74 16.5 124t48 74.5t65.5 34t80 9.5q85 0 132 -34.5t55 -97.5h-145q-11 18 -42 18zM234 6q52 0 52 37v12q0 40 -52 40q-54 0 -54 -43
q0 -46 54 -46z" />
    <glyph glyph-name="six.sup" horiz-adv-x="467" 
d="M240 702q-37 0 -50.5 -16t-13.5 -65v-6q34 34 109 34q152 0 152 -136q0 -78 -48.5 -115t-149.5 -37q-109 0 -159 46.5t-50 166.5q0 74 16.5 124t48 74.5t65.5 34t80 9.5q85 0 132 -34.5t55 -97.5h-145q-11 18 -42 18zM234 466q52 0 52 37v12q0 40 -52 40q-54 0 -54 -43
q0 -46 54 -46z" />
    <glyph glyph-name="six.tab" 
d="M344 544q-50 0 -73 -31.5t-23 -123.5v-10q56 63 157 63q214 0 214 -216q0 -117 -69.5 -179t-208.5 -62q-155 0 -225.5 85.5t-70.5 275.5q0 102 21.5 173t63 111t95 57.5t125.5 17.5q119 0 185.5 -55.5t70.5 -141.5h-199q-15 36 -63 36zM341 139q37 0 56 16t19 58v28
q0 75 -75 75q-82 0 -82 -92q0 -48 21.5 -66.5t60.5 -18.5z" />
    <glyph glyph-name="seven.den" horiz-adv-x="409" 
d="M25 305v120h359v-94l-170 -331h-150l156 305h-195z" />
    <glyph glyph-name="seven.num" horiz-adv-x="409" 
d="M25 630v120h359v-94l-170 -331h-150l156 305h-195z" />
    <glyph glyph-name="seven.sub" horiz-adv-x="409" 
d="M25 221v120h359v-94l-170 -331h-150l156 305h-195z" />
    <glyph glyph-name="seven.sup" horiz-adv-x="409" 
d="M25 680v120h359v-94l-170 -331h-150l156 305h-195z" />
    <glyph glyph-name="seven.tab" 
d="M74 520v170h508v-149l-246 -541h-194l236 520h-304z" />
    <glyph glyph-name="eight.den" horiz-adv-x="467" 
d="M233 -15q-102 0 -155 31.5t-53 103.5q0 80 90 105q-73 24 -73 91q0 62 52 93t139 31t139.5 -31t52.5 -93q0 -66 -75 -91q92 -25 92 -105q0 -72 -53.5 -103.5t-155.5 -31.5zM233 165q-58 0 -58 -36v-11q0 -33 58 -33q59 0 59 33v11q0 36 -59 36zM233 270q53 0 53 30v7
q0 33 -53 33q-51 0 -51 -33v-7q0 -30 51 -30z" />
    <glyph glyph-name="eight.num" horiz-adv-x="467" 
d="M233 310q-102 0 -155 31.5t-53 103.5q0 80 90 105q-73 24 -73 91q0 62 52 93t139 31t139.5 -31t52.5 -93q0 -66 -75 -91q92 -25 92 -105q0 -72 -53.5 -103.5t-155.5 -31.5zM233 490q-58 0 -58 -36v-11q0 -33 58 -33q59 0 59 33v11q0 36 -59 36zM233 595q53 0 53 30v7
q0 33 -53 33q-51 0 -51 -33v-7q0 -30 51 -30z" />
    <glyph glyph-name="eight.sub" horiz-adv-x="467" 
d="M233 -99q-102 0 -155 31.5t-53 103.5q0 80 90 105q-73 24 -73 91q0 62 52 93t139 31t139.5 -31t52.5 -93q0 -66 -75 -91q92 -25 92 -105q0 -72 -53.5 -103.5t-155.5 -31.5zM233 81q-58 0 -58 -36v-11q0 -33 58 -33q59 0 59 33v11q0 36 -59 36zM233 186q53 0 53 30v7
q0 33 -53 33q-51 0 -51 -33v-7q0 -30 51 -30z" />
    <glyph glyph-name="eight.sup" horiz-adv-x="467" 
d="M233 360q-102 0 -155 31.5t-53 103.5q0 80 90 105q-73 24 -73 91q0 62 52 93t139 31t139.5 -31t52.5 -93q0 -66 -75 -91q92 -25 92 -105q0 -72 -53.5 -103.5t-155.5 -31.5zM233 540q-58 0 -58 -36v-11q0 -33 58 -33q59 0 59 33v11q0 36 -59 36zM233 645q53 0 53 30v7
q0 33 -53 33q-51 0 -51 -33v-7q0 -30 51 -30z" />
    <glyph glyph-name="eight.tab" 
d="M330 -15q-147 0 -222 48t-75 158q0 148 149 178q-128 29 -128 155q0 91 75 136t201 45q125 0 200.5 -45t75.5 -136q0 -125 -132 -155q153 -30 153 -178q0 -109 -76.5 -157.5t-220.5 -48.5zM330 288q-97 0 -97 -68v-19q0 -66 97 -66q41 0 69 16.5t28 49.5v19q0 68 -97 68z
M330 422q76 0 76 58v17q0 58 -76 58t-76 -58v-17q0 -58 76 -58z" />
    <glyph glyph-name="nine.den" horiz-adv-x="467" 
d="M227 99q37 0 50.5 16t13.5 65v6q-34 -34 -109 -34q-152 0 -152 136q0 78 48.5 115t149.5 37q109 0 159 -46.5t50 -166.5q0 -74 -16.5 -124t-48 -74.5t-65.5 -34t-80 -9.5q-85 0 -132 34.5t-55 97.5h145q11 -18 42 -18zM233 335q-52 0 -52 -37v-12q0 -40 52 -40
q54 0 54 43q0 46 -54 46z" />
    <glyph glyph-name="nine.num" horiz-adv-x="467" 
d="M227 424q37 0 50.5 16t13.5 65v6q-34 -34 -109 -34q-152 0 -152 136q0 78 48.5 115t149.5 37q109 0 159 -46.5t50 -166.5q0 -74 -16.5 -124t-48 -74.5t-65.5 -34t-80 -9.5q-85 0 -132 34.5t-55 97.5h145q11 -18 42 -18zM233 660q-52 0 -52 -37v-12q0 -40 52 -40
q54 0 54 43q0 46 -54 46z" />
    <glyph glyph-name="nine.sub" horiz-adv-x="467" 
d="M227 15q37 0 50.5 16t13.5 65v6q-34 -34 -109 -34q-152 0 -152 136q0 78 48.5 115t149.5 37q109 0 159 -46.5t50 -166.5q0 -74 -16.5 -124t-48 -74.5t-65.5 -34t-80 -9.5q-85 0 -132 34.5t-55 97.5h145q11 -18 42 -18zM233 251q-52 0 -52 -37v-12q0 -40 52 -40
q54 0 54 43q0 46 -54 46z" />
    <glyph glyph-name="nine.sup" horiz-adv-x="467" 
d="M227 474q37 0 50.5 16t13.5 65v6q-34 -34 -109 -34q-152 0 -152 136q0 78 48.5 115t149.5 37q109 0 159 -46.5t50 -166.5q0 -74 -16.5 -124t-48 -74.5t-65.5 -34t-80 -9.5q-85 0 -132 34.5t-55 97.5h145q11 -18 42 -18zM233 710q-52 0 -52 -37v-12q0 -40 52 -40
q54 0 54 43q0 46 -54 46z" />
    <glyph glyph-name="nine.tab" 
d="M316 162q50 0 73 31.5t23 123.5v10q-56 -63 -157 -63q-214 0 -214 216q0 117 69.5 179t208.5 62q155 0 225.5 -85.5t70.5 -275.5q0 -102 -21.5 -173t-63 -111t-95 -57.5t-125.5 -17.5q-119 0 -185.5 55.5t-70.5 141.5h199q15 -36 63 -36zM319 567q-37 0 -56 -16t-19 -58
v-28q0 -75 75 -75q82 0 82 92q0 48 -21.5 66.5t-60.5 18.5z" />
    <glyph glyph-name="at.uc" horiz-adv-x="1120" 
d="M499 109q-195 0 -195 243q0 239 195 239q94 0 139 -69v49h159v-247q0 -45 12 -59.5t41 -14.5q60 0 60 104v62q0 262 -350 262q-81 0 -142 -14.5t-109.5 -47t-73.5 -90.5t-25 -141v-64q0 -71 19.5 -124.5t51 -85.5t78 -51.5t94 -26.5t106.5 -7q57 0 121.5 10t97.5 31v-121
q-35 -20 -96 -32t-123 -12q-509 0 -509 449q0 227 131.5 339t378.5 112q246 0 378 -105t132 -306q0 -138 -61.5 -210t-175.5 -72q-149 0 -177 97q-39 -97 -157 -97zM556 244q39 0 55.5 17.5t16.5 60.5v54q0 44 -16.5 62t-56.5 18q-38 0 -54.5 -18.5t-16.5 -61.5v-54
q0 -43 16.5 -60.5t55.5 -17.5z" />
    <glyph glyph-name="bracketleft.uc" horiz-adv-x="455" 
d="M405 -128h-320v950h320v-150h-140v-650h140v-150z" />
    <glyph glyph-name="backslash.uc" horiz-adv-x="519" 
d="M318 -60l-308 810h191l308 -810h-191z" />
    <glyph glyph-name="bracketright.uc" horiz-adv-x="455" 
d="M50 822h320v-950h-320v150h140v650h-140v150z" />
    <glyph glyph-name="a.alt" horiz-adv-x="639" 
d="M399 0v49q-46 -64 -147 -64q-222 0 -222 270q0 275 222 275q101 0 147 -65v50h190v-515h-190zM312 120q42 0 61.5 16.5t20.5 54.5v138q-1 36 -20 51t-63 15t-62.5 -17t-18.5 -57v-121q0 -43 19 -61.5t63 -18.5z" />
    <glyph glyph-name="braceleft.uc" horiz-adv-x="469" 
d="M299 604v-111q0 -63 -18.5 -98t-80.5 -49q62 -11 80.5 -45t18.5 -101v-112q0 -35 10 -51t43 -16h67v-149h-117q-99 0 -139 39t-40 131v120q0 56 -17 82t-71 27v151q53 1 70.5 28.5t17.5 80.5v119q0 92 40 132t139 40h117v-151h-67q-33 0 -43 -16t-10 -51z" />
    <glyph glyph-name="bar.uc" horiz-adv-x="310" 
d="M245 -100h-180v890h180v-890z" />
    <glyph glyph-name="braceright.uc" horiz-adv-x="469" 
d="M170 89v111q0 63 18.5 98t80.5 49q-62 11 -80.5 45t-18.5 101v112q0 35 -10 51t-43 16h-67v150h117q99 0 139 -39.5t40 -131.5v-120q0 -56 17 -82t71 -27v-151q-53 -1 -70.5 -28.5t-17.5 -80.5v-119q0 -92 -40 -131.5t-139 -39.5h-117v150h67q33 0 43 16t10 51z" />
    <glyph glyph-name="cent.tab" 
d="M416 -120h-170v112q-89 16 -130.5 78t-41.5 188q0 124 41.5 186t130.5 79v112h170v-111q162 -27 172 -177h-200q-2 48 -56 48q-31 0 -44.5 -15.5t-13.5 -53.5v-129q0 -42 14 -59.5t44 -17.5q56 0 59 51h200q-18 -153 -175 -179v-112z" />
    <glyph glyph-name="sterling.tab" 
d="M79 254v130h45q-51 64 -51 131q0 94 71 142t197 48q250 0 262 -203h-205q-6 47 -57 47q-63 0 -63 -64v-7q0 -12 3 -22t10 -20.5t12.5 -16.5t17.5 -18l17 -17h175v-130h-128q-6 -50 -52 -84h279v-170h-563v160q61 0 102.5 22t41.5 65v7h-114z" />
    <glyph glyph-name="yen.tab" 
d="M232 690l107 -202l102 202h199l-142 -265h96v-130h-165v-60h165v-130h-165v-105h-199v105h-165v130h165v60h-165v130h96l-141 265h212z" />
    <glyph glyph-name="dieresis.uc" horiz-adv-x="516" 
d="M476 832q0 -91 -94 -91t-94 91q0 44 24.5 67t69.5 23t69.5 -23t24.5 -67zM228 832q0 -91 -94 -91t-94 91q0 44 24.5 67t69.5 23t69.5 -23t24.5 -67z" />
    <glyph glyph-name="guillemotleft.uc" horiz-adv-x="594" 
d="M271 418l-95 -67l95 -67v-176l-231 177v129l231 177v-173zM534 418l-95 -67l95 -67v-176l-231 177v129l231 177v-173z" />
    <glyph glyph-name="guillemotright.uc" horiz-adv-x="594" 
d="M323 281l95 67l-95 67v176l231 -177v-129l-231 -177v173zM60 281l95 67l-95 67v176l231 -177v-129l-231 -177v173z" />
    <glyph glyph-name="endash.uc" 
d="M610 277h-560v148h560v-148z" />
    <glyph glyph-name="emdash.uc" horiz-adv-x="900" 
d="M830 277h-760v148h760v-148z" />
    <glyph glyph-name="guilsinglleft.uc" horiz-adv-x="311" 
d="M271 418l-95 -67l95 -67v-176l-231 177v129l231 177v-173z" />
    <glyph glyph-name="guilsinglright.uc" horiz-adv-x="311" 
d="M60 281l95 67l-95 67v176l231 -177v-129l-231 -177v173z" />
    <glyph glyph-name="Euro.tab" 
d="M35 365v110h56q22 124 89 177t181 53q125 0 193 -55.5t80 -182.5h-185q-5 51 -26.5 69.5t-61.5 18.5q-35 0 -57.5 -16.5t-31.5 -63.5h142v-110h-147v-40h147v-110h-142q9 -47 30.5 -63.5t58.5 -16.5q39 0 60.5 19.5t28.5 70.5h185q-14 -127 -82 -183.5t-192 -56.5
q-115 0 -181.5 52t-87.5 178h-57v110h47v23v17h-47z" />
    <glyph glyph-name="uni20B4.tab" 
d="M327 126q49 0 66 33h205q-15 -174 -274 -174q-140 0 -205 40.5t-65 110.5q0 47 36 78h-49v110h577v-110h-322q-28 -12 -28 -36v-12q0 -40 59 -40zM329 564q-42 0 -57 -33h-205q7 85 74 129.5t190 44.5q260 0 260 -160q0 -40 -26 -71h53v-100h-577v100h308q28 11 28 34v12
q0 44 -48 44z" />
    <glyph glyph-name="uni20B8.tab" 
d="M619 370h-189v-370h-200v370h-188v130h577v-130zM619 560h-577v130h577v-130z" />
    <glyph glyph-name="uni20BD.tab" 
d="M645 473q0 -197 -233 -197h-120v-60h234v-130h-234v-86h-200v86h-67v130h67v60h-67v147h67v267h320q233 0 233 -217zM440 467v12q0 44 -55 44h-93v-100h93q55 0 55 44z" />
    <glyph glyph-name="cyrbreve" horiz-adv-x="514" 
d="M300 757h154q0 -89 -48 -132.5t-149 -43.5t-149 43.5t-48 132.5h154q0 -44 10 -60t33 -16t33 16t10 60z" />
    <glyph glyph-name="cyrbreve.uc" horiz-adv-x="510" 
d="M303 914h169q0 -91 -54 -135t-168 -44t-168 44t-54 135h169q0 -37 13 -53t40 -16q28 0 40.5 16t12.5 53z" />
    <glyph glyph-name="egg.icon" horiz-adv-x="1006" 
d="M836 292q0 -71 -20.5 -135t-60 -116.5t-105 -84t-147.5 -31.5q-109 0 -186.5 54.5t-112 135t-34.5 174.5q0 129 47.5 257.5t126 211.5t159.5 83t159.5 -83t126 -211t47.5 -255z" />
    <glyph glyph-name="phone1.icon" horiz-adv-x="586" 
d="M163 -15q-43 0 -99 36q-39 26 -39 47q0 17 32 55l85 104q20 24 35 24q14 0 40 -15q2 -1 13 -7.5t18 -9t15 -2.5q13 0 29 17.5t48 71.5q43 73 43 121q0 19 -33 37q-27 15 -34.5 21t-7.5 17t9 33l58 136q9 22 16 28t17 6q27 0 84 -34q36 -21 52.5 -45t16.5 -59
q0 -78 -113 -300q-62 -121 -118.5 -185.5t-93.5 -81.5q-31 -15 -73 -15z" />
    </font>
</defs>
</svg>
