<?xml version="1.0" standalone="no"?>
<!DOCTYPE svg PUBLIC "-//W3C//DTD SVG 1.1//EN" "http://www.w3.org/Graphics/SVG/1.1/DTD/svg11.dtd" >
<svg xmlns="http://www.w3.org/2000/svg" xmlns:xlink="http://www.w3.org/1999/xlink" version="1.1">
<metadata>
Created by FontForge 20170731 at Fri May 24 18:31:20 2019
 By Aleksey,,,
(c) Ilya Ruderman and Yury Ostromentsky, CSTM Fonts, 2019
</metadata>
<defs>
<font id="MTSSans-Medium" horiz-adv-x="638" >
  <font-face 
    font-family="MTS Sans Medium"
    font-weight="500"
    font-stretch="normal"
    units-per-em="1000"
    panose-1="2 0 0 0 0 0 0 0 0 0"
    ascent="800"
    descent="-200"
    x-height="504"
    cap-height="690"
    bbox="-170 -214 1315 916"
    underline-thickness="50"
    underline-position="-200"
    unicode-range="U+0020-FEFF"
  />
<missing-glyph horiz-adv-x="500" 
 />
    <glyph glyph-name="fi" unicode="fi" horiz-adv-x="571" 
d="M499 0h-123v407h-173v-407h-122v407h-64v97h64v91q0 72 33 103.5t119 31.5h266v-97h-241q-31 0 -43 -11t-12 -38v-80h296v-504z" />
    <glyph glyph-name="fl" unicode="fl" horiz-adv-x="571" 
d="M499 0h-123v407h-173v-407h-122v407h-64v97h64v85q0 75 33 108t119 33h266v-730zM203 581v-77h173v133h-118q-31 0 -43 -12.5t-12 -43.5z" />
    <glyph glyph-name=".notdef" horiz-adv-x="500" 
 />
    <glyph glyph-name=".null" horiz-adv-x="0" 
 />
    <glyph glyph-name="nonmarkingreturn" horiz-adv-x="333" 
 />
    <glyph glyph-name="space" unicode=" " horiz-adv-x="250" 
 />
    <glyph glyph-name="exclam" unicode="!" horiz-adv-x="304" 
d="M201 218h-98l-22 472h142zM228 63q0 -74 -76 -74q-75 0 -75 74q0 73 75 73q76 0 76 -73z" />
    <glyph glyph-name="quotedbl" unicode="&#x22;" horiz-adv-x="415" 
d="M161 424h-101l-6 266h113zM355 424h-101l-6 266h113z" />
    <glyph glyph-name="numbersign" unicode="#" horiz-adv-x="749" 
d="M60 422l22 98h146l36 170h106l-36 -170h157l36 170h107l-36 -170h119l-22 -98h-118l-36 -167h149l-22 -98h-148l-33 -157h-107l33 157h-157l-33 -157h-106l33 157h-117l22 98h116l36 167h-147zM313 422l-36 -167h157l36 167h-157z" />
    <glyph glyph-name="dollar" unicode="$" horiz-adv-x="641" 
d="M378 -120h-115v112q-104 11 -158 62t-59 150h132q4 -63 39.5 -89t108.5 -26q140 0 140 97q0 38 -22.5 61.5t-58 34t-79 17.5t-87 18.5t-79.5 30.5t-58.5 59t-22.5 100q0 82 53 131.5t151 59.5v112h115v-113q194 -22 203 -190h-132q-5 52 -38.5 73t-96.5 21
q-126 0 -126 -93q0 -36 22.5 -57.5t58.5 -31.5t79.5 -17.5t86.5 -19t79 -31t58.5 -60.5t22.5 -100q0 -90 -56 -140.5t-161 -59.5v-111z" />
    <glyph glyph-name="percent" unicode="%" horiz-adv-x="930" 
d="M775 690l-500 -690h-119l498 690h121zM219 324q-92 0 -140.5 49.5t-48.5 139.5q0 89 48.5 138.5t140.5 49.5t140.5 -49.5t48.5 -138.5q0 -90 -48.5 -139.5t-140.5 -49.5zM219 409q39 0 57 20t18 67v34q0 86 -75 86t-75 -86v-34q0 -48 18 -67.5t57 -19.5zM712 -12
q-93 0 -141 49t-48 139t48.5 139.5t140.5 49.5t140 -49.5t48 -139.5t-48 -139t-140 -49zM712 73q39 0 57 19.5t18 66.5v35q0 86 -75 86q-76 0 -76 -86v-35q0 -47 18.5 -66.5t57.5 -19.5z" />
    <glyph glyph-name="ampersand" unicode="&#x26;" horiz-adv-x="728" 
d="M581 130q20 -20 40 -28t55 -8h16v-94h-52q-89 0 -139 50q-85 -61 -207 -61q-133 0 -193 54t-61 140q-2 126 146 193q-70 82 -70 160q0 74 50 119.5t151 45.5q98 0 149.5 -42.5t51.5 -120.5q0 -60 -38.5 -103.5t-118.5 -80.5l132 -135q15 57 15 126h117q0 -126 -49 -211z
M298 84q86 0 134 37l-181 187q-81 -41 -81 -110v-17q0 -47 35 -72t93 -25zM241 530q0 -51 55 -110q97 43 97 109v14q0 64 -76 64t-76 -62v-15z" />
    <glyph glyph-name="quotesingle" unicode="'" horiz-adv-x="221" 
d="M161 424h-101l-6 266h113z" />
    <glyph glyph-name="parenleft" unicode="(" horiz-adv-x="417" 
d="M370 -214q-143 21 -216.5 132.5t-73.5 346.5q0 121 20 209.5t59.5 144t90.5 85.5t120 41v-101q-79 -20 -123 -96.5t-44 -197.5v-170q0 -121 44 -196.5t123 -96.5v-101z" />
    <glyph glyph-name="parenright" unicode=")" horiz-adv-x="417" 
d="M47 745q143 -21 216.5 -132.5t73.5 -346.5q0 -121 -20 -209.5t-59.5 -144t-90.5 -85.5t-120 -41v101q79 20 123 96.5t44 197.5v170q0 121 -44 196.5t-123 96.5v101z" />
    <glyph glyph-name="asterisk" unicode="*" horiz-adv-x="479" 
d="M410 466l-41 -72l-93 62l10 -113h-93l9 112l-92 -61l-41 72l103 50l-103 52l41 71l93 -62l-10 113h93l-10 -113l93 62l41 -71l-103 -52z" />
    <glyph glyph-name="plus" unicode="+" 
d="M265 99v199h-201v105h201v199h108v-199h201v-105h-201v-199h-108z" />
    <glyph glyph-name="comma" unicode="," horiz-adv-x="265" 
d="M131 136q77 0 77 -80v-55q0 -83 -30.5 -115.5t-102.5 -32.5v71q32 0 42.5 13.5t10.5 43.5v8q-71 2 -71 78q0 33 19 51t55 18z" />
    <glyph glyph-name="hyphen" unicode="-" horiz-adv-x="420" 
d="M370 198h-320v117h320v-117z" />
    <glyph glyph-name="period" unicode="." horiz-adv-x="265" 
d="M208 63q0 -74 -76 -74q-75 0 -75 74q0 73 75 73q76 0 76 -73z" />
    <glyph glyph-name="slash" unicode="/" horiz-adv-x="518" 
d="M183 -95h-118l315 835h118z" />
    <glyph glyph-name="zero" unicode="0" horiz-adv-x="655" 
d="M606 345q0 -356 -278 -356t-278 356t278 356t278 -356zM474 307v76q0 104 -33 160.5t-113 56.5t-113 -56t-33 -161v-76q0 -106 33 -161t113 -56q80 0 113 55.5t33 161.5z" />
    <glyph glyph-name="one" unicode="1" horiz-adv-x="385" 
d="M35 458v124l141 108h127v-690h-127v570z" />
    <glyph glyph-name="two" unicode="2" horiz-adv-x="574" 
d="M293 600q-53 0 -79.5 -24.5t-31.5 -85.5h-132q10 211 243 211q117 0 177.5 -48t60.5 -154q0 -70 -34.5 -118t-84.5 -74.5t-100.5 -49.5t-89 -58.5t-43.5 -86.5h352v-112h-488v63q0 63 19.5 112t51 78.5t69 52.5t75.5 40t69.5 34t51 42t19.5 58v28q0 92 -105 92z" />
    <glyph glyph-name="three" unicode="3" horiz-adv-x="606" 
d="M307 90q120 0 120 97v28q0 94 -118 94h-61v99h61q47 0 71.5 23t24.5 65v23q0 81 -98 81q-53 0 -79 -22t-29 -78h-134q8 201 242 201q107 0 168 -44.5t61 -136.5q0 -55 -30 -97t-84 -58q64 -14 100.5 -57t36.5 -109q0 -101 -64 -156t-188 -55q-128 0 -192 51t-70 167h134
q4 -61 34 -88.5t94 -27.5z" />
    <glyph glyph-name="four" unicode="4" horiz-adv-x="631" 
d="M300 690h201v-427h107v-101h-107v-162h-127v162h-343v86zM161 263h213v351z" />
    <glyph glyph-name="five" unicode="5" horiz-adv-x="600" 
d="M307 90q59 0 88.5 29t29.5 93v34q0 118 -118 118q-83 0 -118 -56l-122 24l36 358h407v-112h-305l-17 -173q52 52 148 52q105 0 163 -57t58 -170q0 -119 -65 -180t-185 -61q-250 0 -267 211h134q7 -60 39.5 -85t93.5 -25z" />
    <glyph glyph-name="six" unicode="6" horiz-adv-x="618" 
d="M321 599q-69 0 -104 -47.5t-35 -168.5v-17q55 76 171 76q102 0 160.5 -56t58.5 -164q0 -111 -66.5 -172t-189.5 -61q-138 0 -202 79t-64 271q0 105 20 177.5t58.5 112t86 56t110.5 16.5q110 0 168 -47t66 -129h-131q-15 74 -107 74zM316 89q124 0 124 118v32
q0 109 -124 109q-127 0 -127 -127q0 -70 31 -101t96 -31z" />
    <glyph glyph-name="seven" unicode="7" horiz-adv-x="512" 
d="M23 578v112h468v-86l-276 -604h-126l264 578h-330z" />
    <glyph glyph-name="eight" unicode="8" horiz-adv-x="645" 
d="M322 -11q-273 0 -273 206q0 66 36 110t99 62q-53 16 -81 54.5t-28 93.5q0 94 64.5 140t182.5 46q248 0 248 -186q0 -114 -107 -148q62 -18 97 -62t35 -110q0 -206 -273 -206zM322 312q-142 0 -142 -101v-23q0 -100 142 -100t142 100v23q0 101 -142 101zM322 407
q117 0 117 90v16q0 89 -117 89q-116 0 -116 -89v-16q0 -90 116 -90z" />
    <glyph glyph-name="nine" unicode="9" horiz-adv-x="618" 
d="M297 84q69 0 104 47.5t35 168.5v17q-55 -76 -171 -76q-102 0 -160.5 56t-58.5 164q0 111 66.5 172t189.5 61q138 0 202 -79t64 -271q0 -105 -20 -177.5t-58.5 -112t-86 -56t-110.5 -16.5q-110 0 -168 47t-66 129h131q15 -74 107 -74zM302 594q-124 0 -124 -118v-32
q0 -109 124 -109q127 0 127 127q0 70 -31 101t-96 31z" />
    <glyph glyph-name="colon" unicode=":" horiz-adv-x="265" 
d="M208 63q0 -74 -76 -74q-75 0 -75 74q0 73 75 73q76 0 76 -73zM208 392q0 -74 -76 -74q-75 0 -75 74q0 73 75 73q76 0 76 -73z" />
    <glyph glyph-name="semicolon" unicode=";" horiz-adv-x="265" 
d="M208 392q0 -74 -76 -74q-75 0 -75 74q0 73 75 73q76 0 76 -73zM131 136q77 0 77 -80v-55q0 -83 -30.5 -115.5t-102.5 -32.5v71q32 0 42.5 13.5t10.5 43.5v8q-71 2 -71 78q0 33 19 51t55 18z" />
    <glyph glyph-name="less" unicode="&#x3c;" 
d="M574 505l-389 -154l389 -153v-115l-510 207v121l510 206v-112z" />
    <glyph glyph-name="equal" unicode="=" 
d="M574 409h-510v104h510v-104zM574 187h-510v104h510v-104z" />
    <glyph glyph-name="greater" unicode="&#x3e;" 
d="M64 195l389 154l-389 153v115l510 -207v-121l-510 -206v112z" />
    <glyph glyph-name="question" unicode="?" horiz-adv-x="553" 
d="M285 600q-58 0 -88.5 -23t-34.5 -75h-132q8 199 255 199q112 0 175 -46t63 -137q0 -51 -20.5 -86t-49.5 -53.5t-58 -35t-49.5 -41.5t-20.5 -62v-22h-122v22q0 52 19.5 88.5t46.5 55.5t54.5 34t47 35.5t19.5 48.5v22q0 76 -105 76zM340 63q0 -74 -76 -74q-75 0 -75 74
q0 73 75 73q76 0 76 -73z" />
    <glyph glyph-name="at" unicode="@" horiz-adv-x="1050" 
d="M490 11q-101 0 -152.5 62.5t-51.5 177.5t51.5 177.5t152.5 62.5q93 0 141 -68v55h111v-276q0 -58 15 -78t46 -20q76 0 76 135v58q0 72 -20.5 128t-53.5 90t-80 56t-94.5 30t-102.5 8q-69 0 -128 -15t-112 -49t-83.5 -99.5t-30.5 -156.5v-66q0 -77 23 -137t58.5 -95.5
t84 -58.5t94 -31t94.5 -8q53 0 116.5 11t96.5 32v-94q-68 -41 -213 -41q-70 0 -133 11.5t-126.5 43t-109 81t-74 130.5t-28.5 186q0 116 35.5 203.5t100 140t148.5 78.5t187 26q211 0 338 -106t127 -315q0 -129 -54.5 -199t-144.5 -70q-62 0 -98 27t-46 70q-42 -97 -160 -97
zM518 102q54 0 82 33.5t28 93.5v43q0 128 -110 128t-110 -128v-43q0 -127 110 -127z" />
    <glyph glyph-name="A" unicode="A" horiz-adv-x="677" 
d="M237 690h189l237 -690h-131l-60 176h-284l-56 -176h-118zM326 604l-106 -329h218z" />
    <glyph glyph-name="B" unicode="B" horiz-adv-x="654" 
d="M609 196q0 -196 -224 -196h-303v690h292q210 0 210 -172q0 -117 -106 -155q131 -33 131 -167zM478 223q0 85 -113 85h-157v-212h157q113 0 113 89v38zM453 516q0 78 -98 78h-147v-196h147q98 0 98 85v33z" />
    <glyph glyph-name="C" unicode="C" horiz-adv-x="686" 
d="M354 -11q-304 0 -304 357q0 355 304 355q129 0 198.5 -53.5t87.5 -171.5h-132q-10 65 -47 94.5t-107 29.5q-172 0 -172 -216v-77q0 -217 172 -217q69 0 106 27.5t49 94.5h132q-17 -116 -88.5 -169.5t-198.5 -53.5z" />
    <glyph glyph-name="D" unicode="D" horiz-adv-x="689" 
d="M323 105q96 0 140 51t44 155v68q0 103 -44 154.5t-140 51.5h-114v-480h114zM323 0h-241v690h241q167 0 241.5 -85t74.5 -260q0 -172 -75 -258.5t-241 -86.5z" />
    <glyph glyph-name="E" unicode="E" horiz-adv-x="594" 
d="M547 0h-465v690h458v-103h-331v-185h253v-102h-253v-197h338v-103z" />
    <glyph glyph-name="F" unicode="F" horiz-adv-x="574" 
d="M209 0h-127v690h445v-105h-318v-194h247v-105h-247v-286z" />
    <glyph glyph-name="G" unicode="G" horiz-adv-x="706" 
d="M656 279q0 -290 -299 -290q-307 0 -307 357q0 355 307 355q131 0 203.5 -54.5t87.5 -169.5h-133q-11 65 -49.5 94t-108.5 29q-175 0 -175 -216v-79q0 -108 42.5 -161.5t132.5 -53.5q87 0 127 40.5t44 125.5h-134v96h262v-73z" />
    <glyph glyph-name="H" unicode="H" horiz-adv-x="708" 
d="M626 0h-127v298h-290v-298h-127v690h127v-287h290v287h127v-690z" />
    <glyph glyph-name="I" unicode="I" horiz-adv-x="291" 
d="M209 0h-127v690h127v-690z" />
    <glyph glyph-name="J" unicode="J" horiz-adv-x="348" 
d="M143 167v523h127v-550q0 -76 -32 -108t-117 -32h-94v102h60q31 0 43.5 16t12.5 49z" />
    <glyph glyph-name="K" unicode="K" horiz-adv-x="653" 
d="M209 690v-289h57l209 289h140l-243 -336l265 -354h-151l-220 293h-57v-293h-127v690h127z" />
    <glyph glyph-name="L" unicode="L" horiz-adv-x="536" 
d="M516 0h-434v690h127v-585h307v-105z" />
    <glyph glyph-name="M" unicode="M" horiz-adv-x="877" 
d="M292 690l152 -472l153 472h198v-690h-127v591l-159 -489h-149l-159 489v-591h-119v690h210z" />
    <glyph glyph-name="N" unicode="N" horiz-adv-x="718" 
d="M253 690l264 -528v528h119v-690h-171l-264 528v-528h-119v690h171z" />
    <glyph glyph-name="O" unicode="O" horiz-adv-x="736" 
d="M687 348q0 -184 -78.5 -271.5t-240.5 -87.5q-161 0 -239.5 87.5t-78.5 271.5q0 180 78.5 266.5t239.5 86.5t240 -86.5t79 -266.5zM555 310v70q0 220 -187 220q-96 0 -141 -55t-45 -165v-70q0 -112 44.5 -166t141.5 -54t142 54t45 166z" />
    <glyph glyph-name="P" unicode="P" horiz-adv-x="618" 
d="M584 464q0 -105 -58.5 -162t-176.5 -57h-140v-245h-127v690h267q117 0 176 -59t59 -167zM451 446v40q0 97 -114 97h-128v-231h128q114 0 114 94z" />
    <glyph glyph-name="Q" unicode="Q" horiz-adv-x="736" 
d="M687 348q0 -190 -85 -278l91 -93l-87 -79l-106 110q-60 -19 -132 -19q-161 0 -239.5 87.5t-78.5 271.5q0 180 78.5 266.5t239.5 86.5t240 -86.5t79 -266.5zM555 310v70q0 220 -187 220q-96 0 -141 -55t-45 -165v-70q0 -112 44.5 -166t141.5 -54t142 54t45 166z" />
    <glyph glyph-name="R" unicode="R" horiz-adv-x="644" 
d="M582 473q0 -148 -122 -196l144 -277h-141l-133 258h-121v-258h-127v690h260q118 0 179 -56.5t61 -160.5zM449 455v37q0 93 -115 93h-125v-221h125q115 0 115 91z" />
    <glyph glyph-name="S" unicode="S" horiz-adv-x="641" 
d="M595 191q0 -101 -69.5 -151.5t-198.5 -50.5q-136 0 -205.5 51.5t-75.5 163.5h132q4 -63 39.5 -89t108.5 -26q140 0 140 97q0 38 -22.5 61.5t-58 34t-79 17.5t-87 18.5t-79.5 30.5t-58.5 59t-22.5 100q0 93 67 143.5t188 50.5q257 0 267 -194h-132q-5 52 -38.5 73
t-96.5 21q-126 0 -126 -93q0 -36 22.5 -57.5t58.5 -31.5t79.5 -17.5t86.5 -19t79 -31t58.5 -60.5t22.5 -100z" />
    <glyph glyph-name="T" unicode="T" horiz-adv-x="596" 
d="M576 585h-215v-585h-127v585h-214v105h556v-105z" />
    <glyph glyph-name="U" unicode="U" horiz-adv-x="697" 
d="M349 90q73 0 109 35.5t36 113.5l-2 451h128v-451q0 -124 -66 -187t-205 -63q-140 0 -206 63t-66 187v451h127v-451q0 -78 36 -113.5t109 -35.5z" />
    <glyph glyph-name="V" unicode="V" horiz-adv-x="671" 
d="M432 0h-179l-239 690h130l203 -590l192 590h118z" />
    <glyph glyph-name="W" unicode="W" horiz-adv-x="931" 
d="M348 0h-171l-158 690h124l130 -575l119 575h156l126 -574l122 574h116l-148 -690h-177l-124 559z" />
    <glyph glyph-name="X" unicode="X" horiz-adv-x="661" 
d="M166 690l168 -250l161 250h130l-221 -343l234 -347h-143l-172 255l-166 -255h-130l227 347l-231 343h143z" />
    <glyph glyph-name="Y" unicode="Y" horiz-adv-x="645" 
d="M157 690l177 -279l167 279h128l-238 -390v-300h-127v300l-248 390h141z" />
    <glyph glyph-name="Z" unicode="Z" horiz-adv-x="580" 
d="M537 0h-494v105l344 480h-333v105h473v-105l-345 -480h355v-105z" />
    <glyph glyph-name="bracketleft" unicode="[" horiz-adv-x="390" 
d="M343 -210h-258v950h258v-99h-143v-752h143v-99z" />
    <glyph glyph-name="backslash" unicode="\" horiz-adv-x="518" 
d="M335 -95l-315 835h118l315 -835h-118z" />
    <glyph glyph-name="bracketright" unicode="]" horiz-adv-x="390" 
d="M47 740h258v-950h-258v99h143v752h-143v99z" />
    <glyph glyph-name="asciicircum" unicode="^" horiz-adv-x="471" 
d="M315 444l-79 190l-78 -190h-111l123 286h130l123 -286h-108z" />
    <glyph glyph-name="underscore" unicode="_" horiz-adv-x="565" 
d="M0 -144v90h565v-90h-565z" />
    <glyph glyph-name="a" unicode="a" horiz-adv-x="567" 
d="M46 137q0 76 48 113t153 47l131 12v23q0 50 -23 71.5t-69 21.5q-89 0 -98 -77h-124q5 81 61 124t160 43q216 0 216 -185v-330h-117v64q-54 -75 -165 -75q-84 0 -128.5 41t-44.5 107zM256 75q56 0 89 29.5t33 85.5v44l-120 -12q-46 -5 -67 -19.5t-21 -47.5v-21
q0 -59 86 -59z" />
    <glyph glyph-name="b" unicode="b" horiz-adv-x="614" 
d="M189 0h-117v730h122v-287q51 72 154 72q110 0 166 -68.5t56 -195.5q0 -125 -56.5 -193.5t-165.5 -68.5q-110 0 -159 79v-68zM318 80q62 0 93 35.5t31 99.5v76q0 133 -123 133q-122 0 -125 -127v-82q0 -64 31.5 -99.5t92.5 -35.5z" />
    <glyph glyph-name="c" unicode="c" horiz-adv-x="543" 
d="M503 161q-23 -172 -224 -172q-234 0 -234 263t234 263q101 0 157 -40t64 -135h-123q-8 84 -98 84q-107 0 -107 -131v-79q0 -134 107 -134q45 0 70 18.5t31 62.5h123z" />
    <glyph glyph-name="d" unicode="d" horiz-adv-x="614" 
d="M425 0v68q-50 -79 -161 -79q-108 0 -163.5 68.5t-55.5 193.5q0 127 55 195.5t164 68.5q103 0 156 -73v288h122v-730h-117zM296 80q62 0 93 35.5t31 99.5v76q0 133 -124 133t-124 -133v-76q0 -135 124 -135z" />
    <glyph glyph-name="e" unicode="e" horiz-adv-x="565" 
d="M288 79q101 0 111 84h122q-23 -174 -233 -174q-243 0 -243 262q0 264 243 264q231 0 231 -235v-26h-350v-38q0 -66 30.5 -101.5t88.5 -35.5zM287 425q-104 0 -116 -93h221q-5 47 -30 70t-75 23z" />
    <glyph glyph-name="f" unicode="f" horiz-adv-x="332" 
d="M327 633h-69q-31 0 -43 -12t-12 -41v-76h124v-97h-124v-407h-122v407h-64v97h64v84q0 77 32 109.5t116 32.5h98v-97z" />
    <glyph glyph-name="g" unicode="g" horiz-adv-x="614" 
d="M542 25q0 -236 -246 -236q-102 0 -165 42.5t-70 123.5h125q11 -75 110 -75q64 0 94 32.5t30 112.5v36q-50 -70 -151 -70q-111 0 -167.5 67.5t-56.5 192.5q0 127 56.5 195.5t167.5 68.5q105 0 156 -79v68h117v-479zM296 83q124 0 124 134v74q0 133 -124 133t-124 -133v-74
q0 -134 124 -134z" />
    <glyph glyph-name="h" unicode="h" horiz-adv-x="597" 
d="M408 0v323q0 108 -108 108q-49 0 -77.5 -26.5t-28.5 -81.5v-323h-122v730h121v-292q44 81 161 81q176 0 176 -196v-323h-122z" />
    <glyph glyph-name="i" unicode="i" horiz-adv-x="266" 
d="M194 0h-122v504h122v-504zM208 672q0 -72 -76 -72q-74 0 -74 72q0 73 74 73q76 0 76 -73z" />
    <glyph glyph-name="j" unicode="j" horiz-adv-x="266" 
d="M-33 -103h52q29 0 41 13t12 43v551h122v-566q0 -74 -29 -106t-103 -32h-95v97zM208 672q0 -72 -76 -72q-74 0 -74 72q0 73 74 73q76 0 76 -73z" />
    <glyph glyph-name="k" unicode="k" horiz-adv-x="557" 
d="M194 0h-122v730h122v-426h52l144 200h134l-173 -242l195 -262h-148l-154 207h-50v-207z" />
    <glyph glyph-name="l" unicode="l" horiz-adv-x="266" 
d="M194 0h-122v730h122v-730z" />
    <glyph glyph-name="m" unicode="m" horiz-adv-x="891" 
d="M509 323v-323h-122v323q0 108 -97 108q-96 0 -96 -108v-323h-122v504h117v-73q41 88 155 88t148 -88q49 88 167 88q86 0 125.5 -47.5t39.5 -148.5v-323h-122v323q0 108 -97 108q-96 0 -96 -108z" />
    <glyph glyph-name="n" unicode="n" horiz-adv-x="597" 
d="M408 0v323q0 108 -108 108q-106 0 -106 -108v-323h-122v504h117v-73q43 88 165 88q176 0 176 -196v-323h-122z" />
    <glyph glyph-name="o" unicode="o" horiz-adv-x="592" 
d="M296 -11q-130 0 -190.5 65t-60.5 198t60.5 198t190.5 65t190.5 -65t60.5 -198t-60.5 -198t-190.5 -65zM296 80q124 0 124 136v74q0 134 -124 134t-124 -134v-74q0 -136 124 -136z" />
    <glyph glyph-name="p" unicode="p" horiz-adv-x="614" 
d="M194 -200h-122v704h117v-70q51 81 161 81q109 0 164.5 -68.5t55.5 -195.5q0 -125 -55 -193.5t-165 -68.5q-105 0 -156 71v-260zM318 80q124 0 124 135v76q0 64 -31 98.5t-92 34.5t-92 -33t-33 -94v-82q0 -135 124 -135z" />
    <glyph glyph-name="q" unicode="q" horiz-adv-x="614" 
d="M269 -11q-111 0 -167.5 68.5t-56.5 193.5q0 126 57 195t167 69q106 0 156 -78v67h117v-704h-122v258q-51 -69 -151 -69zM296 80q121 0 124 128v89q-2 61 -33 94t-91 33q-62 0 -93 -35t-31 -98v-76q0 -135 124 -135z" />
    <glyph glyph-name="r" unicode="r" horiz-adv-x="418" 
d="M384 504v-103h-62q-69 0 -98.5 -26.5t-29.5 -86.5v-288h-122v504h117v-89q36 89 140 89h55z" />
    <glyph glyph-name="s" unicode="s" horiz-adv-x="527" 
d="M366 138q0 34 -32 50t-78 21.5t-92.5 15t-78.5 43.5t-32 96q0 69 50 110t155 41q216 0 221 -167h-123q-2 44 -27.5 61t-69.5 17q-83 0 -83 -57q0 -29 23 -46t58 -21.5t75.5 -13t75.5 -20t58 -43t23 -81.5q0 -75 -55 -115t-162 -40q-103 0 -166 42.5t-69 131.5h124
q7 -85 111 -85q94 0 94 60z" />
    <glyph glyph-name="t" unicode="t" horiz-adv-x="353" 
d="M17 407v97h64v157h122v-157h124v-97h-124v-254q0 -31 12 -43.5t41 -12.5h71v-97h-114q-73 0 -102.5 32t-29.5 106v269h-64z" />
    <glyph glyph-name="u" unicode="u" horiz-adv-x="597" 
d="M189 504v-323q0 -108 107 -108t107 108v323h122v-504h-117v73q-43 -88 -165 -88q-91 0 -133.5 47t-42.5 149v323h122z" />
    <glyph glyph-name="v" unicode="v" horiz-adv-x="537" 
d="M184 0l-164 504h128l127 -397l127 397h115l-163 -504h-170z" />
    <glyph glyph-name="w" unicode="w" horiz-adv-x="783" 
d="M474 0l-86 394l-83 -394h-157l-120 504h121l90 -387l82 387h152l84 -384l89 384h109l-120 -504h-161z" />
    <glyph glyph-name="x" unicode="x" horiz-adv-x="546" 
d="M202 253l-177 251h134l116 -166l110 166h123l-168 -251l181 -253h-135l-120 169l-116 -169h-124z" />
    <glyph glyph-name="y" unicode="y" horiz-adv-x="543" 
d="M76 -103h44q41 0 58.5 10t28.5 42l10 30l-197 525h129l131 -353l127 353h116l-207 -570q-29 -81 -62.5 -107.5t-106.5 -26.5h-71v97z" />
    <glyph glyph-name="z" unicode="z" horiz-adv-x="482" 
d="M445 0h-409v97l256 310h-251v97h387v-97l-255 -310h272v-97z" />
    <glyph glyph-name="braceleft" unicode="{" horiz-adv-x="404" 
d="M231 575v-164q0 -65 -17.5 -100.5t-74.5 -47.5q58 -8 75 -43t17 -102v-159q0 -40 11.5 -55.5t41.5 -15.5h74v-99h-117q-69 0 -96.5 31t-27.5 104v166q0 61 -15.5 88.5t-66.5 28.5v115q50 1 66 30t16 86v167q0 73 27.5 104t96.5 31h117v-100h-74q-31 0 -42 -14t-11 -51z
" />
    <glyph glyph-name="bar" unicode="|" horiz-adv-x="259" 
d="M187 -200h-115v930h115v-930z" />
    <glyph glyph-name="braceright" unicode="}" horiz-adv-x="404" 
d="M173 -46v164q0 65 17.5 100.5t74.5 47.5q-58 8 -75 43t-17 102v159q0 40 -11.5 55.5t-41.5 15.5h-74v99h117q69 0 96.5 -31t27.5 -104v-166q0 -61 15.5 -88.5t66.5 -28.5v-115q-50 -1 -66 -30t-16 -86v-167q0 -73 -27.5 -104t-96.5 -31h-117v100h74q31 0 42 14t11 51z
" />
    <glyph glyph-name="asciitilde" unicode="~" horiz-adv-x="607" 
d="M212 458q36 0 66.5 -15t47 -32.5t35.5 -32.5t36 -15q29 0 41 21t13 70h102q-3 -190 -149 -190q-37 0 -66.5 14.5t-45 32t-35 32t-38.5 14.5q-61 0 -63 -88h-101q1 94 41.5 141.5t115.5 47.5z" />
    <glyph glyph-name="nonbreakingspace" unicode="&#xa0;" horiz-adv-x="200" 
 />
    <glyph glyph-name="cent" unicode="&#xa2;" horiz-adv-x="543" 
d="M334 -120h-112v113q-177 29 -177 259t177 259v113h112v-112q152 -19 166 -172h-123q-8 84 -98 84q-107 0 -107 -131v-79q0 -134 107 -134q45 0 70 18.5t31 62.5h123q-20 -148 -169 -168v-113z" />
    <glyph glyph-name="sterling" unicode="&#xa3;" horiz-adv-x="633" 
d="M73 262v94h74q-58 82 -58 152q0 95 64 144t181 49q231 0 244 -187h-132q-9 87 -112 87q-56 0 -84.5 -22t-28.5 -74v-7q0 -21 7 -41.5t14.5 -33t23 -34.5t22.5 -33h193v-94h-160q2 -18 2 -29q0 -82 -66 -128h326v-105h-533v102q65 0 109 29.5t44 84.5v20q0 12 -3 26h-127z
" />
    <glyph glyph-name="currency" unicode="&#xa4;" horiz-adv-x="646" 
d="M500 107l-81 81q-41 -18 -96 -18t-96 18l-80 -81l-65 66l73 74q-27 40 -27 101q0 59 28 103l-74 75l64 65l81 -82q43 19 96 19q55 0 96 -18l81 81l65 -65l-75 -76q28 -44 28 -102q0 -57 -27 -100l74 -75zM323 258q88 0 88 90q0 45 -23 69t-65 24t-65 -24t-23 -69
q0 -44 23 -67t65 -23z" />
    <glyph glyph-name="yen" unicode="&#xa5;" horiz-adv-x="653" 
d="M157 690l177 -269l172 269h131l-224 -340h144v-93h-167v-64h167v-93h-167v-100h-127v100h-167v93h167v64h-167v93h144l-224 340h141z" />
    <glyph glyph-name="brokenbar" unicode="&#xa6;" horiz-adv-x="259" 
d="M187 360h-115v370h115v-370zM187 -200h-115v370h115v-370z" />
    <glyph glyph-name="section" unicode="&#xa7;" horiz-adv-x="610" 
d="M561 280q0 -95 -91 -150q66 -49 66 -122q0 -82 -58.5 -124.5t-170.5 -42.5q-231 0 -237 174h132q3 -38 25.5 -56.5t79.5 -18.5q100 0 100 57v17q0 27 -37 49t-89.5 41t-105 42.5t-89.5 64.5t-37 95q0 99 94 152q-57 47 -57 116q0 82 56 124.5t165 42.5q222 0 228 -174
h-133q-2 38 -22.5 56.5t-72.5 18.5q-91 0 -91 -57v-17q0 -27 35.5 -48.5t86 -40.5t101.5 -41.5t86.5 -63t35.5 -94.5zM437 271q0 21 -11.5 37.5t-36 30.5t-47.5 23.5t-60 24t-59 24.5q-51 -33 -51 -83v-13q0 -21 11.5 -37.5t36.5 -30.5t46.5 -23.5t60.5 -24t60 -23.5
q50 33 50 82v13z" />
    <glyph glyph-name="dieresis" unicode="&#xa8;" horiz-adv-x="477" 
d="M415 672q0 -71 -71 -71t-71 71t71 71t71 -71zM205 672q0 -71 -72 -71q-70 0 -70 71t70 71q72 0 72 -71z" />
    <glyph glyph-name="copyright" unicode="&#xa9;" horiz-adv-x="853" 
d="M591 270q-17 -123 -164 -123q-90 0 -135 52.5t-45 146.5q0 93 45 144.5t136 51.5q153 0 162 -126h-97q-6 44 -65 44q-77 0 -77 -92v-43q0 -96 76 -96q59 0 66 41h98zM796 345q0 -169 -100.5 -262.5t-266.5 -93.5q-167 0 -268 93.5t-101 262.5t101 262.5t268 93.5
q166 0 266.5 -93.5t100.5 -262.5zM429 59q134 0 210.5 72t76.5 214q0 140 -77 213t-210 73q-134 0 -211 -73t-77 -213q0 -142 76.5 -214t211.5 -72z" />
    <glyph glyph-name="ordfeminine" unicode="&#xaa;" horiz-adv-x="503" 
d="M335 585v22q0 80 -78 80q-73 0 -80 -67h-116q11 144 195 144q91 0 142 -40t51 -117v-287h-109v56q-49 -66 -145 -66q-73 0 -111.5 33.5t-38.5 91.5q0 65 43 98t137 42zM159 454v-18q0 -51 73 -51q47 0 75 25t28 73v39l-101 -10q-39 -4 -57 -17t-18 -41z" />
    <glyph glyph-name="guillemotleft" unicode="&#xab;" horiz-adv-x="519" 
d="M248 367l-129 -107l130 -108v-130l-213 184v101l212 184v-124zM476 367l-129 -107l130 -108v-130l-213 184v101l212 184v-124z" />
    <glyph glyph-name="logicalnot" unicode="&#xac;" 
d="M574 158h-108v201h-402v104h510v-305z" />
    <glyph glyph-name="uni00AD" unicode="&#xad;" horiz-adv-x="420" 
d="M370 198h-320v117h320v-117z" />
    <glyph glyph-name="registered" unicode="&#xae;" horiz-adv-x="588" 
d="M528 478q0 -108 -64 -166t-170 -58t-170 58.5t-64 165.5t64 165t170 58t170 -58t64 -165zM294 302q85 0 132 44t47 132q0 87 -47 131t-132 44t-131.5 -44t-46.5 -131q0 -88 46.5 -132t131.5 -44zM399 519q0 36 -23.5 57.5t-68.5 21.5h-100v-231h56v76h40l42 -76h59
l-46 85q41 19 41 67zM338 525v-12q0 -24 -31 -24h-44v62h44q31 0 31 -26z" />
    <glyph glyph-name="degree" unicode="&#xb0;" horiz-adv-x="460" 
d="M230 371q-86 0 -134.5 44t-48.5 120t49 121t134 45t133.5 -45.5t48.5 -120.5t-48.5 -119.5t-133.5 -44.5zM230 454q36 0 56 21t20 60q0 40 -20 61.5t-56 21.5q-76 0 -76 -83q0 -81 76 -81z" />
    <glyph glyph-name="plusminus" unicode="&#xb1;" 
d="M265 251v157h-201v105h201v157h108v-157h201v-105h-201v-157h-108zM574 82h-510v105h510v-105z" />
    <glyph glyph-name="twosuperior" unicode="&#xb2;" horiz-adv-x="408" 
d="M201 728q-59 0 -62 -51h-109q5 134 170 134q169 0 169 -129q0 -42 -21.5 -71t-53 -45t-64 -29t-58.5 -32t-31 -45h227v-85h-338v43q0 45 17 79t42.5 52.5t55 34.5t55 26t42.5 25t17 34v13q0 25 -13.5 35.5t-44.5 10.5z" />
    <glyph glyph-name="threesuperior" unicode="&#xb3;" horiz-adv-x="432" 
d="M219 446q69 0 69 46v16q0 46 -71 46h-40v82h39q56 0 56 38v14q0 41 -56 41q-57 0 -62 -41h-108q9 123 170 123q75 0 119.5 -28.5t44.5 -85.5q0 -36 -22 -62.5t-62 -36.5q48 -9 74 -35.5t26 -66.5q0 -63 -45.5 -97.5t-131.5 -34.5q-88 0 -133.5 32t-49.5 101h108
q7 -51 75 -51z" />
    <glyph glyph-name="paragraph" unicode="&#xb6;" horiz-adv-x="672" 
d="M386 -150h-112v428h-9q-112 0 -168.5 46.5t-56.5 158.5t55 159.5t164 47.5h127v-840zM590 -150h-111v840h111v-840z" />
    <glyph glyph-name="periodcentered" unicode="&#xb7;" horiz-adv-x="265" 
d="M208 264q0 -74 -76 -74q-75 0 -75 74q0 73 75 73q76 0 76 -73z" />
    <glyph glyph-name="onesuperior" unicode="&#xb9;" horiz-adv-x="313" 
d="M24 610v108l104 82h108v-425h-108v319z" />
    <glyph glyph-name="ordmasculine" unicode="&#xba;" horiz-adv-x="527" 
d="M264 309q-219 0 -219 228q0 226 219 226q218 0 218 -226q0 -228 -218 -228zM264 392q104 0 104 112v66q0 110 -104 110q-105 0 -105 -110v-66q0 -112 105 -112z" />
    <glyph glyph-name="guillemotright" unicode="&#xbb;" horiz-adv-x="519" 
d="M271 146l129 107l-130 108v130l213 -184v-101l-212 -184v124zM43 146l129 107l-130 108v130l213 -184v-101l-212 -184v124z" />
    <glyph glyph-name="onequarter" unicode="&#xbc;" horiz-adv-x="880" 
d="M24 560v108l104 82h108v-425h-108v319zM103 0l530 750h115l-530 -750h-115zM642 425h153v-260h69v-84h-69v-81h-105v81h-228v75zM564 165h126v188z" />
    <glyph glyph-name="onehalf" unicode="&#xbd;" horiz-adv-x="930" 
d="M24 560v108l104 82h108v-425h-108v319zM103 0l530 750h115l-530 -750h-115zM723 353q-59 0 -62 -51h-109q5 134 170 134q169 0 169 -129q0 -42 -21.5 -71t-53 -45t-64 -29t-58.5 -32t-31 -45h227v-85h-338v43q0 45 17 79t42.5 52.5t55 34.5t55 26t42.5 25t17 34v13
q0 25 -13.5 35.5t-44.5 10.5z" />
    <glyph glyph-name="threequarters" unicode="&#xbe;" horiz-adv-x="981" 
d="M196 0l530 750h115l-530 -750h-115zM743 425h153v-260h69v-84h-69v-81h-105v81h-228v75zM665 165h126v188zM219 396q69 0 69 46v16q0 46 -71 46h-40v82h39q56 0 56 38v14q0 41 -56 41q-57 0 -62 -41h-108q9 123 170 123q75 0 119.5 -28.5t44.5 -85.5q0 -36 -22 -62.5
t-62 -36.5q48 -9 74 -35.5t26 -66.5q0 -63 -45.5 -97.5t-131.5 -34.5q-88 0 -133.5 32t-49.5 101h108q7 -51 75 -51z" />
    <glyph glyph-name="Edieresis" unicode="&#xcb;" horiz-adv-x="594" 
d="M547 0h-465v690h458v-103h-331v-185h253v-102h-253v-197h338v-103zM499 844q0 -72 -73 -72t-73 72t73 72t73 -72zM275 844q0 -72 -73 -72t-73 72t73 72t73 -72z" />
    <glyph glyph-name="multiply" unicode="&#xd7;" 
d="M69 173l177 177l-177 178l73 73l177 -177l177 177l74 -73l-178 -178l178 -177l-74 -73l-177 177l-177 -177z" />
    <glyph glyph-name="edieresis" unicode="&#xeb;" horiz-adv-x="565" 
d="M288 79q101 0 111 84h122q-23 -174 -233 -174q-243 0 -243 262q0 264 243 264q231 0 231 -235v-26h-350v-38q0 -66 30.5 -101.5t88.5 -35.5zM287 425q-104 0 -116 -93h221q-5 47 -30 70t-75 23zM460 672q0 -71 -71 -71t-71 71t71 71t71 -71zM250 672q0 -71 -72 -71
q-70 0 -70 71t70 71q72 0 72 -71z" />
    <glyph glyph-name="divide" unicode="&#xf7;" 
d="M394 554q0 -72 -75 -72q-74 0 -74 72t74 72q75 0 75 -72zM394 147q0 -72 -75 -72q-74 0 -74 72q0 73 74 73q75 0 75 -73zM574 298h-510v105h510v-105z" />
    <glyph glyph-name="dotlessi" unicode="&#x131;" horiz-adv-x="266" 
d="M194 0h-122v504h122v-504z" />
    <glyph glyph-name="dotlessj" unicode="&#x237;" horiz-adv-x="266" 
d="M-33 -103h52q29 0 41 13t12 43v551h122v-566q0 -74 -29 -106t-103 -32h-95v97z" />
    <glyph glyph-name="uni02BC" unicode="&#x2bc;" horiz-adv-x="265" 
d="M131 701q77 0 77 -80v-55q0 -83 -30.5 -115.5t-102.5 -32.5v71q32 0 42.5 13.5t10.5 43.5v8q-71 2 -71 78q0 33 19 51t55 18z" />
    <glyph glyph-name="dotaccent" unicode="&#x2d9;" horiz-adv-x="278" 
d="M214 672q0 -72 -76 -72q-74 0 -74 72q0 73 74 73q76 0 76 -73z" />
    <glyph glyph-name="afii10023" unicode="&#x401;" horiz-adv-x="594" 
d="M547 0h-465v690h458v-103h-331v-185h253v-102h-253v-197h338v-103zM499 844q0 -72 -73 -72t-73 72t73 72t73 -72zM275 844q0 -72 -73 -72t-73 72t73 72t73 -72z" />
    <glyph glyph-name="afii10053" unicode="&#x404;" horiz-adv-x="686" 
d="M354 -11q-304 0 -304 357q0 355 304 355q129 0 198.5 -53.5t87.5 -171.5h-132q-10 65 -47 94.5t-107 29.5q-166 0 -172 -200h266v-99h-266q2 -211 172 -211q69 0 106 27.5t49 94.5h132q-17 -116 -88.5 -169.5t-198.5 -53.5z" />
    <glyph glyph-name="afii10055" unicode="&#x406;" horiz-adv-x="291" 
d="M209 0h-127v690h127v-690z" />
    <glyph glyph-name="afii10056" unicode="&#x407;" horiz-adv-x="291" 
d="M278 844q0 -73 -61 -73t-61 73q0 72 61 72t61 -72zM135 844q0 -73 -62 -73q-60 0 -60 73q0 72 60 72q62 0 62 -72zM209 0h-127v690h127v-690z" />
    <glyph glyph-name="afii10057" unicode="&#x408;" horiz-adv-x="348" 
d="M143 167v523h127v-550q0 -76 -32 -108t-117 -32h-94v102h60q31 0 43.5 16t12.5 49z" />
    <glyph glyph-name="afii10062" unicode="&#x40e;" horiz-adv-x="636" 
d="M187 0l82 184l-253 506h133l183 -367l165 367h123l-310 -690h-123zM399 901h108q0 -160 -182 -160q-183 0 -183 160h108q0 -44 17.5 -62.5t57.5 -18.5t57 18.5t17 62.5z" />
    <glyph glyph-name="afii10017" unicode="&#x410;" horiz-adv-x="677" 
d="M237 690h189l237 -690h-131l-60 176h-284l-56 -176h-118zM326 604l-106 -329h218z" />
    <glyph glyph-name="afii10018" unicode="&#x411;" horiz-adv-x="642" 
d="M590 215q0 -102 -57.5 -158.5t-173.5 -56.5h-277v690h463v-103h-337v-165h151q116 0 173.5 -54t57.5 -153zM458 232q0 89 -113 89h-137v-217h137q113 0 113 90v38z" />
    <glyph glyph-name="afii10019" unicode="&#x412;" horiz-adv-x="654" 
d="M609 196q0 -196 -224 -196h-303v690h292q210 0 210 -172q0 -117 -106 -155q131 -33 131 -167zM478 223q0 85 -113 85h-157v-212h157q113 0 113 89v38zM453 516q0 78 -98 78h-147v-196h147q98 0 98 85v33z" />
    <glyph glyph-name="afii10020" unicode="&#x413;" horiz-adv-x="530" 
d="M82 690h428v-105h-301v-585h-127v690z" />
    <glyph glyph-name="afii10021" unicode="&#x414;" horiz-adv-x="735" 
d="M9 -150v255h72q66 106 66 336v249h481v-585h90v-255h-117v150h-475v-150h-117zM501 585h-239v-144q0 -243 -56 -336h295v480z" />
    <glyph glyph-name="afii10022" unicode="&#x415;" horiz-adv-x="594" 
d="M547 0h-465v690h458v-103h-331v-185h253v-102h-253v-197h338v-103z" />
    <glyph glyph-name="afii10024" unicode="&#x416;" horiz-adv-x="972" 
d="M547 690v-288h58l187 288h137l-218 -334l241 -356h-149l-199 294h-57v-294h-127v294h-57l-199 -294h-144l236 349l-222 341h141l186 -288h59v288h127z" />
    <glyph glyph-name="afii10025" unicode="&#x417;" horiz-adv-x="650" 
d="M325 89q148 0 148 94v30q0 90 -139 90h-90v98h90q58 0 90.5 21t32.5 63v27q0 89 -129 89q-67 0 -103 -27t-42 -95h-132q15 222 273 222q266 0 266 -190q0 -54 -36 -96.5t-98 -57.5q70 -13 110 -56.5t40 -103.5q0 -208 -281 -208q-134 0 -202 54.5t-78 166.5h132
q6 -61 41.5 -91t106.5 -30z" />
    <glyph glyph-name="afii10026" unicode="&#x418;" horiz-adv-x="721" 
d="M228 0h-146v690h127v-522l284 522h146v-690h-127v522z" />
    <glyph glyph-name="afii10027" unicode="&#x419;" horiz-adv-x="721" 
d="M228 0h-146v690h127v-522l284 522h146v-690h-127v522zM429 901h108q0 -160 -182 -160q-183 0 -183 160h108q0 -44 17.5 -62.5t57.5 -18.5t57 18.5t17 62.5z" />
    <glyph glyph-name="afii10028" unicode="&#x41a;" horiz-adv-x="653" 
d="M209 690v-289h57l209 289h140l-243 -336l265 -354h-151l-220 293h-57v-293h-127v690h127z" />
    <glyph glyph-name="afii10029" unicode="&#x41b;" horiz-adv-x="702" 
d="M620 0h-127v585h-236v-219q0 -145 -22 -225t-66 -110.5t-121 -30.5h-32v116h18q60 0 83.5 53t23.5 197v324h479v-690z" />
    <glyph glyph-name="afii10030" unicode="&#x41c;" horiz-adv-x="877" 
d="M292 690l152 -472l153 472h198v-690h-127v591l-159 -489h-149l-159 489v-591h-119v690h210z" />
    <glyph glyph-name="afii10031" unicode="&#x41d;" horiz-adv-x="708" 
d="M626 0h-127v298h-290v-298h-127v690h127v-287h290v287h127v-690z" />
    <glyph glyph-name="afii10032" unicode="&#x41e;" horiz-adv-x="736" 
d="M687 348q0 -184 -78.5 -271.5t-240.5 -87.5q-161 0 -239.5 87.5t-78.5 271.5q0 180 78.5 266.5t239.5 86.5t240 -86.5t79 -266.5zM555 310v70q0 220 -187 220q-96 0 -141 -55t-45 -165v-70q0 -112 44.5 -166t141.5 -54t142 54t45 166z" />
    <glyph glyph-name="afii10033" unicode="&#x41f;" horiz-adv-x="698" 
d="M616 0h-127v585h-280v-585h-127v690h534v-690z" />
    <glyph glyph-name="afii10034" unicode="&#x420;" horiz-adv-x="618" 
d="M584 464q0 -105 -58.5 -162t-176.5 -57h-140v-245h-127v690h267q117 0 176 -59t59 -167zM451 446v40q0 97 -114 97h-128v-231h128q114 0 114 94z" />
    <glyph glyph-name="afii10035" unicode="&#x421;" horiz-adv-x="686" 
d="M354 -11q-304 0 -304 357q0 355 304 355q129 0 198.5 -53.5t87.5 -171.5h-132q-10 65 -47 94.5t-107 29.5q-172 0 -172 -216v-77q0 -217 172 -217q69 0 106 27.5t49 94.5h132q-17 -116 -88.5 -169.5t-198.5 -53.5z" />
    <glyph glyph-name="afii10036" unicode="&#x422;" horiz-adv-x="596" 
d="M576 585h-215v-585h-127v585h-214v105h556v-105z" />
    <glyph glyph-name="afii10037" unicode="&#x423;" horiz-adv-x="636" 
d="M187 0l82 184l-253 506h133l183 -367l165 367h123l-310 -690h-123z" />
    <glyph glyph-name="afii10038" unicode="&#x424;" horiz-adv-x="860" 
d="M494 91v-102h-128v102q-329 7 -329 269q0 135 81 201t248 69v71h128v-71q167 -3 248 -69t81 -201q0 -262 -329 -269zM366 195v331q-102 -2 -149 -38.5t-47 -107.5v-40q0 -75 44.5 -109t151.5 -36zM494 526v-331q107 2 151.5 36t44.5 109v40q0 72 -46 108t-150 38z" />
    <glyph glyph-name="afii10039" unicode="&#x425;" horiz-adv-x="661" 
d="M166 690l168 -250l161 250h130l-221 -343l234 -347h-143l-172 255l-166 -255h-130l227 347l-231 343h143z" />
    <glyph glyph-name="afii10040" unicode="&#x426;" horiz-adv-x="724" 
d="M82 690h127v-585h280v585h127v-585h90v-255h-117v150h-507v690z" />
    <glyph glyph-name="afii10041" unicode="&#x427;" horiz-adv-x="682" 
d="M599 690v-690h-127v267q-78 -8 -141 -8q-134 0 -198.5 51.5t-64.5 177.5v202h127v-196q0 -76 34.5 -104t109.5 -28q63 0 133 8v320h127z" />
    <glyph glyph-name="afii10042" unicode="&#x428;" horiz-adv-x="979" 
d="M770 690h127v-690h-815v690h127v-585h217v585h127v-585h217v585z" />
    <glyph glyph-name="afii10043" unicode="&#x429;" horiz-adv-x="1005" 
d="M770 690h127v-585h90v-255h-117v150h-788v690h127v-585h217v585h127v-585h217v585z" />
    <glyph glyph-name="afii10044" unicode="&#x42a;" horiz-adv-x="700" 
d="M666 231q0 -110 -59 -170.5t-178 -60.5h-265v585h-144v105h271v-232h138q119 0 178 -59t59 -168zM533 251q0 100 -115 100h-127v-244h127q115 0 115 102v42z" />
    <glyph glyph-name="afii10045" unicode="&#x42b;" horiz-adv-x="874" 
d="M584 231q0 -110 -59 -170.5t-178 -60.5h-265v690h127v-232h138q119 0 178 -59t59 -168zM451 251q0 100 -115 100h-127v-244h127q115 0 115 102v42zM792 0h-127v690h127v-690z" />
    <glyph glyph-name="afii10046" unicode="&#x42c;" horiz-adv-x="618" 
d="M584 231q0 -110 -59 -170.5t-178 -60.5h-265v690h127v-232h138q119 0 178 -59t59 -168zM451 251q0 100 -115 100h-127v-244h127q115 0 115 102v42z" />
    <glyph glyph-name="afii10047" unicode="&#x42d;" horiz-adv-x="686" 
d="M334 -11q-129 0 -204 55.5t-85 167.5h132q9 -66 48.5 -94t108.5 -28q87 0 127.5 52t42.5 159h-266v99h265q-6 200 -166 200q-136 0 -155 -124h-132q11 110 85 167.5t202 57.5q151 0 225 -87.5t74 -267.5q0 -183 -75 -270t-227 -87z" />
    <glyph glyph-name="afii10048" unicode="&#x42e;" horiz-adv-x="975" 
d="M926 346q0 -183 -76.5 -270t-232.5 -87q-146 0 -222 76.5t-85 235.5h-101v-301h-127v690h127v-287h102q11 151 87 224.5t219 73.5q156 0 232.5 -87t76.5 -268zM794 309v73q0 218 -177 218q-176 0 -176 -218v-73q0 -111 42.5 -165t133.5 -54t134 54t43 165z" />
    <glyph glyph-name="afii10049" unicode="&#x42f;" horiz-adv-x="642" 
d="M60 472q0 102 62.5 160t177.5 58h260v-690h-127v257h-125l-133 -257h-135l144 276q-124 48 -124 196zM193 492v-37q0 -93 115 -93h125v223h-125q-115 0 -115 -93z" />
    <glyph glyph-name="afii10065" unicode="&#x430;" horiz-adv-x="567" 
d="M46 137q0 76 48 113t153 47l131 12v23q0 50 -23 71.5t-69 21.5q-89 0 -98 -77h-124q5 81 61 124t160 43q216 0 216 -185v-330h-117v64q-54 -75 -165 -75q-84 0 -128.5 41t-44.5 107zM256 75q56 0 89 29.5t33 85.5v44l-120 -12q-46 -5 -67 -19.5t-21 -47.5v-21
q0 -59 86 -59z" />
    <glyph glyph-name="afii10066" unicode="&#x431;" horiz-adv-x="596" 
d="M48 285q0 103 12 177t34.5 124t61.5 80t87 43t116 16q123 4 169 11v-107q-26 -3 -161 -9q-57 -3 -92.5 -13t-63.5 -35t-42.5 -69t-20.5 -114q55 112 189 112q107 0 160.5 -65t53.5 -187q0 -125 -62.5 -192.5t-188.5 -67.5q-133 0 -192.5 71.5t-59.5 224.5zM300 80
q64 0 94 33t30 105v54q0 138 -124 138q-125 0 -125 -138v-54q0 -72 30 -105t95 -33z" />
    <glyph glyph-name="afii10067" unicode="&#x432;" horiz-adv-x="559" 
d="M514 144q0 -144 -189 -144h-253v504h231q191 0 191 -124q0 -92 -105 -116q125 -22 125 -120zM387 142v19q0 60 -80 60h-114v-137h114q41 0 60.5 13.5t19.5 44.5zM368 365q0 28 -16 41.5t-55 13.5h-104v-123h104q71 0 71 52v16z" />
    <glyph glyph-name="afii10068" unicode="&#x433;" horiz-adv-x="452" 
d="M72 504h360v-97h-238v-407h-122v504z" />
    <glyph glyph-name="afii10069" unicode="&#x434;" horiz-adv-x="609" 
d="M9 -140v237h59q44 88 44 254v153h404v-407h76v-237h-112v140h-359v-140h-112zM394 407h-171v-57q0 -169 -39 -253h210v310z" />
    <glyph glyph-name="afii10070" unicode="&#x435;" horiz-adv-x="565" 
d="M288 79q101 0 111 84h122q-23 -174 -233 -174q-243 0 -243 262q0 264 243 264q231 0 231 -235v-26h-350v-38q0 -66 30.5 -101.5t88.5 -35.5zM287 425q-104 0 -116 -93h221q-5 47 -30 70t-75 23z" />
    <glyph glyph-name="afii10072" unicode="&#x436;" horiz-adv-x="784" 
d="M453 0h-123v207h-49l-132 -207h-137l168 257l-154 247h130l124 -200h50v200h123v-200h49l124 200h127l-151 -243l169 -261h-138l-132 207h-48v-207z" />
    <glyph glyph-name="afii10073" unicode="&#x437;" horiz-adv-x="551" 
d="M279 216h-70v88h67q85 0 85 54v16q0 54 -84 54q-50 0 -73 -17t-29 -58h-127q17 162 229 162q101 0 156.5 -36t55.5 -101q0 -38 -24 -67.5t-75 -43.5q58 -13 85 -45.5t27 -73.5q0 -77 -58 -118t-170 -41q-221 0 -234 173h127q5 -46 29 -66t78 -20q100 0 100 66v13
q0 33 -23 47t-72 14z" />
    <glyph glyph-name="afii10074" unicode="&#x438;" horiz-adv-x="610" 
d="M538 0h-122v367l-201 -367h-143v504h122v-367l202 367h142v-504z" />
    <glyph glyph-name="afii10075" unicode="&#x439;" horiz-adv-x="610" 
d="M538 0h-122v367l-201 -367h-143v504h122v-367l202 367h142v-504zM379 740h100q0 -159 -174 -159t-174 159h101q0 -47 17.5 -65.5t55.5 -18.5q39 0 56.5 18.5t17.5 65.5z" />
    <glyph glyph-name="afii10076" unicode="&#x43a;" horiz-adv-x="557" 
d="M194 0h-122v504h122v-200h52l144 200h134l-173 -242l195 -262h-148l-154 207h-50v-207z" />
    <glyph glyph-name="afii10077" unicode="&#x43b;" horiz-adv-x="573" 
d="M19 0v108h20q43 0 57 30.5t14 123.5v242h392v-504h-123v407h-158v-145q0 -154 -36 -208t-139 -54h-27z" />
    <glyph glyph-name="afii10078" unicode="&#x43c;" horiz-adv-x="742" 
d="M256 504l119 -341l115 341h180v-504h-119v409l-119 -352h-128l-121 346v-403h-111v504h184z" />
    <glyph glyph-name="afii10079" unicode="&#x43d;" horiz-adv-x="597" 
d="M525 0h-122v209h-209v-209h-122v504h122v-198h209v198h122v-504z" />
    <glyph glyph-name="afii10080" unicode="&#x43e;" horiz-adv-x="592" 
d="M296 -11q-130 0 -190.5 65t-60.5 198t60.5 198t190.5 65t190.5 -65t60.5 -198t-60.5 -198t-190.5 -65zM296 80q124 0 124 136v74q0 134 -124 134t-124 -134v-74q0 -136 124 -136z" />
    <glyph glyph-name="afii10081" unicode="&#x43f;" horiz-adv-x="587" 
d="M515 0h-122v407h-199v-407h-122v504h443v-504z" />
    <glyph glyph-name="afii10082" unicode="&#x440;" horiz-adv-x="614" 
d="M194 -200h-122v704h117v-70q51 81 161 81q109 0 164.5 -68.5t55.5 -195.5q0 -125 -55 -193.5t-165 -68.5q-105 0 -156 71v-260zM318 80q124 0 124 135v76q0 64 -31 98.5t-92 34.5t-92 -33t-33 -94v-82q0 -135 124 -135z" />
    <glyph glyph-name="afii10083" unicode="&#x441;" horiz-adv-x="543" 
d="M503 161q-23 -172 -224 -172q-234 0 -234 263t234 263q101 0 157 -40t64 -135h-123q-8 84 -98 84q-107 0 -107 -131v-79q0 -134 107 -134q45 0 70 18.5t31 62.5h123z" />
    <glyph glyph-name="afii10084" unicode="&#x442;" horiz-adv-x="487" 
d="M467 407h-162v-407h-122v407h-163v97h447v-97z" />
    <glyph glyph-name="afii10085" unicode="&#x443;" horiz-adv-x="543" 
d="M76 -103h44q41 0 58.5 10t28.5 42l10 30l-197 525h129l131 -353l127 353h116l-207 -570q-29 -81 -62.5 -107.5t-106.5 -26.5h-71v97z" />
    <glyph glyph-name="afii10086" unicode="&#x444;" horiz-adv-x="772" 
d="M45 252q0 130 71.5 196.5t208.5 66.5v215h122v-215q137 0 208.5 -66.5t71.5 -196.5t-71.5 -196.5t-208.5 -66.5v-189h-122v189q-280 0 -280 263zM172 215q0 -69 36 -100t117 -31v336q-153 0 -153 -130v-75zM447 420v-336q80 0 116.5 31t36.5 100v75q0 68 -37.5 99
t-115.5 31z" />
    <glyph glyph-name="afii10087" unicode="&#x445;" horiz-adv-x="546" 
d="M202 253l-177 251h134l116 -166l110 166h123l-168 -251l181 -253h-135l-120 169l-116 -169h-124z" />
    <glyph glyph-name="afii10088" unicode="&#x446;" horiz-adv-x="613" 
d="M76 504h122v-407h199v407h122v-407h76v-237h-112v140h-407v504z" />
    <glyph glyph-name="afii10089" unicode="&#x447;" horiz-adv-x="565" 
d="M493 504v-504h-122v193q-48 -8 -102 -8q-115 0 -163 43t-48 140v136h122v-132q0 -52 22.5 -71.5t78.5 -19.5t90 8v215h122z" />
    <glyph glyph-name="afii10090" unicode="&#x448;" horiz-adv-x="834" 
d="M762 504v-504h-690v504h122v-407h162v407h122v-407h162v407h122z" />
    <glyph glyph-name="afii10091" unicode="&#x449;" horiz-adv-x="853" 
d="M762 504v-407h77v-237h-112v140h-655v504h122v-407h162v407h122v-407h162v407h122z" />
    <glyph glyph-name="afii10092" unicode="&#x44a;" horiz-adv-x="572" 
d="M126 0v407h-113v97h235v-157h116q91 0 138 -44.5t47 -125.5q0 -86 -46.5 -131.5t-138.5 -45.5h-238zM421 189q0 66 -78 66h-95v-164h95q78 0 78 71v27z" />
    <glyph glyph-name="afii10093" unicode="&#x44b;" horiz-adv-x="753" 
d="M72 0v504h122v-157h116q91 0 138 -44.5t47 -125.5q0 -86 -46.5 -131.5t-138.5 -45.5h-238zM367 189q0 66 -78 66h-95v-164h95q78 0 78 71v27zM681 0h-122v504h122v-504z" />
    <glyph glyph-name="afii10094" unicode="&#x44c;" horiz-adv-x="515" 
d="M72 0v504h122v-157h116q91 0 138 -44.5t47 -125.5q0 -86 -46.5 -131.5t-138.5 -45.5h-238zM367 189q0 66 -78 66h-95v-164h95q78 0 78 71v27z" />
    <glyph glyph-name="afii10095" unicode="&#x44d;" horiz-adv-x="548" 
d="M40 161h123q10 -81 108 -81q54 0 79.5 31t26.5 99h-168v91h168q-3 123 -106 123q-96 0 -106 -84h-123q7 89 67 132t162 43q120 0 176 -65t56 -198q0 -134 -56 -198.5t-176 -64.5q-208 0 -231 172z" />
    <glyph glyph-name="afii10096" unicode="&#x44e;" horiz-adv-x="813" 
d="M522 -11q-227 0 -245 222h-83v-211h-122v504h122v-198h85q22 209 243 209q124 0 185 -65t61 -198t-61 -198t-185 -65zM522 80q119 0 119 136v74q0 134 -119 134t-119 -134v-74q0 -136 119 -136z" />
    <glyph glyph-name="afii10097" unicode="&#x44f;" horiz-adv-x="560" 
d="M174 0h-129l117 201q-108 32 -108 143q0 76 46.5 118t132.5 42h255v-504h-122v182h-85zM182 331q0 -62 79 -62h105v149h-105q-79 0 -79 -62v-25z" />
    <glyph glyph-name="afii10071" unicode="&#x451;" horiz-adv-x="565" 
d="M288 79q101 0 111 84h122q-23 -174 -233 -174q-243 0 -243 262q0 264 243 264q231 0 231 -235v-26h-350v-38q0 -66 30.5 -101.5t88.5 -35.5zM287 425q-104 0 -116 -93h221q-5 47 -30 70t-75 23zM460 672q0 -71 -71 -71t-71 71t71 71t71 -71zM250 672q0 -71 -72 -71
q-70 0 -70 71t70 71q72 0 72 -71z" />
    <glyph glyph-name="afii10101" unicode="&#x454;" horiz-adv-x="547" 
d="M384 161h124q-23 -172 -229 -172q-237 0 -234 263q1 132 58 197.5t176 65.5q212 0 226 -175h-124q-4 46 -30 65t-72 19q-54 0 -81 -29t-28 -94h173v-91h-173q1 -69 27 -99.5t82 -30.5q95 0 105 81z" />
    <glyph glyph-name="afii10103" unicode="&#x456;" horiz-adv-x="266" 
d="M194 0h-122v504h122v-504zM208 672q0 -72 -76 -72q-74 0 -74 72q0 73 74 73q76 0 76 -73z" />
    <glyph glyph-name="afii10104" unicode="&#x457;" horiz-adv-x="266" 
d="M257 672q0 -72 -58 -72q-59 0 -59 72q0 73 59 73q58 0 58 -73zM126 672q0 -72 -59 -72q-58 0 -58 72q0 73 58 73q59 0 59 -73zM194 0h-122v504h122v-504z" />
    <glyph glyph-name="afii10105" unicode="&#x458;" horiz-adv-x="266" 
d="M-33 -103h52q29 0 41 13t12 43v551h122v-566q0 -74 -29 -106t-103 -32h-95v97zM208 672q0 -72 -76 -72q-74 0 -74 72q0 73 74 73q76 0 76 -73z" />
    <glyph glyph-name="afii10110" unicode="&#x45e;" horiz-adv-x="543" 
d="M76 -103h44q41 0 58.5 10t28.5 42l10 30l-197 525h129l131 -353l127 353h116l-207 -570q-29 -81 -62.5 -107.5t-106.5 -26.5h-71v97zM346 740h100q0 -159 -174 -159t-174 159h101q0 -47 17.5 -65.5t55.5 -18.5q39 0 56.5 18.5t17.5 65.5z" />
    <glyph glyph-name="afii10050" unicode="&#x490;" horiz-adv-x="530" 
d="M82 690h311v150h117v-255h-301v-585h-127v690z" />
    <glyph glyph-name="afii10098" unicode="&#x491;" horiz-adv-x="452" 
d="M72 504h248v140h112v-237h-238v-407h-122v504z" />
    <glyph glyph-name="enquad" unicode="&#x2000;" horiz-adv-x="500" 
 />
    <glyph glyph-name="emquad" unicode="&#x2001;" horiz-adv-x="1000" 
 />
    <glyph glyph-name="enspace" unicode="&#x2002;" horiz-adv-x="500" 
 />
    <glyph glyph-name="emspace" unicode="&#x2003;" horiz-adv-x="1000" 
 />
    <glyph glyph-name="thirdemspace" unicode="&#x2004;" horiz-adv-x="300" 
 />
    <glyph glyph-name="quarteremspace" unicode="&#x2005;" horiz-adv-x="250" 
 />
    <glyph glyph-name="sixthemspace" unicode="&#x2006;" horiz-adv-x="100" 
 />
    <glyph glyph-name="figurespace" unicode="&#x2007;" horiz-adv-x="200" 
 />
    <glyph glyph-name="punctuationspace" unicode="&#x2008;" horiz-adv-x="210" 
 />
    <glyph glyph-name="thinspace" unicode="&#x2009;" horiz-adv-x="150" 
 />
    <glyph glyph-name="hairspace" unicode="&#x200a;" horiz-adv-x="35" 
 />
    <glyph glyph-name="zerowidthspace" unicode="&#x200b;" horiz-adv-x="0" 
 />
    <glyph glyph-name="endash" unicode="&#x2013;" horiz-adv-x="645" 
d="M595 208h-545v98h545v-98z" />
    <glyph glyph-name="emdash" unicode="&#x2014;" horiz-adv-x="885" 
d="M815 208h-745v98h745v-98z" />
    <glyph glyph-name="quoteleft" unicode="&#x2018;" horiz-adv-x="265" 
d="M134 421q-77 0 -77 80v55q0 83 30.5 115.5t102.5 32.5v-71q-32 0 -42.5 -13.5t-10.5 -43.5v-8q71 -2 71 -78q0 -33 -19 -51t-55 -18z" />
    <glyph glyph-name="quoteright" unicode="&#x2019;" horiz-adv-x="265" 
d="M131 701q77 0 77 -80v-55q0 -83 -30.5 -115.5t-102.5 -32.5v71q32 0 42.5 13.5t10.5 43.5v8q-71 2 -71 78q0 33 19 51t55 18z" />
    <glyph glyph-name="quotesinglbase" unicode="&#x201a;" horiz-adv-x="265" 
d="M131 136q77 0 77 -80v-55q0 -83 -30.5 -115.5t-102.5 -32.5v71q32 0 42.5 13.5t10.5 43.5v8q-71 2 -71 78q0 33 19 51t55 18z" />
    <glyph glyph-name="quotedblleft" unicode="&#x201c;" horiz-adv-x="472" 
d="M341 421q-77 0 -77 80v55q0 83 30.5 115.5t102.5 32.5v-71q-32 0 -42.5 -13.5t-10.5 -43.5v-8q71 -2 71 -78q0 -33 -19 -51t-55 -18zM134 421q-77 0 -77 80v55q0 83 30.5 115.5t102.5 32.5v-71q-32 0 -42.5 -13.5t-10.5 -43.5v-8q71 -2 71 -78q0 -33 -19 -51t-55 -18z
" />
    <glyph glyph-name="quotedblright" unicode="&#x201d;" horiz-adv-x="472" 
d="M131 701q77 0 77 -80v-55q0 -83 -30.5 -115.5t-102.5 -32.5v71q32 0 42.5 13.5t10.5 43.5v8q-71 2 -71 78q0 33 19 51t55 18zM338 701q77 0 77 -80v-55q0 -83 -30.5 -115.5t-102.5 -32.5v71q32 0 42.5 13.5t10.5 43.5v8q-71 2 -71 78q0 33 19 51t55 18z" />
    <glyph glyph-name="quotedblbase" unicode="&#x201e;" horiz-adv-x="472" 
d="M131 136q77 0 77 -80v-55q0 -83 -30.5 -115.5t-102.5 -32.5v71q32 0 42.5 13.5t10.5 43.5v8q-71 2 -71 78q0 33 19 51t55 18zM338 136q77 0 77 -80v-55q0 -83 -30.5 -115.5t-102.5 -32.5v71q32 0 42.5 13.5t10.5 43.5v8q-71 2 -71 78q0 33 19 51t55 18z" />
    <glyph glyph-name="bullet" unicode="&#x2022;" horiz-adv-x="442" 
d="M362 359q0 -136 -140 -136q-142 0 -142 136q0 135 142 135q140 0 140 -135z" />
    <glyph glyph-name="ellipsis" unicode="&#x2026;" horiz-adv-x="702" 
d="M208 63q0 -74 -76 -74q-75 0 -75 74q0 73 75 73q76 0 76 -73zM427 63q0 -74 -76 -74q-75 0 -75 74q0 73 75 73q76 0 76 -73zM645 63q0 -74 -76 -74q-75 0 -75 74q0 73 75 73q76 0 76 -73z" />
    <glyph glyph-name="nonbreakingspace.narrow" unicode="&#x202f;" horiz-adv-x="100" 
 />
    <glyph glyph-name="perthousand" unicode="&#x2030;" horiz-adv-x="1345" 
d="M1126 -12q-93 0 -141 49t-48 139t48.5 139.5t140.5 49.5t140.5 -49.5t48.5 -139.5t-48 -139t-141 -49zM1126 73q39 0 57 19.5t18 66.5v35q0 86 -75 86t-75 -86v-35q0 -47 18 -66.5t57 -19.5zM775 690l-500 -690h-119l498 690h121zM219 324q-92 0 -140.5 49.5t-48.5 139.5
q0 89 48.5 138.5t140.5 49.5t140.5 -49.5t48.5 -138.5q0 -90 -48.5 -139.5t-140.5 -49.5zM219 409q39 0 57 20t18 67v34q0 86 -75 86t-75 -86v-34q0 -48 18 -67.5t57 -19.5zM712 -12q-93 0 -141 49t-48 139t48.5 139.5t140.5 49.5t140 -49.5t48 -139.5t-48 -139t-140 -49z
M712 73q39 0 57 19.5t18 66.5v35q0 86 -75 86q-76 0 -76 -86v-35q0 -47 18.5 -66.5t57.5 -19.5z" />
    <glyph glyph-name="minute" unicode="&#x2032;" horiz-adv-x="281" 
d="M124 690h107l-75 -266h-106z" />
    <glyph glyph-name="second" unicode="&#x2033;" horiz-adv-x="464" 
d="M124 690h107l-75 -266h-106zM307 690h107l-75 -266h-106z" />
    <glyph glyph-name="guilsinglleft" unicode="&#x2039;" horiz-adv-x="291" 
d="M248 367l-129 -107l130 -108v-130l-213 184v101l212 184v-124z" />
    <glyph glyph-name="guilsinglright" unicode="&#x203a;" horiz-adv-x="291" 
d="M43 146l129 107l-130 108v130l213 -184v-101l-212 -184v124z" />
    <glyph glyph-name="fraction" unicode="&#x2044;" horiz-adv-x="313" 
d="M-170 0l530 750h115l-530 -750h-115z" />
    <glyph glyph-name="mathspacemedium" unicode="&#x205f;" horiz-adv-x="180" 
 />
    <glyph glyph-name="joinerspace" unicode="&#x2060;" horiz-adv-x="0" 
 />
    <glyph glyph-name="Euro" unicode="&#x20ac;" horiz-adv-x="695" 
d="M30 376v88h88q41 237 276 237q120 0 185.5 -47.5t80.5 -151.5h-132q-8 51 -40 74.5t-94 23.5q-125 0 -148 -136h214v-88h-219v-60h219v-88h-214q23 -138 148 -138q61 0 93 21.5t42 74.5h132q-30 -197 -267 -197q-235 0 -276 239h-88v88h79v30v30h-79z" />
    <glyph glyph-name="uni20B4" unicode="&#x20b4;" horiz-adv-x="660" 
d="M331 85q58 0 87 17.5t37 55.5h133q-16 -169 -258 -169q-253 0 -253 153q0 50 32 89h-59v88h560v-88h-362q-37 -24 -37 -61v-17q0 -68 120 -68zM334 605q-103 0 -116 -73h-132q6 81 70.5 125t178.5 44q117 0 177.5 -42.5t60.5 -115.5q0 -44 -27 -81h64v-86h-560v86h357
q32 22 32 57v16q0 70 -105 70z" />
    <glyph glyph-name="uni20B8" unicode="&#x20b8;" horiz-adv-x="586" 
d="M566 439h-209v-439h-128v439h-209v94h546v-94zM566 596h-546v94h546v-94z" />
    <glyph glyph-name="uni20BD" unicode="&#x20bd;" horiz-adv-x="658" 
d="M624 472q0 -99 -57 -152.5t-166 -53.5h-171v-65h233v-90h-233v-111h-127v111h-80v90h80v65h-80v98h80v326h298q109 0 166 -57.5t57 -160.5zM491 459v26q0 101 -108 101h-153v-222h153q108 0 108 95z" />
    <glyph glyph-name="afii61352" unicode="&#x2116;" horiz-adv-x="1137" 
d="M253 690l264 -528v528h119v-690h-171l-264 528v-528h-119v690h171zM901 324q-92 0 -140.5 49.5t-48.5 139.5q0 89 48.5 138.5t140.5 49.5t140.5 -49.5t48.5 -138.5q0 -90 -48.5 -139.5t-140.5 -49.5zM727 174v94h348v-94h-348zM901 409q39 0 57 20t18 67v34q0 86 -75 86
t-75 -86v-34q0 -47 18 -67t57 -20z" />
    <glyph glyph-name="trademark" unicode="&#x2122;" horiz-adv-x="866" 
d="M555 392l-63 175v-228h-95v351h141l71 -192l72 192h135v-351h-101v227l-65 -174h-95zM353 612h-113v-273h-101v273h-115v78h329v-78z" />
    <glyph glyph-name="onethird" unicode="&#x2153;" horiz-adv-x="946" 
d="M733 71q69 0 69 46v16q0 46 -71 46h-40v82h39q56 0 56 38v14q0 41 -56 41q-57 0 -62 -41h-108q9 123 170 123q75 0 119.5 -28.5t44.5 -85.5q0 -36 -22 -62.5t-62 -36.5q48 -9 74 -35.5t26 -66.5q0 -63 -45.5 -97.5t-131.5 -34.5q-88 0 -133.5 32t-49.5 101h108
q8 -51 75 -51zM24 560v108l104 82h108v-425h-108v319zM103 0l530 750h115l-530 -750h-115z" />
    <glyph glyph-name="twothirds" unicode="&#x2154;" horiz-adv-x="1062" 
d="M849 71q69 0 69 46v16q0 46 -71 46h-40v82h39q56 0 56 38v14q0 41 -56 41q-57 0 -62 -41h-108q9 123 170 123q75 0 119.5 -28.5t44.5 -85.5q0 -36 -22 -62.5t-62 -36.5q48 -9 74 -35.5t26 -66.5q0 -63 -45.5 -97.5t-131.5 -34.5q-88 0 -133.5 32t-49.5 101h108
q8 -51 75 -51zM222 0l530 750h115l-530 -750h-115zM201 678q-59 0 -62 -51h-109q5 134 170 134q169 0 169 -129q0 -42 -21.5 -71t-53 -45t-64 -29t-58.5 -32t-31 -45h227v-85h-338v43q0 45 17 79t42.5 52.5t55 34.5t55 26t42.5 25t17 34v13q0 25 -13.5 35.5t-44.5 10.5z" />
    <glyph glyph-name="oneeighth" unicode="&#x215b;" horiz-adv-x="968" 
d="M736 -11q-193 0 -193 130q0 37 23.5 63.5t64.5 38.5q-71 26 -71 94q0 61 46.5 91t129.5 30q177 0 177 -121q0 -68 -70 -94q40 -12 63.5 -38.5t23.5 -63.5q0 -130 -194 -130zM736 176q-83 0 -83 -48v-11q0 -49 83 -49q84 0 84 49v11q0 48 -84 48zM736 257q69 0 69 47v7
q0 46 -69 46q-68 0 -68 -46v-7q0 -47 68 -47zM24 560v108l104 82h108v-425h-108v319zM103 0l530 750h115l-530 -750h-115z" />
    <glyph glyph-name="threeeighths" unicode="&#x215c;" horiz-adv-x="1061" 
d="M197 0l530 750h115l-530 -750h-115zM219 396q69 0 69 46v16q0 46 -71 46h-40v82h39q56 0 56 38v14q0 41 -56 41q-57 0 -62 -41h-108q9 123 170 123q75 0 119.5 -28.5t44.5 -85.5q0 -36 -22 -62.5t-62 -36.5q48 -9 74 -35.5t26 -66.5q0 -63 -45.5 -97.5t-131.5 -34.5
q-88 0 -133.5 32t-49.5 101h108q7 -51 75 -51zM828 -11q-193 0 -193 130q0 37 23.5 63.5t64.5 38.5q-71 26 -71 94q0 61 46.5 91t129.5 30q177 0 177 -121q0 -68 -70 -94q40 -12 63.5 -38.5t23.5 -63.5q0 -130 -194 -130zM828 176q-83 0 -83 -48v-11q0 -49 83 -49
q84 0 84 49v11q0 48 -84 48zM828 257q69 0 69 47v7q0 46 -69 46q-68 0 -68 -46v-7q0 -47 68 -47z" />
    <glyph glyph-name="fiveeighths" unicode="&#x215d;" horiz-adv-x="1072" 
d="M209 0l530 750h115l-530 -750h-115zM839 -11q-193 0 -193 130q0 37 23.5 63.5t64.5 38.5q-71 26 -71 94q0 61 46.5 91t129.5 30q177 0 177 -121q0 -68 -70 -94q40 -12 63.5 -38.5t23.5 -63.5q0 -130 -194 -130zM839 176q-83 0 -83 -48v-11q0 -49 83 -49q84 0 84 49v11
q0 48 -84 48zM839 257q69 0 69 47v7q0 46 -69 46q-68 0 -68 -46v-7q0 -47 68 -47zM218 397q66 0 66 54v20q0 57 -68 57q-51 0 -75 -27l-97 16l25 233h293v-85h-212l-10 -92q36 33 98 33q75 0 115.5 -36.5t40.5 -105.5q0 -75 -45.5 -112.5t-129.5 -37.5q-174 0 -189 125h110
q10 -42 78 -42z" />
    <glyph glyph-name="seveneighths" unicode="&#x215e;" horiz-adv-x="927" 
d="M694 -11q-193 0 -193 130q0 37 23.5 63.5t64.5 38.5q-71 26 -71 94q0 61 46.5 91t129.5 30q177 0 177 -121q0 -68 -70 -94q40 -12 63.5 -38.5t23.5 -63.5q0 -130 -194 -130zM694 176q-83 0 -83 -48v-11q0 -49 83 -49q84 0 84 49v11q0 48 -84 48zM694 257q69 0 69 47v7
q0 46 -69 46q-68 0 -68 -46v-7q0 -47 68 -47zM61 0l530 750h115l-530 -750h-115zM14 665v85h323v-69l-180 -356h-103l172 340h-212z" />
    <glyph glyph-name="arrowleft" unicode="&#x2190;" horiz-adv-x="864" 
d="M794 304h-570l161 -118v-119l-315 232v97l314 233v-115l-158 -117h568v-93z" />
    <glyph glyph-name="arrowright" unicode="&#x2192;" horiz-adv-x="864" 
d="M70 396h570l-161 118v119l315 -232v-97l-314 -233v115l158 117h-568v93z" />
    <glyph glyph-name="minus" unicode="&#x2212;" 
d="M574 298h-510v105h510v-105z" />
    <glyph glyph-name="approxequal" unicode="&#x2248;" horiz-adv-x="631" 
d="M212 533q53 0 115.5 -32.5t86.5 -32.5q29 0 40 13.5t12 47.5h102q-1 -81 -38 -120.5t-104 -39.5q-50 0 -111.5 32t-90.5 32q-31 0 -45 -14.5t-15 -44.5h-101q1 79 40 119t109 40zM212 326q53 0 115.5 -33t86.5 -33q29 0 41 14t13 48h100q-1 -160 -142 -160
q-50 0 -111.5 32t-90.5 32q-31 0 -45 -14.5t-15 -44.5h-101q1 79 40 119t109 40z" />
    <glyph glyph-name="notequal" unicode="&#x2260;" 
d="M235 51h-115l64 136h-120v104h170l56 118h-226v104h275l65 137h114l-65 -137h121v-104h-170l-56 -118h226v-104h-275z" />
    <glyph glyph-name="lessequal" unicode="&#x2264;" 
d="M574 244l-510 157v121l510 156v-111l-368 -105l368 -105v-113zM574 82h-510v105h510v-105z" />
    <glyph glyph-name="greaterequal" unicode="&#x2265;" 
d="M64 678l510 -157v-121l-510 -156v111l368 105l-368 105v113zM574 82h-510v105h510v-105z" />
    <glyph glyph-name="Pcircle" unicode="&#x24c5;" horiz-adv-x="853" 
d="M605 407q0 127 -141 127h-168v-376h100v123h68q141 0 141 126zM505 418v-22q0 -37 -44 -37h-65v96h65q44 0 44 -37zM796 345q0 -169 -100.5 -262.5t-266.5 -93.5q-167 0 -268 93.5t-101 262.5t101 262.5t268 93.5q166 0 266.5 -93.5t100.5 -262.5zM429 59q134 0 210.5 72
t76.5 214q0 140 -77 213t-210 73q-134 0 -211 -73t-77 -213q0 -142 76.5 -214t211.5 -72z" />
    <glyph glyph-name="apple.icon" unicode="&#xf8ff;" horiz-adv-x="1011" 
d="M656 613q107 0 163 -81l-5 -4q-6 -4 -13.5 -10.5t-17 -16t-18.5 -22.5t-17 -28t-12.5 -35t-4.5 -42q0 -34 11 -63.5t26.5 -47.5t32.5 -31t27.5 -18t12.5 -5q-10 -49 -55 -118q-23 -33 -38 -50.5t-40 -34t-52 -16.5t-64 16t-71 16q-33 0 -72 -17t-64 -17q-24 0 -48.5 16.5
t-38.5 33.5t-41 54q-38 55 -62.5 128.5t-24.5 144.5q0 114 62.5 180.5t145.5 66.5q29 0 73.5 -18t59.5 -18q13 0 61.5 18.5t83.5 18.5zM628 681q-21 -25 -52.5 -41.5t-59.5 -16.5h-13q-1 2 -1 16q0 57 46 111q23 26 56.5 43.5t64.5 18.5q2 -4 2 -17q0 -59 -43 -114z" />
    <glyph glyph-name="zerowidthnobreak" unicode="&#xfeff;" horiz-adv-x="0" 
 />
    <glyph glyph-name="numbersign.icon" horiz-adv-x="775" 
d="M60 422l22 98h146l36 170h119l-36 -170h157l36 170h119l-36 -170h119l-22 -98h-118l-36 -167h149l-22 -98h-148l-33 -157h-119l33 157h-157l-33 -157h-119l33 157h-117l22 98h116l36 167h-147zM326 422l-36 -167h157l36 167h-157z" />
    <glyph glyph-name="dollar.tab" 
d="M376 -120h-114v113q-100 11 -151 62t-57 149h133q4 -63 37 -89t101 -26q130 0 130 97q0 38 -21.5 61.5t-55.5 34t-75 17.5t-82.5 18.5t-75.5 30.5t-55.5 59t-21.5 100q0 82 50.5 131t143.5 60v112h114v-113q184 -24 194 -190h-132q-5 52 -36.5 73t-89.5 21
q-116 0 -116 -93q0 -36 21.5 -57.5t55.5 -31.5t75.5 -17.5t83 -19t75.5 -31t55.5 -60.5t21.5 -100q0 -90 -53.5 -140t-154.5 -59v-112z" />
    <glyph glyph-name="parenleft.uc" horiz-adv-x="417" 
d="M370 -134q-143 21 -216.5 132.5t-73.5 346.5q0 121 20 209.5t59.5 144t90.5 85.5t120 41v-101q-79 -20 -123 -96.5t-44 -197.5v-170q0 -121 44 -196.5t123 -96.5v-101z" />
    <glyph glyph-name="parenright.uc" horiz-adv-x="417" 
d="M47 825q143 -21 216.5 -132.5t73.5 -346.5q0 -121 -20 -209.5t-59.5 -144t-90.5 -85.5t-120 -41v101q79 20 123 96.5t44 197.5v170q0 121 -44 196.5t-123 96.5v101z" />
    <glyph glyph-name="asterisk.icon" horiz-adv-x="728" 
d="M294 690h140l-16 -256l212 140l65 -113l-233 -115l233 -117l-64 -113l-213 141l16 -257h-140l17 258l-213 -142l-65 113l233 117l-233 115l64 113l214 -140z" />
    <glyph glyph-name="hyphen.uc" horiz-adv-x="420" 
d="M370 291h-320v117h320v-117z" />
    <glyph glyph-name="slash.uc" horiz-adv-x="446" 
d="M128 -60h-118l308 810h118z" />
    <glyph glyph-name="zero.den" horiz-adv-x="467" 
d="M429 212q0 -106 -49 -164.5t-147 -58.5q-97 0 -146 58.5t-49 164.5t49 165t146 59q98 0 147 -59t49 -165zM320 191v46q0 116 -86 116q-87 0 -87 -116v-46q0 -119 87 -119q86 0 86 119z" />
    <glyph glyph-name="zero.num" horiz-adv-x="467" 
d="M429 537q0 -106 -49 -164.5t-147 -58.5q-97 0 -146 58.5t-49 164.5t49 165t146 59q98 0 147 -59t49 -165zM320 516v46q0 116 -86 116q-87 0 -87 -116v-46q0 -119 87 -119q86 0 86 119z" />
    <glyph glyph-name="zero.sub" horiz-adv-x="467" 
d="M429 128q0 -106 -49 -164.5t-147 -58.5q-97 0 -146 58.5t-49 164.5t49 165t146 59q98 0 147 -59t49 -165zM320 107v46q0 116 -86 116q-87 0 -87 -116v-46q0 -119 87 -119q86 0 86 119z" />
    <glyph glyph-name="zero.sup" horiz-adv-x="467" 
d="M429 587q0 -106 -49 -164.5t-147 -58.5q-97 0 -146 58.5t-49 164.5t49 165t146 59q98 0 147 -59t49 -165zM320 566v46q0 116 -86 116q-87 0 -87 -116v-46q0 -119 87 -119q86 0 86 119z" />
    <glyph glyph-name="zero.tab" 
d="M594 345q0 -356 -275 -356q-274 0 -274 356t274 356q275 0 275 -356zM461 307v76q0 104 -32 160.5t-110 56.5q-77 0 -109.5 -56.5t-32.5 -160.5v-76q0 -106 32 -161t110 -56q78 0 110 55.5t32 161.5z" />
    <glyph glyph-name="one.den" horiz-adv-x="313" 
d="M24 235v108l104 82h108v-425h-108v319z" />
    <glyph glyph-name="one.num" horiz-adv-x="313" 
d="M24 560v108l104 82h108v-425h-108v319z" />
    <glyph glyph-name="one.sub" horiz-adv-x="313" 
d="M24 151v108l104 82h108v-425h-108v319z" />
    <glyph glyph-name="one.sup" horiz-adv-x="313" 
d="M24 610v108l104 82h108v-425h-108v319z" />
    <glyph glyph-name="one.tab" 
d="M110 444v124l167 122h127v-585h164v-105h-460v105h169v465z" />
    <glyph glyph-name="two.den" horiz-adv-x="397" 
d="M201 353q-59 0 -62 -51h-109q5 134 170 134q169 0 169 -129q0 -42 -21.5 -71t-53 -45t-64 -29t-58.5 -32t-31 -45h227v-85h-338v43q0 45 17 79t42.5 52.5t55 34.5t55 26t42.5 25t17 34v13q0 25 -13.5 35.5t-44.5 10.5z" />
    <glyph glyph-name="two.num" horiz-adv-x="397" 
d="M201 678q-59 0 -62 -51h-109q5 134 170 134q169 0 169 -129q0 -42 -21.5 -71t-53 -45t-64 -29t-58.5 -32t-31 -45h227v-85h-338v43q0 45 17 79t42.5 52.5t55 34.5t55 26t42.5 25t17 34v13q0 25 -13.5 35.5t-44.5 10.5z" />
    <glyph glyph-name="two.sub" horiz-adv-x="397" 
d="M201 269q-59 0 -62 -51h-109q5 134 170 134q169 0 169 -129q0 -42 -21.5 -71t-53 -45t-64 -29t-58.5 -32t-31 -45h227v-85h-338v43q0 45 17 79t42.5 52.5t55 34.5t55 26t42.5 25t17 34v13q0 25 -13.5 35.5t-44.5 10.5z" />
    <glyph glyph-name="two.sup" horiz-adv-x="397" 
d="M201 728q-59 0 -62 -51h-109q5 134 170 134q169 0 169 -129q0 -42 -21.5 -71t-53 -45t-64 -29t-58.5 -32t-31 -45h227v-85h-338v43q0 45 17 79t42.5 52.5t55 34.5t55 26t42.5 25t17 34v13q0 25 -13.5 35.5t-44.5 10.5z" />
    <glyph glyph-name="two.tab" 
d="M326 600q-54 0 -80.5 -24.5t-30.5 -85.5h-133q6 112 68.5 161.5t175.5 49.5q116 0 176.5 -48t60.5 -154q0 -70 -34.5 -118t-84.5 -74.5t-100.5 -49.5t-89 -58.5t-43.5 -86.5h353v-112h-489v63q0 63 19.5 112t51 78.5t69.5 52.5t76 40t69.5 34t51 42t19.5 58v28
q0 92 -105 92z" />
    <glyph glyph-name="three.alt" horiz-adv-x="608" 
d="M82 578v112h440v-89l-159 -185q105 -10 150 -60t45 -140q0 -227 -252 -227q-127 0 -191.5 51t-71.5 166h135q5 -61 34.5 -88.5t93.5 -27.5q124 0 124 103v37q0 50 -30.5 74.5t-97.5 24.5h-76v80l147 169h-291z" />
    <glyph glyph-name="three.den" horiz-adv-x="432" 
d="M219 71q69 0 69 46v16q0 46 -71 46h-40v82h39q56 0 56 38v14q0 41 -56 41q-57 0 -62 -41h-108q9 123 170 123q75 0 119.5 -28.5t44.5 -85.5q0 -36 -22 -62.5t-62 -36.5q48 -9 74 -35.5t26 -66.5q0 -63 -45.5 -97.5t-131.5 -34.5q-88 0 -133.5 32t-49.5 101h108
q7 -51 75 -51z" />
    <glyph glyph-name="three.num" horiz-adv-x="432" 
d="M219 396q69 0 69 46v16q0 46 -71 46h-40v82h39q56 0 56 38v14q0 41 -56 41q-57 0 -62 -41h-108q9 123 170 123q75 0 119.5 -28.5t44.5 -85.5q0 -36 -22 -62.5t-62 -36.5q48 -9 74 -35.5t26 -66.5q0 -63 -45.5 -97.5t-131.5 -34.5q-88 0 -133.5 32t-49.5 101h108
q7 -51 75 -51z" />
    <glyph glyph-name="three.sub" horiz-adv-x="432" 
d="M219 -13q69 0 69 46v16q0 46 -71 46h-40v82h39q56 0 56 38v14q0 41 -56 41q-57 0 -62 -41h-108q9 123 170 123q75 0 119.5 -28.5t44.5 -85.5q0 -36 -22 -62.5t-62 -36.5q48 -9 74 -35.5t26 -66.5q0 -63 -45.5 -97.5t-131.5 -34.5q-88 0 -133.5 32t-49.5 101h108
q7 -51 75 -51z" />
    <glyph glyph-name="three.sup" horiz-adv-x="432" 
d="M219 446q69 0 69 46v16q0 46 -71 46h-40v82h39q56 0 56 38v14q0 41 -56 41q-57 0 -62 -41h-108q9 123 170 123q75 0 119.5 -28.5t44.5 -85.5q0 -36 -22 -62.5t-62 -36.5q48 -9 74 -35.5t26 -66.5q0 -63 -45.5 -97.5t-131.5 -34.5q-88 0 -133.5 32t-49.5 101h108
q7 -51 75 -51z" />
    <glyph glyph-name="three.tab" 
d="M325 90q120 0 120 97v28q0 94 -118 94h-62v99h62q95 0 95 88v23q0 81 -97 81q-54 0 -80 -22t-29 -78h-134q8 201 242 201q107 0 168 -44.5t61 -136.5q0 -56 -29.5 -97.5t-83.5 -57.5q65 -14 100.5 -57t35.5 -109q0 -101 -63.5 -156t-187.5 -55q-128 0 -192.5 51
t-70.5 167h134q4 -61 34 -88.5t95 -27.5z" />
    <glyph glyph-name="three.tab.alt" 
d="M96 578v112h440v-89l-159 -185q104 -10 149 -60.5t45 -139.5q0 -227 -251 -227q-127 0 -191.5 51t-71.5 166h134q5 -61 35 -88.5t94 -27.5q124 0 124 103v37q0 50 -30.5 74.5t-97.5 24.5h-76v80l146 169h-290z" />
    <glyph glyph-name="four.alt" horiz-adv-x="624" 
d="M494 0h-128v162h-335v86l268 442h127l-258 -427h198v197h128v-197h107v-101h-107v-162z" />
    <glyph glyph-name="four.den" horiz-adv-x="443" 
d="M204 425h153v-260h69v-84h-69v-81h-105v81h-228v75zM126 165h126v188z" />
    <glyph glyph-name="four.num" horiz-adv-x="443" 
d="M204 750h153v-260h69v-84h-69v-81h-105v81h-228v75zM126 490h126v188z" />
    <glyph glyph-name="four.sub" horiz-adv-x="443" 
d="M204 341h153v-260h69v-84h-69v-81h-105v81h-228v75zM126 81h126v188z" />
    <glyph glyph-name="four.sup" horiz-adv-x="443" 
d="M204 800h153v-260h69v-84h-69v-81h-105v81h-228v75zM126 540h126v188z" />
    <glyph glyph-name="four.tab" 
d="M301 690h204v-427h100v-101h-100v-162h-127v162h-337v86zM170 263h208v354z" />
    <glyph glyph-name="four.tab.alt" 
d="M500 0h-126v162h-328v86l255 442h129l-247 -427h191v189h126v-189h103v-101h-103v-162z" />
    <glyph glyph-name="five.den" horiz-adv-x="424" 
d="M218 72q66 0 66 54v20q0 57 -68 57q-51 0 -75 -27l-97 16l25 233h293v-85h-212l-10 -92q36 33 98 33q75 0 115.5 -36.5t40.5 -105.5q0 -75 -45.5 -112.5t-129.5 -37.5q-174 0 -189 125h110q10 -42 78 -42z" />
    <glyph glyph-name="five.num" horiz-adv-x="424" 
d="M218 397q66 0 66 54v20q0 57 -68 57q-51 0 -75 -27l-97 16l25 233h293v-85h-212l-10 -92q36 33 98 33q75 0 115.5 -36.5t40.5 -105.5q0 -75 -45.5 -112.5t-129.5 -37.5q-174 0 -189 125h110q10 -42 78 -42z" />
    <glyph glyph-name="five.sub" horiz-adv-x="424" 
d="M218 -12q66 0 66 54v20q0 57 -68 57q-51 0 -75 -27l-97 16l25 233h293v-85h-212l-10 -92q36 33 98 33q75 0 115.5 -36.5t40.5 -105.5q0 -75 -45.5 -112.5t-129.5 -37.5q-174 0 -189 125h110q10 -42 78 -42z" />
    <glyph glyph-name="five.sup" horiz-adv-x="424" 
d="M218 447q66 0 66 54v20q0 57 -68 57q-51 0 -75 -27l-97 16l25 233h293v-85h-212l-10 -92q36 33 98 33q75 0 115.5 -36.5t40.5 -105.5q0 -75 -45.5 -112.5t-129.5 -37.5q-174 0 -189 125h110q10 -42 78 -42z" />
    <glyph glyph-name="five.tab" 
d="M328 90q59 0 88.5 29t29.5 93v34q0 118 -119 118q-82 0 -118 -56l-122 24l36 358h408v-112h-305l-18 -174q49 53 145 53q107 0 166 -57t59 -170q0 -119 -65 -180t-185 -61q-249 0 -268 211h134q7 -60 39.5 -85t94.5 -25z" />
    <glyph glyph-name="six.den" horiz-adv-x="451" 
d="M231 352q-42 0 -62.5 -24t-20.5 -82v-10q38 41 112 41q70 0 112 -36t42 -107q0 -70 -47 -107.5t-135 -37.5q-99 0 -145 48t-46 168q0 131 51.5 181t142.5 50q152 0 169 -117h-107q-10 33 -66 33zM230 70q73 0 73 55v19q0 55 -73 55q-76 0 -76 -65q0 -34 18.5 -49
t57.5 -15z" />
    <glyph glyph-name="six.num" horiz-adv-x="451" 
d="M231 678q-42 0 -62.5 -24t-20.5 -82v-10q38 41 112 41q70 0 112 -36t42 -107q0 -70 -47 -107.5t-135 -37.5q-99 0 -145 48t-46 168q0 131 51.5 181t142.5 50q152 0 169 -117h-107q-10 33 -66 33zM230 396q73 0 73 55v19q0 55 -73 55q-76 0 -76 -65q0 -34 18.5 -49
t57.5 -15z" />
    <glyph glyph-name="six.sub" horiz-adv-x="451" 
d="M231 268q-42 0 -62.5 -24t-20.5 -82v-10q38 41 112 41q70 0 112 -36t42 -107q0 -70 -47 -107.5t-135 -37.5q-99 0 -145 48t-46 168q0 131 51.5 181t142.5 50q152 0 169 -117h-107q-10 33 -66 33zM230 -14q73 0 73 55v19q0 55 -73 55q-76 0 -76 -65q0 -34 18.5 -49
t57.5 -15z" />
    <glyph glyph-name="six.sup" horiz-adv-x="451" 
d="M231 728q-42 0 -62.5 -24t-20.5 -82v-10q38 41 112 41q70 0 112 -36t42 -107q0 -70 -47 -107.5t-135 -37.5q-99 0 -145 48t-46 168q0 131 51.5 181t142.5 50q152 0 169 -117h-107q-10 33 -66 33zM230 446q73 0 73 55v19q0 55 -73 55q-76 0 -76 -65q0 -34 18.5 -49
t57.5 -15z" />
    <glyph glyph-name="six.tab" 
d="M331 599q-69 0 -104 -47.5t-35 -168.5v-17q55 76 171 76q102 0 160.5 -56t58.5 -164q0 -112 -66 -172.5t-190 -60.5q-138 0 -202 79t-64 271q0 105 20 177.5t58.5 112t86 56t110.5 16.5q110 0 168 -47t66 -129h-131q-15 74 -107 74zM326 89q124 0 124 118v32
q0 109 -124 109q-127 0 -127 -127q0 -70 31 -101t96 -31z" />
    <glyph glyph-name="seven.den" horiz-adv-x="348" 
d="M14 340v85h323v-69l-180 -356h-103l172 340h-212z" />
    <glyph glyph-name="seven.num" horiz-adv-x="348" 
d="M14 665v85h323v-69l-180 -356h-103l172 340h-212z" />
    <glyph glyph-name="seven.sub" horiz-adv-x="348" 
d="M14 256v85h323v-69l-180 -356h-103l172 340h-212z" />
    <glyph glyph-name="seven.sup" horiz-adv-x="348" 
d="M14 715v85h323v-69l-180 -356h-103l172 340h-212z" />
    <glyph glyph-name="seven.tab" 
d="M78 578v112h489v-86l-286 -604h-126l273 578h-350z" />
    <glyph glyph-name="eight.den" horiz-adv-x="459" 
d="M229 -11q-193 0 -193 130q0 37 23.5 63.5t64.5 38.5q-71 26 -71 94q0 61 46.5 91t129.5 30q177 0 177 -121q0 -68 -70 -94q40 -12 63.5 -38.5t23.5 -63.5q0 -130 -194 -130zM229 176q-83 0 -83 -48v-11q0 -49 83 -49q84 0 84 49v11q0 48 -84 48zM229 257q69 0 69 47v7
q0 46 -69 46q-68 0 -68 -46v-7q0 -47 68 -47z" />
    <glyph glyph-name="eight.num" horiz-adv-x="459" 
d="M229 314q-193 0 -193 130q0 37 23.5 63.5t64.5 38.5q-71 26 -71 94q0 61 46.5 91t129.5 30q177 0 177 -121q0 -68 -70 -94q40 -12 63.5 -38.5t23.5 -63.5q0 -130 -194 -130zM229 501q-83 0 -83 -48v-11q0 -49 83 -49q84 0 84 49v11q0 48 -84 48zM229 582q69 0 69 47v7
q0 46 -69 46q-68 0 -68 -46v-7q0 -47 68 -47z" />
    <glyph glyph-name="eight.sub" horiz-adv-x="459" 
d="M229 -95q-193 0 -193 130q0 37 23.5 63.5t64.5 38.5q-71 26 -71 94q0 61 46.5 91t129.5 30q177 0 177 -121q0 -68 -70 -94q40 -12 63.5 -38.5t23.5 -63.5q0 -130 -194 -130zM229 92q-83 0 -83 -48v-11q0 -49 83 -49q84 0 84 49v11q0 48 -84 48zM229 173q69 0 69 47v7
q0 46 -69 46q-68 0 -68 -46v-7q0 -47 68 -47z" />
    <glyph glyph-name="eight.sup" horiz-adv-x="459" 
d="M229 364q-193 0 -193 130q0 37 23.5 63.5t64.5 38.5q-71 26 -71 94q0 61 46.5 91t129.5 30q177 0 177 -121q0 -68 -70 -94q40 -12 63.5 -38.5t23.5 -63.5q0 -130 -194 -130zM229 551q-83 0 -83 -48v-11q0 -49 83 -49q84 0 84 49v11q0 48 -84 48zM229 632q69 0 69 47v7
q0 46 -69 46q-68 0 -68 -46v-7q0 -47 68 -47z" />
    <glyph glyph-name="eight.tab" 
d="M319 -11q-270 0 -270 203q0 67 35.5 112t98.5 63q-53 16 -81 54.5t-28 93.5q0 94 64.5 140t180.5 46q245 0 245 -186q0 -114 -107 -148q62 -18 97 -63t35 -112q0 -203 -270 -203zM319 312q-139 0 -139 -101v-23q0 -100 139 -100t139 100v23q0 101 -139 101zM319 407
q114 0 114 90v16q0 89 -114 89t-114 -89v-16q0 -47 28 -68.5t86 -21.5z" />
    <glyph glyph-name="nine.den" horiz-adv-x="451" 
d="M220 73q42 0 62.5 24t20.5 82v10q-38 -41 -112 -41q-70 0 -112 36t-42 107q0 70 47 107.5t135 37.5q99 0 145 -48t46 -168q0 -131 -51.5 -181t-142.5 -50q-152 0 -169 117h107q10 -33 66 -33zM221 355q-73 0 -73 -55v-19q0 -55 73 -55q76 0 76 65q0 34 -18.5 49t-57.5 15
z" />
    <glyph glyph-name="nine.num" horiz-adv-x="451" 
d="M220 398q42 0 62.5 24t20.5 82v10q-38 -41 -112 -41q-70 0 -112 36t-42 107q0 70 47 107.5t135 37.5q99 0 145 -48t46 -168q0 -131 -51.5 -181t-142.5 -50q-152 0 -169 117h107q10 -33 66 -33zM221 680q-73 0 -73 -55v-19q0 -55 73 -55q76 0 76 65q0 34 -18.5 49
t-57.5 15z" />
    <glyph glyph-name="nine.sub" horiz-adv-x="451" 
d="M220 -11q42 0 62.5 24t20.5 82v10q-38 -41 -112 -41q-70 0 -112 36t-42 107q0 70 47 107.5t135 37.5q99 0 145 -48t46 -168q0 -131 -51.5 -181t-142.5 -50q-152 0 -169 117h107q10 -33 66 -33zM221 271q-73 0 -73 -55v-19q0 -55 73 -55q76 0 76 65q0 34 -18.5 49
t-57.5 15z" />
    <glyph glyph-name="nine.sup" horiz-adv-x="451" 
d="M220 448q42 0 62.5 24t20.5 82v10q-38 -41 -112 -41q-70 0 -112 36t-42 107q0 70 47 107.5t135 37.5q99 0 145 -48t46 -168q0 -131 -51.5 -181t-142.5 -50q-152 0 -169 117h107q10 -33 66 -33zM221 730q-73 0 -73 -55v-19q0 -55 73 -55q76 0 76 65q0 34 -18.5 49
t-57.5 15z" />
    <glyph glyph-name="nine.tab" 
d="M307 95q69 0 104 47.5t35 168.5v17q-55 -76 -171 -76q-102 0 -160.5 56t-58.5 164q0 112 66 172.5t190 60.5q138 0 202 -79t64 -271q0 -105 -20 -177.5t-58.5 -112t-86 -56t-110.5 -16.5q-110 0 -168 47t-66 129h131q15 -74 107 -74zM312 605q-124 0 -124 -118v-32
q0 -109 124 -109q127 0 127 127q0 70 -31 101t-96 31z" />
    <glyph glyph-name="at.uc" horiz-adv-x="1050" 
d="M490 107q-101 0 -152.5 62.5t-51.5 177.5t51.5 177.5t152.5 62.5q93 0 141 -68v55h111v-276q0 -58 15 -78t46 -20q76 0 76 135v58q0 72 -20.5 128t-53.5 90t-80 56t-94.5 30t-102.5 8q-69 0 -128 -15t-112 -49t-83.5 -99.5t-30.5 -156.5v-66q0 -77 23 -137t58.5 -95.5
t84 -58.5t94 -31t94.5 -8q53 0 116.5 11t96.5 32v-94q-68 -41 -213 -41q-70 0 -133 11.5t-126.5 43t-109 81t-74 130.5t-28.5 186q0 116 35.5 203.5t100 140t148.5 78.5t187 26q211 0 338 -106t127 -315q0 -129 -54.5 -199t-144.5 -70q-62 0 -98 27t-46 70q-42 -97 -160 -97
zM518 198q54 0 82 33.5t28 93.5v43q0 128 -110 128t-110 -128v-43q0 -127 110 -127z" />
    <glyph glyph-name="bracketleft.uc" horiz-adv-x="390" 
d="M343 -128h-258v950h258v-99h-143v-752h143v-99z" />
    <glyph glyph-name="backslash.uc" horiz-adv-x="446" 
d="M318 -60l-308 810h118l308 -810h-118z" />
    <glyph glyph-name="bracketright.uc" horiz-adv-x="390" 
d="M47 822h258v-950h-258v99h143v752h-143v99z" />
    <glyph glyph-name="a.alt" horiz-adv-x="614" 
d="M425 0v66q-51 -77 -158 -77q-110 0 -166 68.5t-56 193.5q0 127 56 195.5t165 68.5q108 0 159 -78v67h117v-504h-117zM296 80q62 0 93 35.5t31 99.5v82q-3 127 -124 127q-124 0 -124 -133v-76q0 -64 31 -99.5t93 -35.5z" />
    <glyph glyph-name="braceleft.uc" horiz-adv-x="404" 
d="M231 657v-164q0 -65 -17.5 -100.5t-74.5 -47.5q58 -8 75 -43t17 -102v-159q0 -40 11.5 -55.5t41.5 -15.5h74v-99h-117q-69 0 -96.5 31t-27.5 104v166q0 61 -15.5 88.5t-66.5 28.5v115q50 1 66 30t16 86v167q0 73 27.5 104t96.5 31h117v-100h-74q-31 0 -42 -14t-11 -51z
" />
    <glyph glyph-name="bar.uc" horiz-adv-x="259" 
d="M187 -100h-115v890h115v-890z" />
    <glyph glyph-name="braceright.uc" horiz-adv-x="404" 
d="M173 36v164q0 65 17.5 100.5t74.5 47.5q-58 8 -75 43t-17 102v159q0 40 -11.5 55.5t-41.5 15.5h-74v99h117q69 0 96.5 -31t27.5 -104v-166q0 -61 15.5 -88.5t66.5 -28.5v-115q-50 -1 -66 -30t-16 -86v-167q0 -73 -27.5 -104t-96.5 -31h-117v100h74q31 0 42 14t11 51z" />
    <glyph glyph-name="cent.tab" 
d="M380 -120h-112v113q-177 29 -177 259t177 259v113h112v-112q152 -19 166 -172h-123q-8 84 -98 84q-107 0 -107 -131v-79q0 -134 107 -134q45 0 70 18.5t31 62.5h123q-20 -148 -169 -168v-113z" />
    <glyph glyph-name="sterling.tab" 
d="M85 262v94h74q-58 82 -58 152q0 95 60.5 144t172.5 49q219 0 230 -187h-132q-9 87 -98 87q-51 0 -76 -21.5t-25 -74.5v-7q0 -21 7 -41.5t14.5 -33t23 -34.5t22.5 -33h193v-94h-160q2 -18 2 -29q0 -82 -66 -128h301v-105h-508v102q65 0 109 29.5t44 84.5v20q0 12 -3 26
h-127z" />
    <glyph glyph-name="yen.tab" 
d="M172 690l156 -239l149 239h131l-201 -312h143v-94h-166v-64h166v-93h-166v-127h-127v127h-166v93h166v64h-166v94h142l-203 312h142z" />
    <glyph glyph-name="dieresis.uc" horiz-adv-x="517" 
d="M443 844q0 -72 -73 -72t-73 72t73 72t73 -72zM219 844q0 -72 -73 -72t-73 72t73 72t73 -72z" />
    <glyph glyph-name="guillemotleft.uc" horiz-adv-x="519" 
d="M248 460l-129 -107l130 -108v-130l-213 184v101l212 184v-124zM476 460l-129 -107l130 -108v-130l-213 184v101l212 184v-124z" />
    <glyph glyph-name="guillemotright.uc" horiz-adv-x="519" 
d="M271 239l129 107l-130 108v130l213 -184v-101l-212 -184v124zM43 239l129 107l-130 108v130l213 -184v-101l-212 -184v124z" />
    <glyph glyph-name="endash.uc" horiz-adv-x="645" 
d="M595 301h-545v98h545v-98z" />
    <glyph glyph-name="emdash.uc" horiz-adv-x="885" 
d="M815 301h-745v98h745v-98z" />
    <glyph glyph-name="guilsinglleft.uc" horiz-adv-x="286" 
d="M248 460l-129 -107l130 -108v-130l-213 184v101l212 184v-124z" />
    <glyph glyph-name="guilsinglright.uc" horiz-adv-x="286" 
d="M43 239l129 107l-130 108v130l213 -184v-101l-212 -184v124z" />
    <glyph glyph-name="Euro.tab" 
d="M36 376v88h79q39 237 250 237q107 0 165 -47t74 -152h-127q-14 100 -112 100q-54 0 -85.5 -33.5t-41.5 -104.5h187v-88h-191v-60h191v-88h-187q10 -72 40.5 -106t86.5 -34q49 0 76.5 22t36.5 76h127q-15 -103 -74.5 -150t-165.5 -47q-213 0 -250 239h-79v88h71v30v30h-71
z" />
    <glyph glyph-name="uni20B4.tab" 
d="M320 85q50 0 76 17.5t34 55.5h132q-15 -169 -243 -169q-239 0 -239 153q0 50 32 89h-56v88h526v-88h-331q-38 -24 -38 -61v-17q0 -68 107 -68zM323 605q-89 0 -102 -73h-132q6 81 67 125t168 44q110 0 166.5 -42.5t56.5 -115.5q0 -45 -26 -81h61v-86h-526v86h326
q32 22 32 57v16q0 70 -91 70z" />
    <glyph glyph-name="uni20B8.tab" 
d="M580 439h-197v-439h-128v439h-196v94h521v-94zM580 596h-521v94h521v-94z" />
    <glyph glyph-name="uni20BD.tab" 
d="M598 480q0 -96 -58 -148t-171 -52h-134v-65h215v-90h-215v-125h-127v125h-69v90h69v65h-69v99h69v311h261q113 0 171 -55t58 -155zM465 463v31q0 92 -108 92h-122v-207h122q55 0 81.5 23t26.5 61z" />
    <glyph glyph-name="cyrbreve" horiz-adv-x="518" 
d="M333 740h100q0 -159 -174 -159t-174 159h101q0 -47 17.5 -65.5t55.5 -18.5q39 0 56.5 18.5t17.5 65.5z" />
    <glyph glyph-name="cyrbreve.uc" horiz-adv-x="510" 
d="M328 901h108q0 -160 -182 -160q-183 0 -183 160h108q0 -44 17.5 -62.5t57.5 -18.5t57 18.5t17 62.5z" />
    <glyph glyph-name="egg.icon" horiz-adv-x="1007" 
d="M836 292q0 -71 -20.5 -135t-60 -116.5t-105 -84t-147.5 -31.5q-109 0 -186.5 54.5t-112 135t-34.5 174.5q0 129 47.5 257.5t126 211.5t159.5 83t159.5 -83t126 -211t47.5 -255z" />
    <glyph glyph-name="phone1.icon" horiz-adv-x="544" 
d="M133 -11q-40 0 -77 34q-31 28 -31 46q0 11 15 30l86 108q11 13 24 13q11 0 35 -18q29 -21 42 -21q18 0 40.5 27t63.5 99q60 106 60 145q0 11 -6.5 19t-26.5 18q-28 13 -36 20t-8 17q0 8 11 34l47 107q10 22 16.5 28t17.5 6q33 0 84 -34q19 -13 26 -28t7 -43
q0 -142 -115 -339q-112 -192 -203 -246q-39 -22 -72 -22z" />
    </font>
</defs>
</svg>
