<svg width="80" height="80" viewBox="0 0 80 80" fill="none" xmlns="http://www.w3.org/2000/svg">
<path d="M71.9741 67.8927C71.0923 65.007 66.3629 62.5488 61.7671 60.2375C60.5647 59.6229 59.4024 59.0351 58.387 58.4606C58.077 58.2834 57.7092 58.2368 57.3647 58.3307C57.0202 58.4247 56.7272 58.6516 56.55 58.9616C56.3728 59.2716 56.3261 59.6394 56.4201 59.9839C56.514 60.3284 56.741 60.6214 57.051 60.7986C58.0931 61.3731 59.2955 61.9877 60.5246 62.6156C64.0382 64.4192 68.8478 66.8774 69.3956 68.681C70.5312 72.4351 70.5846 72.9695 70.5846 74.025C70.6069 74.2228 70.5696 74.4228 70.4777 74.5994C69.7013 74.8225 68.8869 74.8817 68.0863 74.7731H66.8171H12.4422C11.4536 74.7731 10.0909 74.7731 9.77023 74.4925C9.66621 74.3443 9.6145 74.1657 9.62327 73.9848C9.73015 73.4905 10.131 71.727 10.9593 68.6409C11.5605 66.3029 17.5056 62.9228 28.5543 58.6209C30.1058 58.1059 31.4902 57.183 32.5623 55.9489C32.7749 55.6655 32.8661 55.3092 32.816 54.9584C32.7659 54.6077 32.5785 54.2912 32.2951 54.0786C32.0116 53.866 31.6553 53.7747 31.3045 53.8248C30.9538 53.8749 30.6373 54.0623 30.4247 54.3458C29.6586 55.1794 28.6932 55.8046 27.6191 56.1627C18.708 59.623 9.44959 63.7512 8.34072 68.0264C7.39217 71.7137 7.00473 73.5173 7.00473 73.5974C6.99878 73.6864 6.99878 73.7757 7.00473 73.8646C6.98032 74.3311 7.05059 74.7976 7.21132 75.2362C7.37204 75.6747 7.61989 76.0762 7.93992 76.4164C9.07551 77.5252 10.7589 77.4852 12.5491 77.4585H66.8973H68.0729H69.2085C69.7801 77.5198 70.3582 77.4663 70.9088 77.3011C71.4594 77.1359 71.9715 76.8623 72.4149 76.4965C72.732 76.1685 72.9776 75.7784 73.1363 75.3507C73.2949 74.923 73.3632 74.467 73.3368 74.0116C73.2833 72.5821 73.1631 71.8072 71.9741 67.8927Z" fill="#E30611"/>
<path d="M18.7473 45.3143H22.7552C23.0987 45.3291 23.4416 45.274 23.7631 45.1523C24.0846 45.0305 24.378 44.8448 24.6256 44.6063C24.9582 44.1687 25.2004 43.6692 25.338 43.1371C25.4756 42.605 25.506 42.0508 25.4272 41.5068V41.3732C25.6366 41.5166 25.8605 41.6375 26.0952 41.7339C26.7482 43.2925 27.5537 44.7827 28.5 46.1828L29.2482 47.3584C30.0527 48.8025 31.1547 50.0594 32.4813 51.0457C34.6527 52.7829 37.297 53.8258 40.0697 54.0384C40.3011 54.0499 40.533 54.0499 40.7644 54.0384C43.4909 53.8934 46.0787 52.7911 48.0723 50.9256C49.2706 49.9383 50.2762 48.7379 51.0382 47.3851C51.3054 46.9443 51.5726 46.5301 51.8264 46.1293C52.7832 44.7217 53.5977 43.2224 54.2579 41.6537C54.4545 41.5698 54.6425 41.4669 54.8191 41.3464V41.4667C54.738 42.0107 54.7672 42.5654 54.9049 43.0979C55.0426 43.6304 55.286 44.1297 55.6206 44.5662C55.7733 44.7214 55.9491 44.8521 56.1417 44.9536C56.0482 48.0932 55.2733 54.1854 52.3207 55.2408C51.6543 54.7756 50.8623 54.5239 50.0496 54.5193C49.7349 54.5211 49.4213 54.557 49.1144 54.6262L42.6214 56.176C41.6634 56.4017 40.822 56.9721 40.2575 57.7783C39.693 58.5846 39.4449 59.5703 39.5605 60.5477C39.676 61.5252 40.1472 62.4259 40.8842 63.0782C41.6212 63.7306 42.5724 64.089 43.5566 64.0851C43.8668 64.0825 44.1759 64.0466 44.4785 63.9781L50.9714 62.4284C51.4837 62.3074 51.9672 62.0867 52.3942 61.7788C52.8212 61.4709 53.1834 61.082 53.4601 60.6341C53.7367 60.1862 53.9225 59.6883 54.0066 59.1686C54.0908 58.649 54.0718 58.1178 53.9507 57.6055V57.4719C58.0789 55.3476 58.7602 48.347 58.8537 45.2743H61.5257C62.6211 45.2139 63.6839 44.8803 64.6174 44.3039C65.5508 43.7275 66.3251 42.9266 66.8697 41.9743C67.7351 40.067 68.1828 37.9968 68.1828 35.9023C68.1828 33.8078 67.7351 31.7375 66.8697 29.8302C66.3193 28.8862 65.5426 28.0939 64.6097 27.5249C63.6768 26.9558 62.617 26.6278 61.5257 26.5704C61.6882 23.6672 61.2567 20.7614 60.2575 18.0307C59.2584 15.3001 57.7127 12.802 55.7149 10.6893C53.7171 8.57653 51.3092 6.89359 48.6387 5.74342C45.9681 4.59325 43.091 4 40.1833 4C37.2755 4 34.3984 4.59325 31.7278 5.74342C29.0573 6.89359 26.6494 8.57653 24.6516 10.6893C22.6539 12.802 21.1081 15.3001 20.109 18.0307C19.1098 20.7614 18.6783 23.6672 18.8408 26.5704C17.747 26.6306 16.6855 26.9626 15.7523 27.5365C14.8192 28.1104 14.044 28.9079 13.4968 29.8569C12.6294 31.7661 12.1807 33.8387 12.1807 35.9357C12.1807 38.0326 12.6294 40.1053 13.4968 42.0144C14.0338 42.9533 14.7936 43.7455 15.7094 44.321C16.6251 44.8965 17.6684 45.2377 18.7473 45.3143ZM50.3568 59.8633L43.8639 61.4131C43.6928 61.4548 43.5152 61.4624 43.3412 61.4352C43.1672 61.4081 43.0003 61.3468 42.85 61.255C42.6998 61.1631 42.5692 61.0424 42.4658 60.8998C42.3623 60.7573 42.2881 60.5958 42.2474 60.4244C42.2056 60.2534 42.1981 60.0757 42.2252 59.9017C42.2523 59.7277 42.3136 59.5608 42.4055 59.4105C42.4974 59.2603 42.618 59.1297 42.7606 59.0263C42.9031 58.9229 43.0647 58.8486 43.236 58.8079L49.7423 57.2715C49.8442 57.2576 49.9476 57.2576 50.0496 57.2715C50.4039 57.2308 50.7599 57.3324 51.0392 57.5541C51.3186 57.7759 51.4984 58.0995 51.5392 58.4538C51.5799 58.8081 51.4783 59.1641 51.2565 59.4435C51.0348 59.7229 50.7112 59.9028 50.3568 59.9435V59.8633ZM53.7369 38.7146C53.5929 38.982 53.3549 39.1867 53.0689 39.289C52.8287 39.3231 52.6023 39.4219 52.414 39.5749C52.2257 39.7279 52.0826 39.9293 52.0001 40.1574C51.3678 41.7688 50.5519 43.3019 49.5686 44.7265L48.7536 46.0625C48.1566 47.1549 47.3589 48.1249 46.4023 48.9216C42.9554 51.7806 40.5106 51.4465 40.4304 51.4332C40.3463 51.4201 40.2607 51.4201 40.1766 51.4332C37.9498 51.2341 35.831 50.3839 34.0844 48.9883C33.0357 48.1908 32.1625 47.1857 31.5193 46.0358C31.2655 45.6083 31.0117 45.2075 30.7578 44.8067C29.7715 43.3787 28.9639 41.8353 28.353 40.2109C28.2509 39.9664 28.0834 39.7549 27.8689 39.5993C27.6545 39.4438 27.4013 39.3503 27.1373 39.3291C26.8486 39.2314 26.6091 39.0255 26.4693 38.7546C26.3624 38.5675 26.2117 38.409 26.0303 38.2927C25.8488 38.1763 25.6419 38.1057 25.4272 38.0866V33.3572C25.5915 33.3821 25.7592 33.3714 25.9191 33.3259C26.0789 33.2804 26.2271 33.2012 26.3537 33.0936C26.4804 32.986 26.5824 32.8524 26.6531 32.702C26.7237 32.5516 26.7613 32.3878 26.7632 32.2216C26.9055 29.3435 27.5521 26.5127 28.6737 23.8583C31.0117 18.3941 34.9261 15.6286 40.4438 15.6286C53.8037 15.6286 53.8037 31.2731 53.8037 31.9411C53.8037 32.6091 54.8458 33.2771 54.8458 33.2771V38.1134C54.6257 38.1145 54.4094 38.17 54.2159 38.2748C54.0225 38.3797 53.8579 38.5308 53.7369 38.7146ZM64.4248 31.0059C65.1236 32.5578 65.4849 34.2404 65.4849 35.9424C65.4849 37.6443 65.1236 39.3269 64.4248 40.8789C64.0944 41.3735 63.658 41.7884 63.1473 42.0934C62.6366 42.3984 62.0645 42.5859 61.4723 42.6423H57.4643C57.4428 42.2686 57.4428 41.8939 57.4643 41.5201V30.418C57.4431 30.0442 57.4431 29.6696 57.4643 29.2958H61.4723C62.0623 29.3441 62.6342 29.5226 63.147 29.8182C63.6598 30.1139 64.1008 30.5195 64.4382 31.0059H64.4248ZM40.1098 7.90654C45.0446 7.98903 49.7542 9.98612 53.2442 13.4761C56.7341 16.966 58.7312 21.6756 58.8137 26.6104H57.4777C56.9221 26.5956 56.3757 26.7544 55.9146 27.0647C54.8191 21.4268 51.3722 12.8096 40.5373 12.8096C29.7024 12.8096 25.9883 21.7474 24.7325 27.5056L24.6123 27.372C24.3647 27.1334 24.0712 26.9477 23.7497 26.826C23.4282 26.7042 23.0853 26.6491 22.7419 26.6639H21.4059C21.4781 21.7185 23.472 16.9954 26.9655 13.4944C30.4591 9.99335 35.1779 7.98931 40.1231 7.90654H40.1098ZM15.7947 31.0326C16.1216 30.5358 16.5573 30.1199 17.0689 29.8166C17.5805 29.5134 18.1545 29.3307 18.7473 29.2824H22.7552C22.7765 29.6562 22.7765 30.0309 22.7552 30.4047V41.5068C22.7767 41.885 22.7767 42.2641 22.7552 42.6423H18.7473C18.1591 42.5952 17.5893 42.4156 17.0803 42.1172C16.5713 41.8188 16.1364 41.4091 15.8081 40.9189C15.1052 39.3661 14.7406 37.6816 14.7383 35.9772C14.736 34.2727 15.0961 32.5873 15.7947 31.0326Z" fill="#E30611"/>
</svg>
