<svg width="80" height="80" viewBox="0 0 80 80" fill="none" xmlns="http://www.w3.org/2000/svg">
<path d="M63.6753 25.3379C63.3603 21.3237 61.6879 17.5364 58.9334 14.5994C56.1789 11.6624 52.5065 9.7509 48.5207 9.17944C44.5349 8.60798 40.4733 9.41067 37.0046 11.4554C33.5358 13.5001 30.8666 16.665 29.4364 20.429C28.3159 20.0984 27.1534 19.9317 25.9851 19.9339C22.8766 19.9367 19.8845 21.1169 17.6112 23.2371C15.338 25.3572 13.9524 28.2599 13.7333 31.3607C10.3292 32.3171 7.38336 34.4675 5.43504 37.4183C3.48672 40.369 2.66622 43.9227 3.1237 47.4289C3.58117 50.9351 5.28603 54.1592 7.92624 56.5113C10.5664 58.8633 13.9654 60.1859 17.5009 60.2369H24.8437C25.2084 60.2369 25.5582 60.092 25.8161 59.8341C26.074 59.5762 26.2188 59.2265 26.2188 58.8618C26.2188 58.4971 26.074 58.1474 25.8161 57.8895C25.5582 57.6316 25.2084 57.4867 24.8437 57.4867H17.5009C14.5639 57.4133 11.7566 56.2617 9.61409 54.2514C7.47161 52.2411 6.14381 49.5127 5.8838 46.5862C5.62378 43.6598 6.44972 40.74 8.20421 38.3835C9.95869 36.0269 12.519 34.3984 15.3971 33.8083C15.7174 33.7497 16.0066 33.5793 16.2131 33.3275C16.4196 33.0757 16.53 32.7588 16.5247 32.4332C16.5247 32.4332 16.5247 32.2682 16.5247 32.2545C16.5458 29.7443 17.5468 27.3417 19.3141 25.559C21.0814 23.7763 23.4752 22.7545 25.9851 22.7116C26.8789 22.7142 27.7678 22.8438 28.6252 23.0966C28.4999 23.7376 28.4081 24.3848 28.3502 25.0354C28.3197 25.3982 28.4343 25.7582 28.6688 26.0366C28.9034 26.315 29.2388 26.489 29.6014 26.5205H29.7115C30.0579 26.5216 30.3919 26.3919 30.6469 26.1574C30.9018 25.9228 31.0588 25.6007 31.0865 25.2554C31.1449 24.5851 31.2459 23.9191 31.389 23.2616C31.4028 23.1658 31.4028 23.0686 31.389 22.9728C31.4816 22.8588 31.5516 22.7281 31.5953 22.5878C32.5498 19.2741 34.6187 16.3914 37.4526 14.4266C40.2865 12.4618 43.7118 11.5353 47.1497 11.8036C50.5877 12.0719 53.8277 13.5186 56.3225 15.8993C58.8172 18.28 60.4139 21.4488 60.8427 24.8704C60.1175 24.829 59.3901 24.8566 58.6701 24.9529C58.4896 24.9764 58.3154 25.0352 58.1575 25.126C57.9997 25.2168 57.8613 25.3378 57.7502 25.4821C57.5258 25.7735 57.4264 26.142 57.4739 26.5067C57.5213 26.8714 57.7116 27.2023 58.003 27.4267C58.2944 27.651 58.663 27.7504 59.0277 27.703C59.9985 27.5838 60.982 27.6162 61.9428 27.7993H62.094C65.6177 28.4578 68.7888 30.3574 71.0319 33.1536C73.275 35.9498 74.4417 39.4573 74.3203 43.04C74.1989 46.6227 72.7974 50.0432 70.3701 52.6811C67.9428 55.319 64.6505 56.9996 61.0903 57.418L58.4089 57.528H53.7062C53.3415 57.528 52.9918 57.6729 52.7339 57.9308C52.476 58.1886 52.3311 58.5384 52.3311 58.9031C52.3311 59.2678 52.476 59.6175 52.7339 59.8754C52.9918 60.1332 53.3415 60.2781 53.7062 60.2781H58.4639L61.2965 60.1681C65.4356 59.7155 69.2835 57.8213 72.1665 54.8171C75.0495 51.813 76.7838 47.8904 77.0658 43.7362C77.3478 39.5821 76.1594 35.4611 73.7088 32.0949C71.2582 28.7288 67.7015 26.3319 63.6616 25.3242L63.6753 25.3379Z" fill="#E30611"/>
<path d="M39.6338 38.1952C39.3867 37.9894 39.0753 37.8767 38.7537 37.8767C38.4322 37.8767 38.1208 37.9894 37.8737 38.1952L29.6234 45.0704C29.3426 45.3038 29.166 45.6392 29.1324 46.0028C29.0989 46.3664 29.2112 46.7285 29.4446 47.0093C29.678 47.2901 30.0134 47.4667 30.377 47.5002C30.7406 47.5337 31.1026 47.4214 31.3834 47.188L37.3787 42.1828L37.3787 69.5052C37.3787 69.8699 37.5236 70.2196 37.7814 70.4775C38.0393 70.7354 38.3891 70.8802 38.7537 70.8802C39.1184 70.8802 39.4682 70.7354 39.7261 70.4775C39.9839 70.2196 40.1288 69.8699 40.1288 69.5052L40.1288 42.1828L46.124 47.188C46.4049 47.4214 46.7669 47.5337 47.1305 47.5002C47.4941 47.4667 47.8295 47.2901 48.0629 47.0093C48.2963 46.7285 48.4086 46.3664 48.375 46.0028C48.3415 45.6392 48.1649 45.3038 47.8841 45.0704L39.6338 38.1952Z" fill="#E30611"/>
</svg>
