<svg width="80" height="80" viewBox="0 0 80 80" fill="none" xmlns="http://www.w3.org/2000/svg">
<path d="M77.7293 64.8953C77.5592 64.1293 77.2315 63.4071 76.767 62.7748C76.3024 62.1424 75.7113 61.6138 75.0312 61.2225L58.3057 49.7943C57.4548 49.2053 56.4446 48.8899 55.4098 48.8902C54.6203 48.8873 53.8414 49.0715 53.1367 49.4275C52.432 49.7835 51.8217 50.3013 51.3555 50.9385L47.0188 57.0835C46.7112 57.568 46.5585 58.1346 46.5809 58.708C44.914 58.9481 40.111 58.8068 32.2144 50.9102C24.5862 43.2962 20.9134 37.6881 21.4361 34.2271C21.5175 34.1739 21.5933 34.1123 21.6621 34.0435C22.044 33.9563 22.4043 33.793 22.7216 33.5632L28.7111 29.0287C29.7639 28.2103 30.452 27.0103 30.6265 25.6884C30.801 24.3665 30.4478 23.029 29.6435 21.9655L17.6644 5.62142C15.3618 2.48538 12.6495 2.16049 9.73952 4.66084C7.34421 6.92292 5.27173 9.504 3.58046 12.3314C2.90566 13.4675 2.60427 14.7867 2.71876 16.1031C1.69775 21.0116 1.76526 26.0843 2.91653 30.964C5.1061 41.2055 11.0109 51.0515 20.4614 60.2054C36.2828 75.5182 50.1266 77.8067 57.0484 77.8067C59.826 77.8838 62.5939 77.4479 65.2134 76.5212C66.4712 76.5471 67.709 76.2033 68.7733 75.5324C71.5473 73.7485 74.062 71.5904 76.2461 69.119C76.7796 68.5611 77.1879 67.8957 77.4437 67.1674C77.6995 66.439 77.7969 65.6643 77.7293 64.8953ZM74.0706 67.3532C72.1035 69.5636 69.8464 71.4976 67.3606 73.1027C67.1082 73.2481 66.8435 73.371 66.5695 73.4699C64.2702 72.5763 62.1433 71.2906 60.2834 69.67C60.1668 69.5249 60.0227 69.4043 59.8593 69.315C59.696 69.2258 59.5166 69.1697 59.3315 69.15C59.1464 69.1303 58.9592 69.1474 58.7808 69.2002C58.6023 69.2531 58.4361 69.3407 58.2916 69.458C58.0026 69.6932 57.8182 70.0329 57.7785 70.4033C57.7389 70.7737 57.8471 71.1448 58.0797 71.4358C59.2636 72.6959 60.6598 73.7383 62.2045 74.5153C60.5089 74.8683 58.7804 75.0388 57.0484 75.0238C50.6069 75.0238 37.54 72.8343 22.4249 58.2277C0.896469 37.3773 4.97896 18.6741 5.47338 16.6682C5.51577 16.4822 5.51577 16.2891 5.47338 16.1031C5.37981 15.3111 5.55385 14.5105 5.9678 13.8288C7.50523 11.2951 9.36679 8.97286 11.5053 6.92101C12.0066 6.39982 12.6681 6.06163 13.3841 5.96043C13.596 5.96043 14.2458 5.96043 15.3053 7.37306L27.2844 23.6889C27.6333 24.1516 27.7912 24.7305 27.7255 25.3063C27.6598 25.882 27.3754 26.4105 26.9312 26.7826L21.0123 31.2748H20.8993C19.3132 30.124 17.8714 28.7865 16.6049 27.2911C16.5038 27.1353 16.373 27.0009 16.2199 26.8956C16.0669 26.7904 15.8946 26.7162 15.713 26.6775C15.5313 26.6388 15.3438 26.6363 15.1611 26.6701C14.9784 26.7039 14.8042 26.7733 14.6484 26.8744C14.4926 26.9755 14.3582 27.1063 14.2529 27.2594C14.1476 27.4124 14.0735 27.5847 14.0348 27.7663C13.9961 27.948 13.9936 28.1355 14.0274 28.3182C14.0612 28.5008 14.1306 28.6751 14.2317 28.8309C15.5439 30.4756 17.0687 31.9387 18.7662 33.1818C17.6361 37.787 21.2101 43.9319 30.2226 52.9586C37.3988 60.1206 42.6255 61.6321 45.7615 61.6321C46.7604 61.6684 47.7534 61.465 48.6574 61.0388C48.8447 60.9341 49.0056 60.788 49.128 60.6118C49.2504 60.4356 49.331 60.2337 49.3637 60.0217C49.3811 59.763 49.3811 59.5035 49.3637 59.2448C49.3493 59.0378 49.3493 58.8302 49.3637 58.6232L53.6016 52.6195C53.9666 52.179 54.4817 51.8891 55.0476 51.8056C55.6136 51.7222 56.1904 51.8511 56.667 52.1675L73.3784 63.5957C74.2966 64.2314 74.791 64.8247 74.8758 65.3615C74.8802 66.1055 74.5908 66.8212 74.0706 67.3532Z" fill="#E30611"/>
<path d="M38.2881 19.3368C43.6653 20.9809 48.5595 23.9135 52.5453 27.8796C56.5311 31.8457 59.4879 36.7254 61.1586 42.0943C61.2518 42.3919 61.441 42.6503 61.6965 42.8292C61.9521 43.0081 62.2596 43.0974 62.5712 43.0831C62.7117 43.1044 62.8545 43.1044 62.995 43.0831C63.3527 42.9724 63.6518 42.7243 63.8266 42.3932C64.0014 42.0621 64.0377 41.6751 63.9273 41.3173C62.1217 35.5066 58.9228 30.2256 54.6091 25.9341C50.2955 21.6426 44.998 18.4709 39.1781 16.6952C38.8203 16.5898 38.4353 16.6301 38.1072 16.8074C37.779 16.9847 37.5343 17.2846 37.4264 17.6417C37.3333 17.9808 37.37 18.3424 37.5293 18.6559C37.6887 18.9694 37.9593 19.2122 38.2881 19.3368Z" fill="#E30611"/>
<path d="M40.1684 8.92563C48.1799 10.8259 55.4644 15.0188 61.1315 20.992C66.7987 26.9652 70.603 34.46 72.0796 42.5603C72.1398 42.8894 72.3148 43.1865 72.5735 43.3986C72.8322 43.6107 73.1578 43.7241 73.4923 43.7187H73.7465C73.9293 43.6863 74.1039 43.6182 74.2603 43.5183C74.4168 43.4184 74.552 43.2886 74.6582 43.1365C74.7645 42.9843 74.8397 42.8127 74.8796 42.6314C74.9195 42.4501 74.9233 42.2627 74.8908 42.08C73.3355 33.4239 69.289 25.4094 63.247 19.0187C57.205 12.6279 49.43 8.13846 40.8747 6.10037C40.6892 6.05399 40.4964 6.04459 40.3072 6.07274C40.1181 6.10088 39.9363 6.16602 39.7724 6.2644C39.6084 6.36279 39.4654 6.4925 39.3516 6.64614C39.2377 6.79978 39.1553 6.97433 39.1089 7.15984C39.0625 7.34535 39.0531 7.53816 39.0813 7.7273C39.1094 7.91644 39.1746 8.0982 39.2729 8.26217C39.3713 8.42613 39.501 8.56912 39.6547 8.68296C39.8083 8.7968 39.9829 8.87925 40.1684 8.92563Z" fill="#E30611"/>
</svg>
