<svg width="80" height="80" viewBox="0 0 80 80" fill="none" xmlns="http://www.w3.org/2000/svg">
<path d="M40.4232 5C20.4921 5 4.13602 18.6144 4.00162 35.3603C3.90755 45.7089 7.89914 53.1545 16.9172 59.4711C17.0452 59.5896 17.1663 59.7153 17.28 59.8475C17.5488 63.6643 15.1835 67.9113 10.2511 72.6958L9.90165 73.0318C9.70637 73.2267 9.57581 73.4771 9.52772 73.7488C9.47963 74.0205 9.51635 74.3004 9.63286 74.5505C9.74083 74.7838 9.91342 74.9812 10.1302 75.1194C10.347 75.2575 10.5988 75.3306 10.8559 75.33H11.0306C21.3657 74.5236 31.9159 66.9302 33.7975 65.5056L34.6173 65.4249C35.8134 65.5728 39.2405 65.9088 40.477 65.9088C60.5559 65.9088 76.8852 52.1868 76.8852 35.4409C76.8852 18.6951 60.5021 5 40.4232 5ZM40.3292 63.0461C39.1733 63.0461 35.4505 62.7773 34.7651 62.6564C34.618 62.6363 34.4688 62.6363 34.3216 62.6564L32.9776 62.8714C32.753 62.9102 32.541 63.0024 32.3594 63.1402C32.2653 63.2208 23.7177 69.86 14.6459 72.0104C18.5837 67.5215 20.3577 63.2343 19.9142 59.2292C19.9128 59.1227 19.89 59.0176 19.847 58.9201C19.5874 58.3408 19.1908 57.8334 18.6912 57.4417L18.5434 57.3208C10.1436 51.4745 6.60893 44.9159 6.68957 35.3872C6.8374 20.1062 21.9571 7.68794 40.4232 7.68794C58.8894 7.68794 74.1972 20.1062 74.1972 35.3737C74.1972 50.6413 59.0103 63.0461 40.3292 63.0461Z" fill="#E30611"/>
<path d="M24.9667 30.979C23.9035 30.979 22.8641 31.2943 21.98 31.885C21.096 32.4757 20.4069 33.3153 20 34.2976C19.5932 35.2799 19.4867 36.3609 19.6941 37.4037C19.9015 38.4465 20.4136 39.4044 21.1654 40.1562C21.9172 40.908 22.8751 41.42 23.9179 41.6275C24.9608 41.8349 26.0416 41.7284 27.024 41.3216C28.0063 40.9147 28.8459 40.2256 29.4366 39.3416C30.0273 38.4575 30.3426 37.4181 30.3426 36.3549C30.3426 34.9291 29.7762 33.5617 28.768 32.5536C27.7599 31.5454 26.3925 30.979 24.9667 30.979ZM24.9667 39.0428C24.4351 39.0428 23.9154 38.8852 23.4734 38.5898C23.0313 38.2945 22.6868 37.8747 22.4834 37.3835C22.2799 36.8924 22.2267 36.3519 22.3304 35.8305C22.4341 35.3091 22.6901 34.8301 23.066 34.4542C23.442 34.0783 23.9209 33.8223 24.4423 33.7186C24.9637 33.6149 25.5042 33.6681 25.9953 33.8716C26.4865 34.075 26.9063 34.4195 27.2017 34.8615C27.497 35.3036 27.6546 35.8233 27.6546 36.3549C27.6546 37.0678 27.3715 37.7515 26.8674 38.2555C26.3633 38.7596 25.6796 39.0428 24.9667 39.0428Z" fill="#E30611"/>
<path d="M39.7504 30.979C38.6871 30.979 37.6478 31.2943 36.7637 31.885C35.8797 32.4757 35.1906 33.3153 34.7837 34.2976C34.3768 35.2799 34.2704 36.3609 34.4778 37.4037C34.6852 38.4465 35.1973 39.4044 35.9491 40.1562C36.7009 40.908 37.6588 41.42 38.7016 41.6275C39.7444 41.8349 40.8253 41.7284 41.8077 41.3216C42.79 40.9147 43.6296 40.2256 44.2203 39.3416C44.811 38.4575 45.1263 37.4181 45.1263 36.3549C45.1263 34.9291 44.5599 33.5617 43.5517 32.5536C42.5435 31.5454 41.1762 30.979 39.7504 30.979ZM39.7504 39.0428C39.2188 39.0428 38.6991 38.8852 38.2571 38.5898C37.815 38.2945 37.4705 37.8747 37.2671 37.3835C37.0636 36.8924 37.0104 36.3519 37.1141 35.8305C37.2178 35.3091 37.4738 34.8301 37.8497 34.4542C38.2256 34.0783 38.7046 33.8223 39.226 33.7186C39.7474 33.6149 40.2879 33.6681 40.779 33.8716C41.2702 34.075 41.69 34.4195 41.9853 34.8615C42.2807 35.3036 42.4383 35.8233 42.4383 36.3549C42.4383 37.0678 42.1551 37.7515 41.6511 38.2555C41.147 38.7596 40.4633 39.0428 39.7504 39.0428Z" fill="#E30611"/>
<path d="M54.5341 30.979C53.4708 30.979 52.4315 31.2943 51.5474 31.885C50.6634 32.4757 49.9743 33.3153 49.5674 34.2976C49.1605 35.2799 49.0541 36.3609 49.2615 37.4037C49.4689 38.4465 49.9809 39.4044 50.7328 40.1562C51.4846 40.908 52.4425 41.42 53.4853 41.6275C54.5281 41.8349 55.609 41.7284 56.5913 41.3216C57.5737 40.9147 58.4133 40.2256 59.004 39.3416C59.5947 38.4575 59.91 37.4181 59.91 36.3549C59.91 34.9291 59.3436 33.5617 58.3354 32.5536C57.3272 31.5454 55.9599 30.979 54.5341 30.979ZM54.5341 39.0428C54.0025 39.0428 53.4828 38.8852 53.0408 38.5898C52.5987 38.2945 52.2542 37.8747 52.0508 37.3835C51.8473 36.8924 51.7941 36.3519 51.8978 35.8305C52.0015 35.3091 52.2575 34.8301 52.6334 34.4542C53.0093 34.0783 53.4883 33.8223 54.0097 33.7186C54.5311 33.6149 55.0716 33.6681 55.5627 33.8716C56.0539 34.075 56.4737 34.4195 56.769 34.8615C57.0644 35.3036 57.222 35.8233 57.222 36.3549C57.222 37.0678 56.9388 37.7515 56.4348 38.2555C55.9307 38.7596 55.247 39.0428 54.5341 39.0428Z" fill="#E30611"/>
</svg>
